<svg width="36" height="36" viewBox="0 0 36 36" fill="none" xmlns="http://www.w3.org/2000/svg">
<g clip-path="url(#clip0_258_173)">
<path d="M28.5001 16.5H11.7451L19.0651 9.17999C19.6501 8.59499 19.6501 7.63499 19.0651 7.04999C18.9264 6.91094 18.7615 6.80062 18.5801 6.72534C18.3986 6.65007 18.2041 6.61133 18.0076 6.61133C17.8112 6.61133 17.6167 6.65007 17.4352 6.72534C17.2537 6.80062 17.0889 6.91094 16.9501 7.04999L7.06513 16.935C6.92608 17.0738 6.81575 17.2386 6.74048 17.4201C6.66521 17.6015 6.62646 17.796 6.62646 17.9925C6.62646 18.1889 6.66521 18.3835 6.74048 18.5649C6.81575 18.7464 6.92608 18.9112 7.06513 19.05L16.9501 28.935C17.089 29.0739 17.2539 29.184 17.4353 29.2592C17.6168 29.3343 17.8112 29.373 18.0076 29.373C18.204 29.373 18.3985 29.3343 18.5799 29.2592C18.7614 29.184 18.9263 29.0739 19.0651 28.935C19.204 28.7961 19.3142 28.6313 19.3893 28.4498C19.4645 28.2684 19.5032 28.0739 19.5032 27.8775C19.5032 27.6811 19.4645 27.4866 19.3893 27.3052C19.3142 27.1237 19.204 26.9589 19.0651 26.82L11.7451 19.5H28.5001C29.3251 19.5 30.0001 18.825 30.0001 18C30.0001 17.175 29.3251 16.5 28.5001 16.5Z" fill="black"/>
</g>
<defs>
<clipPath id="clip0_258_173">
<rect width="36" height="36" fill="white"/>
</clipPath>
</defs>
</svg>
