<svg width="36" height="36" viewBox="0 0 36 36" fill="none" xmlns="http://www.w3.org/2000/svg">
<g clip-path="url(#clip0_258_176)">
<path d="M7.49987 19.5L24.2549 19.5L16.9349 26.82C16.3499 27.405 16.3499 28.365 16.9349 28.95C17.0736 29.0891 17.2385 29.1994 17.4199 29.2747C17.6014 29.3499 17.7959 29.3887 17.9924 29.3887C18.1888 29.3887 18.3833 29.3499 18.5648 29.2747C18.7463 29.1994 18.9111 29.0891 19.0499 28.95L28.9349 19.065C29.0739 18.9262 29.1842 18.7614 29.2595 18.5799C29.3348 18.3985 29.3735 18.204 29.3735 18.0075C29.3735 17.8111 29.3348 17.6165 29.2595 17.4351C29.1842 17.2536 29.0739 17.0888 28.9349 16.95L19.0499 7.065C18.911 6.92613 18.7461 6.81597 18.5647 6.74082C18.3832 6.66566 18.1888 6.62698 17.9924 6.62698C17.796 6.62698 17.6015 6.66566 17.4201 6.74082C17.2386 6.81597 17.0737 6.92613 16.9349 7.065C16.796 7.20388 16.6858 7.36874 16.6107 7.55019C16.5355 7.73164 16.4968 7.92611 16.4968 8.12251C16.4968 8.3189 16.5355 8.51337 16.6107 8.69482C16.6858 8.87627 16.796 9.04113 16.9349 9.18001L24.2549 16.5L7.49987 16.5C6.67487 16.5 5.99987 17.175 5.99987 18C5.99987 18.825 6.67487 19.5 7.49987 19.5Z" fill="black"/>
</g>
<defs>
<clipPath id="clip0_258_176">
<rect width="36" height="36" fill="white" transform="matrix(-1 0 0 -1 36 36)"/>
</clipPath>
</defs>
</svg>
