<svg width="80" height="80" viewBox="0 0 80 80" fill="none" xmlns="http://www.w3.org/2000/svg">
<path d="M9.9663 24.6C9.57828 24.987 9.27042 25.4468 9.06036 25.953C8.85031 26.4593 8.74219 27.0019 8.74219 27.55C8.74219 28.0981 8.85031 28.6407 9.06036 29.1469C9.27042 29.6531 9.57828 30.1129 9.9663 30.5L37.6663 58.2C37.9747 58.509 38.341 58.7542 38.7442 58.9214C39.1475 59.0887 39.5797 59.1748 40.0163 59.1748C40.4529 59.1748 40.8851 59.0887 41.2884 58.9214C41.6916 58.7542 42.0579 58.509 42.3663 58.2L70.0663 30.5C71.6996 28.8667 71.6996 26.2333 70.0663 24.6C68.433 22.9667 65.7996 22.9667 64.1663 24.6L39.9996 48.7333L15.833 24.5667C14.233 22.9667 11.5663 22.9667 9.9663 24.6Z" fill="#A84AC9"/>
</svg>
