<svg width="24" height="24" viewBox="0 0 24 24" fill="none" xmlns="http://www.w3.org/2000/svg">
<g clip-path="url(#clip0_267_373)">
<path d="M12.9998 18.9999V7.82992L17.8798 12.7099C18.2698 13.0999 18.9098 13.0999 19.2998 12.7099C19.3925 12.6174 19.4661 12.5075 19.5163 12.3865C19.5665 12.2656 19.5923 12.1359 19.5923 12.0049C19.5923 11.874 19.5665 11.7443 19.5163 11.6233C19.4661 11.5023 19.3925 11.3924 19.2998 11.2999L12.7098 4.70992C12.6173 4.61722 12.5074 4.54367 12.3865 4.49349C12.2655 4.44331 12.1358 4.41748 12.0048 4.41748C11.8739 4.41748 11.7442 4.44331 11.6232 4.49349C11.5022 4.54367 11.3924 4.61722 11.2998 4.70992L4.70984 11.2999C4.61726 11.3925 4.54382 11.5024 4.49372 11.6234C4.44361 11.7443 4.41782 11.874 4.41782 12.0049C4.41782 12.1359 4.44361 12.2655 4.49372 12.3865C4.54382 12.5074 4.61726 12.6173 4.70984 12.7099C4.80242 12.8025 4.91233 12.8759 5.0333 12.9261C5.15426 12.9762 5.28391 13.0019 5.41484 13.0019C5.54577 13.0019 5.67542 12.9762 5.79638 12.9261C5.91735 12.8759 6.02726 12.8025 6.11984 12.7099L10.9998 7.82992L10.9998 18.9999C10.9998 19.5499 11.4498 19.9999 11.9998 19.9999C12.5498 19.9999 12.9998 19.5499 12.9998 18.9999Z" fill="white"/>
</g>
<defs>
<clipPath id="clip0_267_373">
<rect width="24" height="24" fill="white" transform="matrix(0 1 -1 0 24 0)"/>
</clipPath>
</defs>
</svg>
