<svg width="24" height="24" viewBox="0 0 24 24" fill="none" xmlns="http://www.w3.org/2000/svg">
<g clip-path="url(#clip0_271_648)">
<path d="M2.99028 7.38C2.87387 7.49611 2.78152 7.63405 2.7185 7.78591C2.65548 7.93778 2.62305 8.10058 2.62305 8.265C2.62305 8.42942 2.65548 8.59222 2.7185 8.74408C2.78152 8.89594 2.87387 9.03388 2.99028 9.15L11.3003 17.46C11.3928 17.5527 11.5027 17.6262 11.6237 17.6764C11.7446 17.7266 11.8743 17.7524 12.0053 17.7524C12.1362 17.7524 12.2659 17.7266 12.3869 17.6764C12.5079 17.6262 12.6178 17.5527 12.7103 17.46L21.0203 9.15C21.5103 8.66 21.5103 7.87 21.0203 7.38C20.5303 6.89 19.7403 6.89 19.2503 7.38L12.0003 14.62L4.75028 7.37C4.27028 6.89 3.47028 6.89 2.99028 7.38Z" fill="black"/>
</g>
<defs>
<clipPath id="clip0_271_648">
<rect width="24" height="24" fill="white"/>
</clipPath>
</defs>
</svg>
