<svg width="52" height="52" viewBox="0 0 52 52" fill="none" xmlns="http://www.w3.org/2000/svg">
<path d="M49.5105 25.1485C49.0729 24.0912 48.1347 23.8377 47.4999 23.777V17.3334C47.4999 14.9435 45.5564 13 43.1665 13H30.1665V9.98837C30.8274 9.39471 31.2499 8.54104 31.2499 7.58337C31.2499 6.72142 30.9074 5.89477 30.298 5.28528C29.6885 4.67578 28.8618 4.33337 27.9999 4.33337C27.1379 4.33337 26.3113 4.67578 25.7018 5.28528C25.0923 5.89477 24.7499 6.72142 24.7499 7.58337C24.7499 8.54104 25.1724 9.39471 25.8332 9.98837V13H12.8332C10.4434 13 8.49986 14.9435 8.49986 17.3334V23.8269L8.32219 23.8399C7.77613 23.8793 7.26524 24.124 6.89223 24.5247C6.51922 24.9255 6.31174 25.4526 6.31152 26V30.3334C6.31152 30.908 6.5398 31.4591 6.94613 31.8654C7.35245 32.2718 7.90355 32.5 8.47819 32.5H8.49986V43.3334C8.49986 45.7232 10.4434 47.6667 12.8332 47.6667H43.1665C45.5564 47.6667 47.4999 45.7232 47.4999 43.3334V32.5C48.0745 32.5 48.6256 32.2718 49.0319 31.8654C49.4383 31.4591 49.6665 30.908 49.6665 30.3334V26.1344C49.6915 25.7981 49.6381 25.4607 49.5105 25.1485ZM12.8332 43.3334V17.3334H43.1665L43.1687 25.9914L43.1665 26V30.3334L43.1687 30.3442L43.1709 43.3334H12.8332Z" fill="#A84AC9"/>
<path d="M20.4165 30.3333C22.2114 30.3333 23.6665 28.3932 23.6665 26C23.6665 23.6067 22.2114 21.6666 20.4165 21.6666C18.6216 21.6666 17.1665 23.6067 17.1665 26C17.1665 28.3932 18.6216 30.3333 20.4165 30.3333Z" fill="#A84AC9"/>
<path d="M35.5835 30.3333C37.3784 30.3333 38.8335 28.3932 38.8335 26C38.8335 23.6067 37.3784 21.6666 35.5835 21.6666C33.7886 21.6666 32.3335 23.6067 32.3335 26C32.3335 28.3932 33.7886 30.3333 35.5835 30.3333Z" fill="#A84AC9"/>
<path d="M19.3335 34.6666H36.6668V39H19.3335V34.6666Z" fill="#A84AC9"/>
</svg>
