<svg width="52" height="52" viewBox="0 0 52 52" fill="none" xmlns="http://www.w3.org/2000/svg">
<path d="M28.0994 2.27452C26.3931 2.27452 24.7996 3.05147 23.4413 4.32374C22.0832 5.59632 20.9205 7.36859 19.9513 9.51531C19.7482 9.96503 19.5542 10.4324 19.3688 10.9145C18.8687 10.8352 18.3664 10.7699 17.8626 10.7189C17.2766 10.6605 16.7048 10.6243 16.1492 10.6113C14.4816 10.5717 12.9574 10.7408 11.6216 11.1457C9.84058 11.6857 8.37097 12.6776 7.51784 14.155C6.66472 15.6327 6.54081 17.4013 6.96362 19.2138C7.38663 21.0262 8.33999 22.9192 9.71464 24.8321C10.0031 25.2332 10.3112 25.6356 10.6364 26.0379C10.3183 26.4307 10.0113 26.8323 9.71586 27.2424C8.34111 29.1552 7.38774 31.0482 6.96484 32.8607C6.54193 34.6732 6.66594 36.4418 7.51906 37.9192C8.37219 39.3969 9.8418 40.3887 11.6228 40.9285C13.4039 41.4686 15.5201 41.5894 17.8638 41.3553C18.3552 41.3061 18.8571 41.2405 19.3678 41.1601C19.549 41.6327 19.7436 42.1002 19.9513 42.5618C20.9205 44.7089 22.0831 46.4808 23.4413 47.7533C24.7995 49.0257 26.3932 49.8028 28.0994 49.8028C29.8054 49.8028 31.3991 49.0257 32.7573 47.7533C34.1154 46.4807 35.2781 44.7087 36.2473 42.5618C36.4551 42.1002 36.6497 41.6329 36.8309 41.1603C37.341 41.2405 37.8425 41.3062 38.3334 41.3553C40.6773 41.5893 42.7935 41.4685 44.5744 40.9285C46.3556 40.3886 47.8253 39.3967 48.6784 37.9192C49.5315 36.4415 49.6554 34.6731 49.2326 32.8607C48.8096 31.0483 47.8561 29.1553 46.4816 27.2424C46.186 26.8324 45.879 26.4307 45.5609 26.0379C45.8796 25.6448 46.1869 25.2427 46.4827 24.8322C47.8574 22.9193 48.8107 21.0263 49.2336 19.2139C49.6565 17.4014 49.5325 15.6328 48.6794 14.1551C47.8263 12.6777 46.3567 11.6858 44.5757 11.1458C43.2399 10.7409 41.7157 10.5718 40.0482 10.6113C39.4923 10.6243 38.9204 10.6605 38.3344 10.7189C37.8429 10.7681 37.3405 10.834 36.8296 10.9144C36.6485 10.4427 36.4542 9.97613 36.2469 9.51531C35.2777 7.36828 34.1151 5.59602 32.7569 4.32364C31.3987 3.05127 29.805 2.27441 28.099 2.27441L28.0994 2.27452ZM28.0994 4.17241C29.2374 4.17241 30.3533 4.67241 31.4597 5.70905C32.566 6.7455 33.6227 8.31444 34.5174 10.2963C34.6629 10.6197 34.8013 10.9462 34.9324 11.2757C32.7572 11.7593 30.4535 12.5014 28.0988 13.4928C25.7446 12.5016 23.4411 11.7597 21.2664 11.2761C21.4006 10.9399 21.5385 10.6123 21.6813 10.2962C22.5761 8.31423 23.6328 6.7453 24.7392 5.70865C25.8456 4.6722 26.9614 4.17221 28.0996 4.17221L28.0994 4.17241ZM15.5473 12.5063C15.7305 12.5045 15.9167 12.5057 16.1057 12.51C16.6094 12.5212 17.1332 12.5537 17.6741 12.6078C18.02 12.6423 18.3736 12.6865 18.7328 12.7386C18.0639 14.864 17.5547 17.2299 17.2355 19.7647C15.1994 21.3084 13.4048 22.9328 11.8984 24.575C11.678 24.2962 11.4637 24.0125 11.2559 23.7241C9.98683 21.9583 9.15656 20.2588 8.81195 18.7823C8.46745 17.3058 8.59258 16.0896 9.16153 15.104C9.73048 14.1184 10.7215 13.4021 12.1723 12.9622C13.1244 12.6735 14.2644 12.5179 15.5472 12.5062L15.5473 12.5063ZM40.6503 12.5063C41.933 12.518 43.073 12.6736 44.0252 12.9623C45.4761 13.4021 46.4668 14.1184 47.0358 15.104C47.6048 16.0896 47.73 17.3059 47.3855 18.7823C47.0412 20.2587 46.2104 21.9583 44.9416 23.7241C44.7337 24.0125 44.5196 24.2963 44.2992 24.5752C42.793 22.9332 40.9989 21.3093 38.9634 19.7657C38.6445 17.2305 38.1347 14.8643 37.4658 12.7386C37.8246 12.6865 38.1777 12.6421 38.5234 12.6078C39.0447 12.555 39.568 12.5223 40.0919 12.5099C40.278 12.5057 40.4641 12.5044 40.6503 12.5061V12.5063ZM35.5803 13.0791C36.085 14.6471 36.503 16.3771 36.8149 18.2284C35.8072 17.5477 34.7759 16.9029 33.7227 16.2951C32.6703 15.6872 31.5968 15.1166 30.5042 14.5845C32.2632 13.9289 33.9702 13.426 35.5803 13.0793V13.0791ZM20.6184 13.0794C22.2282 13.4262 23.9349 13.9291 25.6935 14.5846C24.6008 15.1167 23.5273 15.6873 22.475 16.2951C21.4223 16.9026 20.3913 17.5471 19.384 18.2272C19.6958 16.3765 20.1136 14.647 20.6184 13.0794ZM28.0988 15.5637C29.6432 16.2449 31.211 17.0367 32.7737 17.939C34.337 18.8417 35.8074 19.8037 37.1698 20.801C37.3522 22.4796 37.4503 24.2337 37.4503 26.0386C37.4503 27.8426 37.3525 29.5959 37.1702 31.2738C35.8078 32.2709 34.3377 33.2327 32.7748 34.1352C31.2118 35.0376 29.6436 35.8296 28.0989 36.5109C26.5539 35.8296 24.9858 35.0376 23.4227 34.1352C21.8602 33.233 20.3907 32.2715 19.0287 31.2748C18.8464 29.5967 18.7484 27.843 18.7484 26.0385C18.7484 24.2332 18.8464 22.479 19.0289 20.8002C20.3912 19.8032 21.861 18.8413 23.4239 17.939C24.9867 17.0368 26.5544 16.2449 28.0988 15.5639V15.5637ZM28.2271 18.4192L22.7934 21.7725L28.2271 25.1261L33.6609 21.7725L28.2271 18.4191V18.4192ZM16.9781 22.3937C16.8927 23.6067 16.8501 24.8223 16.8504 26.0383C16.8504 27.2772 16.8941 28.4933 16.9782 29.6807C15.5309 28.4854 14.2418 27.2585 13.1364 26.0374C14.2418 24.8164 15.5308 23.5893 16.9781 22.3937ZM39.2208 22.3948C40.6673 23.5901 41.9562 24.8167 43.0612 26.0375C41.9562 27.2583 40.6673 28.4848 39.2208 29.6799C39.3061 28.468 39.3486 27.2534 39.3483 26.0384C39.3483 24.7989 39.3047 23.5826 39.2207 22.3948H39.2208ZM21.5692 23.2473V29.8689L27.276 33.3908V26.7695L21.5692 23.2473ZM34.8798 23.2507L29.1743 26.7719V33.3901L34.8799 29.8689V23.2507H34.8798ZM11.8982 27.5001C13.4048 29.1424 15.1992 30.7664 17.2351 32.3101C17.554 34.8446 18.0635 37.2103 18.7322 39.3357C18.3737 39.3875 18.0206 39.4319 17.6753 39.4664C15.5116 39.6824 13.6243 39.5517 12.1735 39.1119C10.7225 38.6722 9.73191 37.9556 9.16285 36.97C8.5939 35.9843 8.46867 34.7681 8.81317 33.2917C9.15767 31.8153 9.98805 30.1156 11.2571 28.3499C11.4645 28.0619 11.6782 27.7786 11.8982 27.5001ZM44.2991 27.5004C44.5233 27.7848 44.7379 28.0681 44.9403 28.3499C46.2092 30.1155 47.0396 31.8152 47.3841 33.2916C47.7286 34.768 47.6036 35.9842 47.0347 36.9699C46.4655 37.9555 45.4747 38.6721 44.0238 39.1118C42.5731 39.5516 40.686 39.6823 38.5223 39.4663C38.1695 39.4305 37.8175 39.387 37.4666 39.3358C38.1354 37.2099 38.6447 34.8437 38.9636 32.3087C40.9989 30.7653 42.7931 29.1418 44.2992 27.5002L44.2991 27.5004ZM36.8153 33.8463C36.5035 35.6974 36.0856 37.4274 35.5809 38.9953C33.9707 38.6486 32.2635 38.1454 30.5044 37.4899C31.5973 36.9575 32.6712 36.3868 33.7239 35.7788C34.7768 35.1712 35.808 34.5266 36.8155 33.8463H36.8153ZM19.3836 33.8473C20.3905 34.5273 21.4211 35.1715 22.4735 35.7788C23.5263 36.3867 24.6001 36.9575 25.6931 37.4899C23.9344 38.1453 22.2278 38.6484 20.6177 38.995C20.1129 37.4275 19.6954 35.6979 19.3836 33.8473ZM28.1555 33.9337L28.2246 33.9763L28.2934 33.9337H28.1556H28.1555ZM28.0987 38.5819C30.4539 39.5731 32.7578 40.3151 34.9332 40.7986C34.8019 41.129 34.6633 41.4564 34.5174 41.7807C33.6227 43.7625 32.566 45.3313 31.4596 46.368C30.3533 47.4045 29.2374 47.9046 28.0994 47.9046C26.9613 47.9046 25.8454 47.4045 24.7391 46.368C23.6328 45.3314 22.5761 43.7625 21.6813 41.7806C21.5355 41.4563 21.3969 41.1289 21.2654 40.7985C23.4405 40.3148 25.7441 39.573 28.0989 38.5819H28.0987Z" fill="#A84AC9"/>
</svg>
