<svg width="52" height="52" viewBox="0 0 52 52" fill="none" xmlns="http://www.w3.org/2000/svg">
<path d="M16.25 48.75H6.5C5.63805 48.75 4.8114 48.4076 4.2019 47.7981C3.59241 47.1886 3.25 46.362 3.25 45.5V26C3.25 25.138 3.59241 24.3114 4.2019 23.7019C4.8114 23.0924 5.63805 22.75 6.5 22.75H16.25C17.112 22.75 17.9386 23.0924 18.5481 23.7019C19.1576 24.3114 19.5 25.138 19.5 26V45.5C19.5 46.362 19.1576 47.1886 18.5481 47.7981C17.9386 48.4076 17.112 48.75 16.25 48.75ZM6.5 26V45.5H16.25V26H6.5Z" fill="#A84AC9"/>
<path d="M45.5 6.5H9.75C8.88805 6.5 8.0614 6.84241 7.4519 7.4519C6.84241 8.0614 6.5 8.88805 6.5 9.75V19.5H9.75V9.75H45.5V32.5H22.75V35.75H26V42.25H22.75V45.5H37.375V42.25H29.25V35.75H45.5C46.362 35.75 47.1886 35.4076 47.7981 34.7981C48.4076 34.1886 48.75 33.362 48.75 32.5V9.75C48.75 8.88805 48.4076 8.0614 47.7981 7.4519C47.1886 6.84241 46.362 6.5 45.5 6.5Z" fill="#A84AC9"/>
</svg>
