<svg width="52" height="52" viewBox="0 0 52 52" fill="none" xmlns="http://www.w3.org/2000/svg">
<path d="M25.4002 10.4C23.4164 10.4 21.5652 10.9538 19.987 11.9184C19.8239 11.0458 19.5265 10.2039 19.1056 9.42237C21.085 8.32699 23.3159 7.7671 25.5779 7.79803C27.84 7.82896 30.0548 8.44965 32.0035 9.59874C33.9521 10.7478 35.5672 12.3855 36.6891 14.35C37.8109 16.3145 38.4007 18.5377 38.4002 20.8H44.9028C45.9367 20.8007 46.928 21.2119 47.6588 21.9432C48.3897 22.6745 48.8002 23.6661 48.8002 24.7V40.3C48.8002 41.3343 48.3893 42.3263 47.6579 43.0577C46.9265 43.7891 45.9345 44.2 44.9002 44.2H29.3002C28.2659 44.2 27.2739 43.7891 26.5425 43.0577C25.8111 42.3263 25.4002 41.3343 25.4002 40.3V33.8C23.5916 33.8023 21.8025 33.4258 20.1482 32.695C20.182 31.811 20.2002 30.8828 20.2002 29.9V29.809C21.729 30.693 23.5048 31.2 25.4002 31.2V24.7C25.4002 23.6656 25.8111 22.6736 26.5425 21.9423C27.2739 21.2109 28.2659 20.8 29.3002 20.8H35.8002C35.8002 18.0417 34.7045 15.3964 32.7541 13.4461C30.8037 11.4957 28.1584 10.4 25.4002 10.4ZM38.1402 23.4C37.6288 25.8974 36.3952 28.1897 34.5926 29.9924C32.79 31.795 30.4977 33.0286 28.0002 33.54V40.3C28.0002 40.6447 28.1372 40.9754 28.381 41.2192C28.6248 41.463 28.9554 41.6 29.3002 41.6H44.9002C45.245 41.6 45.5756 41.463 45.8194 41.2192C46.0632 40.9754 46.2002 40.6447 46.2002 40.3V24.7C46.2002 24.3552 46.0632 24.0245 45.8194 23.7807C45.5756 23.5369 45.245 23.4 44.9002 23.4H38.1402ZM35.4726 23.4H29.3002C28.9554 23.4 28.6248 23.5369 28.381 23.7807C28.1372 24.0245 28.0002 24.3552 28.0002 24.7V30.8724C29.7989 30.4064 31.4403 29.4678 32.7541 28.1539C34.068 26.84 35.0066 25.1987 35.4726 23.4ZM13.9108 5.52497C14.1266 5.71373 14.274 5.96855 14.3299 6.24975C14.3859 6.53095 14.3473 6.82277 14.2202 7.07977C14.1982 7.15584 14.1868 7.23458 14.1864 7.31377C14.1864 7.47757 14.228 7.78957 14.6206 8.17957C14.8104 8.36937 14.956 8.50457 15.1146 8.65277C15.2446 8.77237 15.3824 8.89717 15.5566 9.06877C15.8946 9.39117 16.2508 9.77077 16.5706 10.2466C17.2336 11.2424 17.6002 12.4878 17.6002 14.3C17.6002 16.5178 16.7786 18.408 15.4968 19.5676L15.6632 19.76C16.3912 20.6544 16.815 21.814 17.0802 22.958C17.6002 25.22 17.6002 27.9396 17.6002 29.835V29.9C17.6002 37.1462 16.6148 41.2568 15.5306 43.6072C14.9846 44.7902 14.4048 45.5442 13.903 46.0174C13.699 46.2131 13.474 46.3857 13.2322 46.5322C13.1215 46.5988 13.0059 46.6571 12.8864 46.7064C12.8864 46.7064 12.5926 46.8 12.4002 46.8C12.2078 46.8 11.914 46.7064 11.914 46.7064C11.7932 46.6599 11.6774 46.6016 11.5682 46.5322C11.3264 46.3857 11.1014 46.2131 10.8974 46.0174C10.3956 45.5416 9.8158 44.7902 9.2698 43.6072C8.1856 41.2568 7.2002 37.1462 7.2002 29.9V29.835C7.2002 27.937 7.2002 25.22 7.7202 22.958C7.9854 21.814 8.4092 20.6544 9.1372 19.76C9.1892 19.695 9.2464 19.63 9.3036 19.5676C8.0218 18.408 7.2002 16.5178 7.2002 14.3C7.2002 13.4524 7.4264 12.441 7.7384 11.5076C8.0504 10.5716 8.48719 9.60437 8.99159 8.82437C9.5922 7.81037 10.4372 6.96017 11.0924 6.38817C11.4516 6.07226 11.8265 5.77462 12.2156 5.49637L12.2936 5.44437L12.317 5.42617L12.3248 5.42097L12.33 5.41837C12.5684 5.25945 12.8526 5.18374 13.1385 5.20302C13.4244 5.2223 13.6959 5.33548 13.9108 5.52497ZM12.4002 18.2C13.4064 18.1974 15.0002 17.082 15.0002 14.3C15.0002 12.8622 14.7168 12.1576 14.4048 11.6896C14.2151 11.4162 13.9963 11.1643 13.7522 10.9382L13.4298 10.6366C13.2192 10.439 12.9722 10.2102 12.7798 10.0204C12.4954 9.73896 12.2513 9.41961 12.0544 9.07137C11.7234 9.41936 11.4322 9.80304 11.186 10.2154C10.822 10.7744 10.4684 11.5414 10.2058 12.3318C9.9354 13.1378 9.8002 13.8502 9.8002 14.3C9.8002 17.0872 11.3992 18.2 12.4002 18.2ZM11.1522 21.4032C10.783 21.853 10.4762 22.5706 10.2526 23.543C9.8054 25.4878 9.8002 27.9318 9.8002 29.9C9.8002 36.9538 10.7648 40.6432 11.6306 42.5178C11.9166 43.134 12.1844 43.5448 12.4002 43.8178C12.7074 43.4165 12.9657 42.9801 13.1698 42.5178C14.0356 40.6432 15.0002 36.9538 15.0002 29.9C15.0002 27.9318 14.995 25.4878 14.5452 23.543C14.3216 22.5706 14.0148 21.853 13.6482 21.4032C13.5048 21.2088 13.3162 21.0524 13.0988 20.9473C12.8813 20.8422 12.6416 20.7916 12.4002 20.8H12.395C12.1545 20.7923 11.9157 20.8431 11.6992 20.9482C11.4827 21.0533 11.2949 21.2094 11.1522 21.4032Z" fill="#A84AC9"/>
</svg>
