<svg width="52" height="52" viewBox="0 0 52 52" fill="none" xmlns="http://www.w3.org/2000/svg">
<g clip-path="url(#clip0_269_194)">
<path d="M16.5599 19.7478L9.05644 26L16.5599 32.2522C16.8087 32.4562 17.0147 32.7073 17.166 32.9913C17.3173 33.2752 17.4109 33.5863 17.4414 33.9066C17.4719 34.2269 17.4386 34.5501 17.3436 34.8574C17.2486 35.1648 17.0936 35.4503 16.8877 35.6976C16.6818 35.9448 16.429 36.1488 16.1438 36.2978C15.8587 36.4468 15.5469 36.5379 15.2263 36.5658C14.9058 36.5937 14.5829 36.5579 14.2763 36.4604C13.9697 36.363 13.6854 36.2057 13.4399 35.9978L3.68988 27.8729C3.41528 27.6441 3.19434 27.3578 3.04272 27.0341C2.89109 26.7105 2.8125 26.3574 2.8125 26C2.8125 25.6426 2.89109 25.2896 3.04272 24.966C3.19434 24.6423 3.41528 24.356 3.68988 24.1272L13.4399 16.0022C13.9373 15.5946 14.5756 15.4 15.2158 15.461C15.856 15.5219 16.4462 15.8333 16.8578 16.3275C17.2694 16.8216 17.469 17.4583 17.4132 18.099C17.3574 18.7397 17.0507 19.3323 16.5599 19.7478ZM52.3099 24.1272L42.5599 16.0022C42.3143 15.7943 42.03 15.6371 41.7234 15.5396C41.4168 15.4422 41.0939 15.4063 40.7734 15.4343C40.4529 15.4622 40.1411 15.5533 39.8559 15.7023C39.5708 15.8513 39.318 16.0553 39.112 16.3025C38.9061 16.5497 38.7512 16.8353 38.6562 17.1426C38.5611 17.45 38.5279 17.7732 38.5584 18.0935C38.5888 18.4138 38.6824 18.7248 38.8337 19.0088C38.985 19.2927 39.191 19.5439 39.4399 19.7478L46.9433 26L39.4399 32.2522C39.191 32.4562 38.985 32.7073 38.8337 32.9913C38.6824 33.2752 38.5888 33.5863 38.5584 33.9066C38.5279 34.2269 38.5611 34.5501 38.6562 34.8574C38.7512 35.1648 38.9061 35.4503 39.112 35.6976C39.318 35.9448 39.5708 36.1488 39.8559 36.2978C40.1411 36.4468 40.4529 36.5379 40.7734 36.5658C41.0939 36.5937 41.4168 36.5579 41.7234 36.4604C42.03 36.363 42.3143 36.2057 42.5599 35.9978L52.3099 27.8729C52.5845 27.6441 52.8054 27.3578 52.957 27.0341C53.1087 26.7105 53.1873 26.3574 53.1873 26C53.1873 25.6426 53.1087 25.2896 52.957 24.966C52.8054 24.6423 52.5845 24.356 52.3099 24.1272ZM35.3327 5.83379C35.0318 5.72436 34.7123 5.67529 34.3925 5.68937C34.0726 5.70345 33.7586 5.7804 33.4685 5.91584C33.1784 6.05127 32.9178 6.24253 32.7017 6.4787C32.4855 6.71486 32.318 6.9913 32.2086 7.29222L19.2086 43.0422C18.9883 43.6496 19.0181 44.3197 19.2916 44.9051C19.5651 45.4906 20.0598 45.9435 20.6671 46.1643C20.9337 46.2627 21.2157 46.3129 21.4999 46.3125C22.0003 46.3126 22.4887 46.1587 22.8986 45.8716C23.3085 45.5845 23.6201 45.1782 23.7911 44.7078L36.7911 8.95785C36.9006 8.65696 36.9496 8.33747 36.9355 8.01761C36.9215 7.69775 36.8445 7.3838 36.7091 7.09369C36.5736 6.80358 36.3824 6.543 36.1462 6.32682C35.9101 6.11064 35.6336 5.94311 35.3327 5.83379Z" fill="#A84AC9"/>
</g>
<defs>
<clipPath id="clip0_269_194">
<rect width="52" height="52" fill="white"/>
</clipPath>
</defs>
</svg>
