<svg width="329" height="186" viewBox="0 0 329 186" fill="none" xmlns="http://www.w3.org/2000/svg">
<path d="M51.6672 93.8375C51.4671 94.101 51.2117 94.3174 50.9191 94.4714C50.6264 94.6254 50.3036 94.7133 49.9733 94.7289C49.643 94.7445 49.3134 94.6874 49.0075 94.5616C48.7017 94.4359 48.4271 94.2445 48.2031 94.001L40.833 97.2101L41.5509 93.0911L48.4396 90.6752C48.8732 90.3256 49.4197 90.1474 49.9757 90.1743C50.5318 90.2012 51.0586 90.4313 51.4564 90.8211C51.8543 91.2109 52.0955 91.7333 52.1343 92.2892C52.1732 92.8452 52.007 93.3961 51.6672 93.8375Z" fill="#A0616A"/>
<path d="M46.749 95.1236L29.6306 102.758L29.5939 102.744L10.0833 95.7838C8.63004 95.0234 7.52207 93.7356 6.98628 92.184C6.45048 90.6324 6.52739 88.9345 7.20126 87.4379C7.57478 86.611 8.11899 85.8726 8.79808 85.2715C9.47717 84.6703 10.2757 84.2199 11.1412 83.95C12.0067 83.6801 12.9194 83.5968 13.8194 83.7055C14.7193 83.8142 15.5861 84.1125 16.3626 84.5808L30.8821 93.3373L44.9615 91.5105L46.749 95.1236Z" fill="#3F3D56"/>
<path d="M63.842 146.556H230.339V50.0537C230.338 49.3306 230.051 48.6374 229.54 48.1262C229.029 47.6149 228.337 47.3273 227.615 47.3265H66.5662C65.844 47.3273 65.1515 47.6149 64.6409 48.1262C64.1302 48.6374 63.8429 49.3306 63.842 50.0537V146.556Z" fill="#CACACA"/>
<path d="M225.195 51.0984H68.9861V139.883H225.195V51.0984Z" fill="white"/>
<path d="M63.697 143.945V155.854C63.697 156.347 63.7941 156.836 63.9828 157.292C64.1715 157.748 64.4481 158.163 64.7968 158.512C65.1455 158.861 65.5594 159.138 66.015 159.327C66.4706 159.516 66.9589 159.613 67.452 159.613H128.905V183.115H128.088C128.024 183.115 127.961 183.127 127.902 183.152C127.842 183.177 127.789 183.213 127.743 183.258C127.698 183.303 127.662 183.357 127.638 183.416C127.613 183.476 127.601 183.539 127.601 183.603V185.238C127.601 185.302 127.613 185.365 127.638 185.425C127.662 185.484 127.698 185.538 127.743 185.583C127.789 185.629 127.842 185.664 127.902 185.689C127.961 185.714 128.024 185.726 128.088 185.726H166.237C166.301 185.726 166.365 185.714 166.424 185.689C166.483 185.664 166.537 185.629 166.582 185.583C166.628 185.538 166.664 185.484 166.688 185.425C166.713 185.365 166.725 185.302 166.725 185.238V183.603C166.725 183.539 166.713 183.476 166.688 183.416C166.664 183.357 166.628 183.303 166.582 183.258C166.537 183.213 166.483 183.177 166.424 183.152C166.365 183.127 166.301 183.115 166.237 183.115H165.421V159.613H226.874C227.367 159.613 227.855 159.516 228.311 159.327C228.766 159.138 229.18 158.861 229.529 158.512C229.878 158.163 230.154 157.748 230.343 157.292C230.532 156.836 230.629 156.347 230.629 155.854V143.945L63.697 143.945Z" fill="#3F3D56"/>
<path d="M117.559 95.0058H79.4925C79.2272 95.0055 78.9729 94.8998 78.7853 94.712C78.5978 94.5242 78.4922 94.2696 78.4919 94.004V78.5403C78.4922 78.2747 78.5978 78.0201 78.7853 77.8323C78.9729 77.6445 79.2272 77.5389 79.4925 77.5386H117.559C117.825 77.5389 118.079 77.6445 118.267 77.8323C118.454 78.0201 118.56 78.2747 118.56 78.5403V94.004C118.56 94.2696 118.454 94.5242 118.267 94.712C118.079 94.8998 117.825 95.0055 117.559 95.0058Z" fill="#A84AC9"/>
<path d="M113.935 102.424H83.1172C82.7987 102.424 82.4933 102.297 82.2682 102.072C82.043 101.846 81.9165 101.541 81.9165 101.222C81.9165 100.903 82.043 100.597 82.2682 100.372C82.4933 100.146 82.7987 100.02 83.1172 100.02H113.935C115.483 99.998 115.499 102.446 113.935 102.424Z" fill="#E4E4E4"/>
<path d="M113.935 107.933H83.1172C82.7988 107.933 82.4934 107.807 82.2682 107.581C82.043 107.356 81.9165 107.05 81.9165 106.731C81.9165 106.412 82.043 106.107 82.2682 105.881C82.4934 105.656 82.7988 105.529 83.1172 105.529H113.935C115.483 105.507 115.499 107.955 113.935 107.933Z" fill="#E4E4E4"/>
<path d="M113.935 113.443H83.1172C82.7987 113.443 82.4933 113.316 82.2682 113.091C82.043 112.865 81.9165 112.56 81.9165 112.241C81.9165 111.922 82.043 111.616 82.2682 111.391C82.4933 111.165 82.7987 111.039 83.1172 111.039H113.935C115.483 111.017 115.499 113.465 113.935 113.443Z" fill="#E4E4E4"/>
<path d="M166.124 95.0058H128.057C127.792 95.0055 127.537 94.8998 127.35 94.712C127.162 94.5242 127.057 94.2696 127.056 94.004V78.5403C127.057 78.2747 127.162 78.0201 127.35 77.8323C127.537 77.6445 127.792 77.5389 128.057 77.5386H166.124C166.389 77.5389 166.644 77.6445 166.831 77.8323C167.019 78.0201 167.124 78.2747 167.124 78.5403V94.004C167.124 94.2696 167.019 94.5242 166.831 94.712C166.644 94.8998 166.389 95.0055 166.124 95.0058Z" fill="#A84AC9"/>
<path d="M162.499 102.424H131.682C131.363 102.424 131.058 102.297 130.833 102.072C130.607 101.846 130.481 101.541 130.481 101.222C130.481 100.903 130.607 100.597 130.833 100.372C131.058 100.146 131.363 100.02 131.682 100.02H162.499C164.048 99.998 164.063 102.446 162.499 102.424Z" fill="#E4E4E4"/>
<path d="M162.499 107.933H131.682C131.363 107.933 131.058 107.807 130.833 107.581C130.607 107.356 130.481 107.05 130.481 106.731C130.481 106.412 130.607 106.107 130.833 105.881C131.058 105.656 131.363 105.529 131.682 105.529H162.499C164.048 105.507 164.063 107.955 162.499 107.933Z" fill="#E4E4E4"/>
<path d="M162.499 113.443H131.682C131.363 113.443 131.058 113.316 130.833 113.091C130.607 112.865 130.481 112.56 130.481 112.241C130.481 111.922 130.607 111.616 130.833 111.391C131.058 111.165 131.363 111.039 131.682 111.039H162.499C164.048 111.017 164.063 113.465 162.499 113.443Z" fill="#E4E4E4"/>
<path d="M214.688 95.0058H176.621C176.356 95.0055 176.102 94.8998 175.914 94.712C175.727 94.5242 175.621 94.2696 175.621 94.004V78.5403C175.621 78.2747 175.727 78.0201 175.914 77.8323C176.102 77.6445 176.356 77.5389 176.621 77.5386H214.688C214.954 77.5389 215.208 77.6445 215.396 77.8323C215.583 78.0201 215.689 78.2747 215.689 78.5403V94.004C215.689 94.2696 215.583 94.5242 215.396 94.712C215.208 94.8998 214.954 95.0055 214.688 95.0058Z" fill="#A84AC9"/>
<path d="M211.064 102.424H180.246C179.928 102.424 179.622 102.297 179.397 102.072C179.172 101.846 179.045 101.541 179.045 101.222C179.045 100.903 179.172 100.597 179.397 100.372C179.622 100.146 179.928 100.02 180.246 100.02H211.064C212.612 99.998 212.628 102.446 211.064 102.424Z" fill="#E4E4E4"/>
<path d="M211.064 107.933H180.246C179.928 107.933 179.623 107.806 179.398 107.58C179.174 107.355 179.047 107.05 179.047 106.731C179.047 106.413 179.174 106.107 179.398 105.882C179.623 105.657 179.928 105.53 180.246 105.529H211.064C212.612 105.507 212.628 107.955 211.064 107.933Z" fill="#E4E4E4"/>
<path d="M211.064 113.443H180.246C179.928 113.443 179.622 113.316 179.397 113.091C179.172 112.865 179.045 112.56 179.045 112.241C179.045 111.922 179.172 111.616 179.397 111.391C179.622 111.165 179.928 111.039 180.246 111.039H211.064C212.612 111.017 212.628 113.465 211.064 113.443Z" fill="#E4E4E4"/>
<path d="M279.736 77.7474L279.84 97.1299L280.265 97.1059L280.668 104.282L279.88 104.325L279.902 108.636L280.533 108.624L280.66 115.806L279.942 115.819L280.284 179.067C280.292 180.723 279.643 182.315 278.479 183.492C277.316 184.67 275.734 185.337 274.079 185.348L204.293 185.726C202.639 185.734 201.049 185.084 199.873 183.919C198.697 182.754 198.03 181.17 198.02 179.514L197.472 78.1942C197.465 76.538 198.114 74.9466 199.277 73.7692C200.44 72.5917 202.023 71.9245 203.677 71.9138L273.463 71.5352C275.117 71.5284 276.706 72.1785 277.882 73.343C279.058 74.5076 279.725 76.0915 279.736 77.7474Z" fill="#3F3D56"/>
<path d="M274.181 181.363L204.149 181.743C203.639 181.745 203.149 181.545 202.786 181.186C202.424 180.827 202.218 180.339 202.215 179.828L201.663 77.8347C201.66 77.3242 201.861 76.8337 202.219 76.4708C202.578 76.1079 203.065 75.9022 203.575 75.8989L273.607 75.5187C274.117 75.5165 274.607 75.7169 274.97 76.0759C275.332 76.4349 275.537 76.9232 275.541 77.4336L276.093 179.427C276.095 179.937 275.895 180.428 275.537 180.791C275.178 181.154 274.69 181.359 274.181 181.363Z" fill="white"/>
<path d="M238.315 74.1693C238.608 74.1693 238.845 73.9314 238.845 73.6379C238.845 73.3445 238.608 73.1066 238.315 73.1066C238.022 73.1066 237.784 73.3445 237.784 73.6379C237.784 73.9314 238.022 74.1693 238.315 74.1693Z" fill="white"/>
<path d="M259.144 104.226H218.612C218.329 104.226 218.059 104.114 217.859 103.914C217.659 103.714 217.547 103.443 217.546 103.16V86.6946C217.547 86.4119 217.659 86.1408 217.859 85.9408C218.059 85.7409 218.329 85.6284 218.612 85.6281H259.144C259.426 85.6284 259.697 85.7409 259.897 85.9408C260.097 86.1408 260.209 86.4119 260.209 86.6946V103.16C260.209 103.443 260.097 103.714 259.897 103.914C259.697 104.114 259.426 104.226 259.144 104.226Z" fill="#A84AC9"/>
<path d="M255.284 112.125H222.471C222.132 112.125 221.807 111.99 221.567 111.75C221.327 111.51 221.193 111.184 221.193 110.845C221.193 110.506 221.327 110.18 221.567 109.94C221.807 109.7 222.132 109.565 222.471 109.565H255.284C256.933 109.542 256.95 112.148 255.284 112.125Z" fill="#E4E4E4"/>
<path d="M255.285 117.991H222.471C222.132 117.991 221.808 117.856 221.569 117.616C221.329 117.376 221.195 117.05 221.195 116.711C221.195 116.372 221.329 116.047 221.569 115.807C221.808 115.567 222.132 115.432 222.471 115.431H255.285C256.933 115.408 256.95 118.014 255.285 117.991Z" fill="#E4E4E4"/>
<path d="M255.284 123.857H222.471C222.132 123.857 221.807 123.723 221.567 123.483C221.327 123.243 221.193 122.917 221.193 122.578C221.193 122.238 221.327 121.913 221.567 121.673C221.807 121.432 222.132 121.298 222.471 121.298H255.284C256.933 121.275 256.95 123.881 255.284 123.857Z" fill="#E4E4E4"/>
<path d="M259.144 152.002H218.612C218.329 152.002 218.059 151.89 217.859 151.69C217.659 151.49 217.547 151.219 217.546 150.936V134.471C217.547 134.188 217.659 133.917 217.859 133.717C218.059 133.517 218.329 133.404 218.612 133.404H259.144C259.426 133.404 259.697 133.517 259.897 133.717C260.097 133.917 260.209 134.188 260.209 134.471V150.936C260.209 151.219 260.097 151.49 259.897 151.69C259.697 151.89 259.426 152.002 259.144 152.002Z" fill="#A84AC9"/>
<path d="M255.284 159.901H222.471C222.132 159.901 221.807 159.766 221.567 159.526C221.327 159.286 221.193 158.96 221.193 158.621C221.193 158.282 221.327 157.956 221.567 157.716C221.807 157.476 222.132 157.341 222.471 157.341H255.284C256.933 157.318 256.95 159.924 255.284 159.901Z" fill="#E4E4E4"/>
<path d="M255.285 165.767H222.471C222.132 165.767 221.808 165.632 221.569 165.392C221.329 165.152 221.195 164.826 221.195 164.487C221.195 164.148 221.329 163.823 221.569 163.583C221.808 163.343 222.132 163.208 222.471 163.207H255.285C256.933 163.184 256.95 165.79 255.285 165.767Z" fill="#E4E4E4"/>
<path d="M255.284 171.634H222.471C222.132 171.634 221.807 171.499 221.567 171.259C221.327 171.019 221.193 170.693 221.193 170.354C221.193 170.014 221.327 169.689 221.567 169.449C221.807 169.209 222.132 169.074 222.471 169.074H255.284C256.933 169.051 256.95 171.657 255.284 171.634Z" fill="#E4E4E4"/>
<path d="M79.0542 180.749L78.9194 124.892L79.428 124.89L79.4035 114.617L78.8948 114.618L78.8532 97.4682C78.8517 96.8277 78.7241 96.1937 78.4779 95.6026C78.2316 95.0114 77.8715 94.4745 77.418 94.0227C76.9645 93.5709 76.4266 93.2129 75.8349 92.9692C75.2432 92.7255 74.6094 92.6009 73.9696 92.6024L37.7141 92.6901C37.0743 92.6916 36.4411 92.8193 35.8506 93.0658C35.2601 93.3123 34.7238 93.6729 34.2725 94.1269C33.8212 94.5809 33.4636 95.1195 33.2202 95.7118C32.9767 96.3042 32.8522 96.9387 32.8537 97.5793L32.8826 109.537L32.0725 109.557L32.2514 116.74L32.8999 116.724L32.9038 118.309L32.2136 118.326L32.3926 125.509L32.9211 125.496L33.0548 180.86C33.0551 181.501 33.1818 182.136 33.4277 182.727C33.6735 183.319 34.0336 183.856 34.4874 184.308C34.9411 184.761 35.4795 185.118 36.0717 185.362C36.664 185.605 37.2983 185.729 37.9385 185.726L74.1938 185.639C75.4855 185.634 76.7226 185.117 77.6338 184.2C78.545 183.283 79.0558 182.042 79.0542 180.749Z" fill="#3F3D56"/>
<path d="M36.8298 183.491C36.3776 183.328 35.9864 183.03 35.7094 182.637C35.4324 182.244 35.2829 181.775 35.2814 181.294L35.0784 97.1345C35.0769 96.5146 35.3215 95.9196 35.7582 95.4803C36.195 95.0409 36.7881 94.7932 37.4073 94.7917L45.1213 94.773L45.0257 95.0089C44.86 95.4184 44.7975 95.8623 44.8436 96.3017C44.8897 96.7411 45.043 97.1624 45.29 97.5285C45.537 97.8945 45.8702 98.1942 46.2601 98.401C46.6501 98.6078 47.0848 98.7154 47.5261 98.7144L64.6458 98.673C65.072 98.6358 65.4834 98.4987 65.8468 98.2728C66.2102 98.0469 66.5153 97.7385 66.7376 97.3726C66.9567 97.013 67.0877 96.6066 67.12 96.1866C67.1523 95.7667 67.085 95.345 66.9235 94.9561L66.8268 94.7206L74.795 94.7012C75.4139 94.7005 76.0079 94.9456 76.4466 95.3827C76.8853 95.8199 77.1329 96.4133 77.1352 97.0329L77.3291 177.329C77.3311 178.973 76.6815 180.551 75.523 181.716C74.3645 182.881 72.7916 183.539 71.1493 183.545L37.6216 183.626C37.3518 183.627 37.0839 183.581 36.8298 183.491Z" fill="white"/>
<path d="M50.0373 96.7679C50.3305 96.7679 50.5681 96.53 50.5681 96.2365C50.5681 95.943 50.3305 95.7051 50.0373 95.7051C49.7442 95.7051 49.5066 95.943 49.5066 96.2365C49.5066 96.53 49.7442 96.7679 50.0373 96.7679Z" fill="white"/>
<path d="M70.5539 122.633H43.0092C42.8172 122.633 42.6332 122.556 42.4975 122.42C42.3617 122.284 42.2854 122.1 42.2852 121.908V110.719C42.2854 110.526 42.3617 110.342 42.4975 110.206C42.6332 110.07 42.8172 109.994 43.0092 109.994H70.5539C70.7458 109.994 70.9299 110.07 71.0656 110.206C71.2013 110.342 71.2777 110.526 71.2779 110.719V121.908C71.2777 122.1 71.2013 122.284 71.0656 122.42C70.9299 122.556 70.7458 122.633 70.5539 122.633Z" fill="#A84AC9"/>
<path d="M67.9312 128H45.632C45.5178 128.001 45.4046 127.978 45.299 127.935C45.1934 127.891 45.0974 127.827 45.0165 127.746C44.9357 127.665 44.8715 127.569 44.8278 127.464C44.784 127.358 44.7615 127.245 44.7615 127.131C44.7615 127.016 44.784 126.903 44.8278 126.797C44.8715 126.692 44.9357 126.596 45.0165 126.515C45.0974 126.434 45.1934 126.37 45.299 126.326C45.4046 126.283 45.5178 126.26 45.632 126.261H67.9312C69.0516 126.245 69.0628 128.016 67.9312 128Z" fill="#E4E4E4"/>
<path d="M67.9312 131.987H45.632C45.4016 131.987 45.1806 131.895 45.0176 131.732C44.8547 131.569 44.7632 131.348 44.7632 131.117C44.7632 130.886 44.8547 130.665 45.0176 130.502C45.1806 130.339 45.4016 130.247 45.632 130.247H67.9312C69.0516 130.232 69.0628 132.003 67.9312 131.987Z" fill="#E4E4E4"/>
<path d="M67.9312 135.974H45.632C45.5178 135.974 45.4046 135.951 45.299 135.908C45.1934 135.864 45.0974 135.8 45.0165 135.719C44.9357 135.639 44.8715 135.543 44.8278 135.437C44.784 135.331 44.7615 135.218 44.7615 135.104C44.7615 134.989 44.784 134.876 44.8278 134.77C44.8715 134.665 44.9357 134.569 45.0165 134.488C45.0974 134.407 45.1934 134.343 45.299 134.3C45.4046 134.256 45.5178 134.234 45.632 134.234H67.9312C69.0516 134.218 69.0628 135.989 67.9312 135.974Z" fill="#E4E4E4"/>
<path d="M70.5539 156.163H43.0092C42.8172 156.163 42.6332 156.087 42.4975 155.951C42.3617 155.815 42.2854 155.631 42.2852 155.439V144.249C42.2854 144.057 42.3617 143.873 42.4975 143.737C42.6332 143.601 42.8172 143.525 43.0092 143.524H70.5539C70.7458 143.525 70.9299 143.601 71.0656 143.737C71.2013 143.873 71.2777 144.057 71.2779 144.249V155.439C71.2777 155.631 71.2013 155.815 71.0656 155.951C70.9299 156.087 70.7458 156.163 70.5539 156.163Z" fill="#A84AC9"/>
<path d="M67.9312 161.531H45.632C45.5178 161.531 45.4046 161.509 45.299 161.465C45.1934 161.422 45.0974 161.358 45.0165 161.277C44.9357 161.196 44.8715 161.1 44.8278 160.994C44.784 160.889 44.7615 160.776 44.7615 160.661C44.7615 160.547 44.784 160.434 44.8278 160.328C44.8715 160.222 44.9357 160.126 45.0165 160.046C45.0974 159.965 45.1934 159.901 45.299 159.857C45.4046 159.814 45.5178 159.791 45.632 159.791H67.9312C69.0516 159.776 69.0628 161.547 67.9312 161.531Z" fill="#E4E4E4"/>
<path d="M67.9312 165.518H45.632C45.4016 165.518 45.1806 165.426 45.0176 165.263C44.8547 165.1 44.7632 164.879 44.7632 164.648C44.7632 164.417 44.8547 164.196 45.0176 164.033C45.1806 163.87 45.4016 163.778 45.632 163.778H67.9312C69.0516 163.762 69.0628 165.533 67.9312 165.518Z" fill="#E4E4E4"/>
<path d="M67.9312 169.504H45.632C45.5178 169.504 45.4046 169.482 45.299 169.438C45.1934 169.395 45.0974 169.331 45.0165 169.25C44.9357 169.169 44.8715 169.073 44.8278 168.968C44.784 168.862 44.7615 168.749 44.7615 168.634C44.7615 168.52 44.784 168.407 44.8278 168.301C44.8715 168.195 44.9357 168.1 45.0165 168.019C45.0974 167.938 45.1934 167.874 45.299 167.83C45.4046 167.787 45.5178 167.764 45.632 167.765H67.9312C69.0516 167.749 69.0628 169.52 67.9312 169.504Z" fill="#E4E4E4"/>
<path d="M8.97993 182.669L11.973 182.669L13.3968 171.112H8.97925L8.97993 182.669Z" fill="#A0616A"/>
<path d="M8.21655 181.691L9.05899 181.691L12.348 180.352L14.1108 181.691C15.107 181.691 16.0626 182.087 16.7671 182.792C17.4715 183.498 17.8673 184.454 17.8673 185.451V185.574L8.21672 185.574L8.21655 181.691Z" fill="#2F2E41"/>
<path d="M20.5786 180.781L23.4979 181.441L27.4298 170.481L23.1209 169.507L20.5786 180.781Z" fill="#A0616A"/>
<path d="M20.049 179.658L20.8707 179.844L24.3736 179.263L25.7985 180.958C26.7702 181.178 27.6152 181.775 28.1472 182.618C28.6791 183.462 28.8547 184.482 28.6354 185.455L28.6085 185.574L19.1948 183.446L20.049 179.658Z" fill="#2F2E41"/>
<path d="M5.18931 112.012C3.78606 116.249 3.93442 120.848 5.52661 125.784L6.20724 153.577C6.20724 153.577 5.19315 171.802 8.46542 178.216H13.2111L15.5608 151.912L15.8558 134.257L26.0301 149.152L19.5498 177.786L25.3907 178.308L35.9065 147.234L22.932 117.087L5.18931 112.012Z" fill="#2F2E41"/>
<path d="M23.7782 117.977L6.52176 115.214C6.06918 115.069 5.65332 114.827 5.30274 114.506C4.95216 114.185 4.67516 113.792 4.49075 113.353C4.30634 112.915 4.2189 112.441 4.23442 111.966C4.24994 111.49 4.36807 111.024 4.58067 110.598L5.36324 109.031L5.05926 92.5666C5.02262 90.4249 5.54999 88.3114 6.58831 86.4386C7.62664 84.5658 9.1393 82.9998 10.9741 81.8982L12.6569 80.8908L13.5074 78.7286L21.3493 78.9201L21.3721 81.7559L24.1805 86.2393L24.1804 86.2578L24.0042 110.661L23.2302 113.179L24.4005 116.108L23.7782 117.977Z" fill="#3F3D56"/>
<path d="M18.1464 76.04C22.0816 76.04 25.2716 72.8463 25.2716 68.9066C25.2716 64.9669 22.0816 61.7732 18.1464 61.7732C14.2113 61.7732 11.0212 64.9669 11.0212 68.9066C11.0212 72.8463 14.2113 76.04 18.1464 76.04Z" fill="#A0616A"/>
<path d="M10.7271 70.4617C10.5145 69.5653 10.6121 68.304 10.7322 67.4015C10.886 66.2115 11.2879 65.0671 11.9117 64.0424C12.5355 63.0178 13.3675 62.1358 14.3536 61.4537C14.7316 61.1662 15.1809 60.9874 15.653 60.9367C15.8889 60.9168 16.1251 60.9722 16.3277 61.0948C16.5303 61.2175 16.6889 61.4013 16.7808 61.6197C16.8997 61.3228 17.078 61.0534 17.3049 60.8281C17.5318 60.6029 17.8024 60.4266 18.0999 60.3101C18.6977 60.0808 19.3406 59.9941 19.9777 60.0568C21.2125 60.1587 22.3968 60.5934 23.4047 61.3148C24.4127 62.0361 25.2068 63.0172 25.7028 64.154C25.8931 64.6066 26.4247 62.9347 26.6658 63.3624C26.8874 63.8069 27.274 64.147 27.7428 64.3098C28.2153 64.4418 28.4072 66.3907 28.5931 65.9362C28.7374 66.2721 28.7944 66.639 28.7589 67.0029C28.7234 67.3667 28.5964 67.7157 28.3899 68.0172C28.1834 68.3187 27.9041 68.563 27.5779 68.7273C27.2517 68.8917 26.8892 68.9707 26.5243 68.957C26.0473 68.8952 25.5745 68.8046 25.1084 68.6857C24.2527 68.5777 23.387 68.7871 22.6749 69.2745C21.9629 69.7618 21.4536 70.4932 21.2434 71.3307C21.1134 70.8437 20.9056 70.3809 20.6281 69.9603C20.4873 69.751 20.2986 69.5785 20.0777 69.457C19.8568 69.3355 19.6102 69.2685 19.3582 69.2617C19.1174 69.2894 18.8848 69.366 18.6746 69.487C18.4645 69.6079 18.2812 69.7706 18.1361 69.965C17.8225 70.3337 17.5869 70.764 17.2709 71.1307C16.3437 72.2069 15.0896 74.7165 13.7682 74.5334C12.7255 74.389 11.0172 71.6855 10.7271 70.4617Z" fill="#2F2E41"/>
<path d="M44.7084 112.77C44.4052 112.902 44.0767 112.966 43.7462 112.957C43.4157 112.948 43.0912 112.867 42.7955 112.719C42.4998 112.571 42.2401 112.359 42.0347 112.1C41.8294 111.841 41.6833 111.539 41.6069 111.217L33.6106 110.408L36.2487 107.167L43.4376 108.432C43.9865 108.339 44.5503 108.451 45.0222 108.747C45.4941 109.042 45.8412 109.501 45.9979 110.036C46.1545 110.571 46.1098 111.144 45.8721 111.648C45.6345 112.152 45.2204 112.552 44.7084 112.77Z" fill="#A0616A"/>
<path d="M39.7902 111.484L21.1294 109.763L21.1038 109.734L7.48463 94.1104C6.58834 92.7357 6.25088 91.0699 6.54134 89.4542C6.83179 87.8385 7.72819 86.3951 9.047 85.4194C9.7767 84.881 10.612 84.5034 11.498 84.3115C12.384 84.1195 13.3005 84.1176 14.1873 84.3059C15.0741 84.4941 15.911 84.8683 16.6429 85.4037C17.3748 85.9391 17.9852 86.6236 18.4338 87.4122L26.8221 102.159L39.9957 107.458L39.7902 111.484Z" fill="#3F3D56"/>
<path d="M328.593 186H0.406965C0.299246 186 0.196046 185.957 0.119987 185.88C0.043929 185.804 0.0012207 185.7 0.0012207 185.593C0.0012207 185.485 0.043929 185.381 0.119987 185.305C0.196046 185.229 0.299246 185.186 0.406965 185.185H328.593C328.701 185.185 328.805 185.228 328.881 185.305C328.957 185.381 329 185.485 329 185.593C329 185.701 328.957 185.804 328.881 185.881C328.805 185.957 328.701 186 328.593 186Z" fill="#CCCCCC"/>
</svg>
