<svg width="24" height="24" viewBox="0 0 24 24" fill="none" xmlns="http://www.w3.org/2000/svg">
<path d="M19.4354 4.065H4.56543C3.90239 4.065 3.2665 4.32839 2.79766 4.79724C2.32882 5.26608 2.06543 5.90196 2.06543 6.565V17.435C2.06543 18.098 2.32882 18.7339 2.79766 19.2028C3.2665 19.6716 3.90239 19.935 4.56543 19.935H19.4354C20.0985 19.935 20.7344 19.6716 21.2032 19.2028C21.672 18.7339 21.9354 18.098 21.9354 17.435V6.565C21.9354 5.90196 21.672 5.26608 21.2032 4.79724C20.7344 4.32839 20.0985 4.065 19.4354 4.065ZM4.56543 5.065H19.4354C19.8139 5.06391 20.1787 5.20701 20.4554 5.46521C20.7322 5.72341 20.9003 6.07733 20.9254 6.455C18.4554 7.775 15.9754 9.085 13.4954 10.405C13.1599 10.6153 12.8049 10.7927 12.4354 10.935C12.1453 10.9923 11.8464 10.9871 11.5584 10.9198C11.2705 10.8526 11.0002 10.7248 10.7654 10.545C9.34543 9.795 7.92543 9.035 6.51543 8.285C5.37543 7.685 4.21543 7.075 3.07543 6.465C3.09862 6.08572 3.26575 5.7296 3.54268 5.4694C3.81961 5.2092 4.18544 5.06455 4.56543 5.065ZM20.9354 17.435C20.9354 17.8328 20.7774 18.2144 20.4961 18.4957C20.2148 18.777 19.8333 18.935 19.4354 18.935H4.56543C4.1676 18.935 3.78607 18.777 3.50477 18.4957C3.22346 18.2144 3.06543 17.8328 3.06543 17.435V7.6C5.42543 8.84 7.77543 10.1 10.1354 11.35C10.5571 11.6085 11.011 11.8103 11.4854 11.95C12.1798 12.0629 12.8915 11.917 13.4854 11.54C14.9354 10.78 16.3754 10.01 17.8254 9.25C18.8654 8.69 19.8954 8.15 20.9354 7.6V17.435Z" fill="black"/>
</svg>
