<svg width="700" height="677" viewBox="0 0 700 677" fill="none" xmlns="http://www.w3.org/2000/svg">
<rect width="700" height="677" rx="338.5" fill="white"/>
<path fill-rule="evenodd" clip-rule="evenodd" d="M301.164 123.098C293.374 127.555 284.229 132.798 280.841 134.749C277.452 136.7 264.158 144.333 251.298 151.713C234.671 161.255 228.461 165.461 229.807 166.273C234.424 169.057 286.617 199.181 345.001 232.758C362.805 242.997 383.139 254.824 390.187 259.038L403.001 266.703L403.354 316.086C403.55 343.246 403.91 365.468 404.156 365.468C404.403 365.468 418.508 357.48 435.501 347.716C452.493 337.953 470.341 327.753 475.163 325.053C479.985 322.351 485.297 319.273 486.965 318.212L490 316.284V265.52C490 220.346 489.764 214.668 487.854 213.934C485.968 213.212 453.776 194.747 385.466 155.207C335.774 126.444 320.543 117.675 318.024 116.381C315.805 115.24 312.814 116.432 301.164 123.098ZM228.327 317.372V367.695L250.246 380.242C262.301 387.142 281.108 397.907 292.039 404.164C302.97 410.422 312.219 416.036 312.594 416.642C313.676 418.392 315.305 417.366 270.141 443.377C263.093 447.435 251.01 454.31 243.291 458.656C235.572 463 229.022 466.788 228.737 467.072C227.78 468.03 227.742 568.376 228.701 567.999C229.221 567.793 230.716 567.241 232.023 566.772C233.329 566.304 247.143 558.535 262.722 549.508C278.301 540.481 296.663 529.885 303.524 525.962L316.001 518.827V468.968C316.001 422.037 316.14 419.16 318.362 420.009C320.9 420.979 368.608 446.429 404.156 467.072L403.354 518.827H422.906C426.952 518.827 439.356 518.827 455.542 518.827C472.403 518.827 479.557 518.827 488.601 518.827C488.601 510.064 488.628 418.448 488.601 417.589C488.573 416.729 479.621 410.99 468.706 404.834C457.791 398.68 440.97 389.063 431.326 383.465C421.682 377.867 411.363 371.908 408.396 370.223C397.461 364.012 358.122 341.346 346.35 334.474C339.673 330.577 317.822 317.965 297.792 306.45C277.762 294.934 259.109 284.088 256.342 282.347C253.575 280.607 251.046 279.183 250.722 279.183C250.397 279.183 245.511 276.453 239.865 273.116C234.219 269.779 229.312 267.049 228.963 267.049C228.613 267.049 228.327 289.695 228.327 317.372Z" fill="black"/>
</svg>
