<svg width="1440" height="1024" viewBox="0 0 1440 1024" fill="none" xmlns="http://www.w3.org/2000/svg">
<g clip-path="url(#clip0_68_2401)">
<path d="M1305.01 152.998C1305.01 152.998 1297.38 162.545 1278.39 146.014" stroke="#535461" stroke-width="2" stroke-miterlimit="10"/>
<path d="M1265.22 181.276C1265.22 181.276 1285.89 171.418 1283.03 161.551" stroke="#535461" stroke-width="2" stroke-miterlimit="10"/>
<path opacity="0.1" d="M1082.18 377.347C1103.74 389.047 1109.57 417.268 1109.73 441.817C1109.79 450.037 1109.63 458.829 1114.1 465.728C1119.57 474.168 1130.53 477.332 1140.57 477.145C1158.84 476.86 1176.71 467.291 1187.08 452.24C1196.05 439.229 1199.45 422.923 1208.77 410.171C1224.4 388.834 1253.04 381.917 1279.42 380.512C1298.09 379.52 1319.04 379.676 1332.31 366.501C1341.66 357.25 1344.78 343.165 1344.1 329.987C1343.78 323.623 1342.7 317.073 1344.69 311.009C1345.89 307.424 1348.12 304.277 1350.56 301.389C1372.8 274.994 1411.83 267.025 1432.58 239.473C1446.58 220.854 1449.84 195.767 1446.12 172.699C1442.39 149.631 1432.32 128.114 1421.71 107.299C1414.16 92.5033 1405.42 77.01 1390.65 69.466C1375.03 61.4897 1355.46 64.4883 1340.6 73.7332C1325.74 82.9782 1315 97.6732 1306.64 113.062C1296.18 132.303 1288.18 154.084 1270.92 167.528C1259.17 176.681 1244.44 180.847 1230.5 186.121C1207.21 194.933 1185.42 207.223 1163.87 219.689C1143.23 231.63 1122.54 243.896 1104.93 259.958C1092.46 271.331 1084.67 285.534 1073.6 297.896C1066.38 305.956 1057.04 311.365 1050.8 320.349C1043.11 331.42 1038.38 346.925 1046.83 359.003C1054.84 370.519 1070.73 371.141 1082.18 377.347Z" fill="#B1B1B1"/>
<path opacity="0.1" d="M1259.11 300.64C1362.14 255.978 1442.17 211.718 1437.86 201.784C1433.55 191.849 1346.54 220.001 1243.51 264.662C1140.48 309.324 1060.45 353.584 1064.76 363.519C1069.07 373.453 1156.08 345.302 1259.11 300.64Z" fill="#B1B1B1"/>
<path d="M1199.75 298.339L1199.21 301.105C1199.21 301.105 1201.73 302.547 1202 302.748C1202.27 302.949 1206.59 300.603 1206.59 300.603L1206.29 298.832L1204.82 297.254L1199.75 298.339Z" fill="#E6E6F0"/>
<path d="M1150.1 318.436L1147.41 320.233L1150.83 323.031L1153.28 323.231L1155.72 323.757L1155.61 322.063L1153.07 319.838L1150.1 318.436Z" fill="#FDC2CC"/>
<path d="M1182.88 263.055C1182.88 263.055 1200.03 260.05 1204.75 262.936C1204.75 262.936 1208.39 264.053 1207.52 269.334C1206.66 274.615 1206.99 285.562 1206.99 285.562C1206.99 285.562 1208.26 295.778 1207.49 296.903C1206.72 298.028 1200.84 301.211 1199.22 298.928C1199.22 298.928 1200.3 291.968 1199.2 289.432C1198.1 286.897 1198.61 272.428 1198.61 272.428C1198.61 272.428 1184.96 276.601 1181.25 279.319C1177.54 282.037 1176.8 263.947 1182.88 263.055Z" fill="#333333"/>
<path d="M1181.25 268.036C1181.56 268.825 1181.85 269.732 1182.14 270.72C1184.23 277.876 1185.84 289.17 1185.84 289.17C1185.84 289.17 1185.65 296.378 1186.53 300.59C1187.4 304.803 1182.37 308.113 1182.37 308.113C1182.37 308.113 1168.26 316.312 1164.91 316.953C1161.56 317.593 1157.92 322.358 1155.38 322.983C1152.83 323.609 1148.92 318.654 1148.92 318.654C1153.05 316.893 1156.75 314.263 1159.78 310.942C1164.67 305.497 1174.02 303.027 1174.02 303.027C1174.59 302.553 1175.06 301.966 1175.39 301.304C1175.73 300.641 1175.93 299.915 1175.97 299.172C1176.04 296.769 1170.78 284.639 1170.16 283.953C1166.14 279.455 1164.82 276.02 1164.47 273.837C1164.27 272.905 1164.3 271.938 1164.56 271.022L1181.25 268.036Z" fill="#333333"/>
<path opacity="0.1" d="M1181.25 268.036C1181.55 268.825 1181.85 269.732 1182.14 270.72C1180.85 271.404 1177.15 273.127 1173.63 272.609C1170.31 272.132 1166.27 273.235 1164.48 273.807C1164.28 272.876 1164.31 271.909 1164.57 270.992L1181.25 268.036Z" fill="black"/>
<path d="M1182.36 265.572C1182.5 267.592 1182.44 270.058 1182.44 270.058C1182.44 270.058 1177.82 272.853 1173.44 272.218C1169.06 271.583 1163.37 273.732 1163.37 273.732C1164.03 272.785 1163.91 270.83 1163.65 269.185C1163.5 268.256 1163.3 267.337 1163.04 266.43C1163.04 266.43 1180.82 262.683 1181.73 262.922C1182.08 263.022 1182.27 264.199 1182.36 265.572Z" fill="#E6E6F0"/>
<path d="M1187.11 196.77L1172.51 217.359L1171.05 219.403L1168.51 213.54L1169.59 212.291L1182.81 197.045C1182.81 197.045 1177.31 182.17 1180.42 183.518C1183.53 184.865 1187.11 196.77 1187.11 196.77Z" fill="#FDC2CC"/>
<path opacity="0.1" d="M1172.51 217.359L1171.05 219.403L1168.51 213.539L1169.59 212.291C1170.46 214.039 1171.43 215.732 1172.51 217.359Z" fill="black"/>
<path d="M1158.19 226.113L1168.82 211.692C1168.82 211.692 1172.55 219.577 1174.66 220.082C1174.66 220.082 1169.58 224.365 1168.93 229.058L1158.19 226.113Z" fill="#333333"/>
<path d="M1196.17 218.019C1196.17 218.019 1190.7 223.903 1186.69 226.929C1185.82 227.671 1184.82 228.249 1183.74 228.637C1180.45 229.426 1182.64 223.912 1182.64 223.912L1184.13 222.966L1192.17 217.881C1192.17 217.881 1187.32 204.149 1189.37 204.527C1191.43 204.906 1196.17 218.019 1196.17 218.019Z" fill="#FDC2CC"/>
<path d="M1162.42 218.398C1162.42 218.398 1158.56 225.138 1162.99 229.551C1167.43 233.964 1150.58 231.128 1150.58 231.128C1150.58 231.128 1152.06 222.889 1150.91 217.687C1149.75 212.485 1162.42 218.398 1162.42 218.398Z" fill="#FDC2CC"/>
<path opacity="0.1" d="M1182.36 265.572C1179.49 265.709 1176.65 266.224 1173.91 267.104C1169.88 268.331 1166.04 269.115 1163.65 269.183C1163.5 268.254 1163.3 267.335 1163.05 266.428C1163.05 266.428 1180.82 262.681 1181.74 262.92C1182.08 263.022 1182.27 264.199 1182.36 265.572Z" fill="black"/>
<path opacity="0.1" d="M1186.69 226.931C1185.81 227.673 1184.81 228.251 1183.73 228.639C1180.45 229.428 1182.63 223.914 1182.63 223.914L1184.13 222.968C1185.25 223.715 1186.64 225.038 1186.69 226.931Z" fill="black"/>
<path d="M1154.16 224.827C1154.16 224.827 1148.93 226.94 1147.99 229.879C1147.06 232.817 1149.95 238.394 1149.95 238.394C1149.95 238.394 1154.55 250.074 1160.25 255.255C1160.44 255.421 1160.55 255.654 1160.57 255.903C1160.57 255.995 1160.55 255.947 1160.55 255.947C1160.55 255.947 1162.33 265.151 1161.11 267.423C1159.89 269.696 1166.48 268.898 1173.75 266.694C1181.02 264.49 1184.66 265.291 1184.66 265.291C1184.66 265.291 1185.28 263.459 1184.12 260.458C1182.95 257.458 1171.7 236.863 1171.7 236.863C1171.7 236.863 1179.81 235.563 1183.21 231.399C1183.21 231.399 1185.67 231.603 1186.25 227.864C1186.84 224.125 1182.29 222.301 1182.29 222.301C1182.29 222.301 1180.63 226.501 1170.86 226.146C1161.08 225.791 1156.62 223.605 1154.16 224.827Z" fill="#333333"/>
<path d="M1148.09 319.624L1146.5 320.314L1147.48 322.582L1150.63 325.492C1150.63 325.492 1152.93 324.969 1153.07 324.911C1153.2 324.852 1154.75 323.707 1154.75 323.707L1154.88 322.543C1154.88 322.543 1148.05 322.804 1148.09 319.624Z" fill="#E6E6F0"/>
<path d="M1198.94 300.113L1198.86 306.483L1211.05 306.924L1219.13 303.737C1219.13 303.737 1218.99 301.584 1215.92 301.803L1213.63 302.325C1213.63 302.325 1208.64 298.467 1207.35 296.205C1207.35 296.205 1204.92 297.89 1205.39 300.059C1205.37 300.017 1202.46 303.494 1198.94 300.113Z" fill="#565656"/>
<path d="M1146.66 319.608L1146.14 320.625L1143.84 325.106L1156.82 332.485C1156.82 332.485 1162.33 332.472 1163.6 329.548C1163.6 329.548 1164.33 327.667 1160.96 327.839C1160.96 327.839 1158.88 329.217 1157.89 326.953C1156.91 324.689 1156.41 322.059 1156.95 321.188C1156.95 321.188 1154.67 321.386 1154.37 322.149C1154.16 322.775 1154.02 323.421 1153.94 324.078C1153.94 324.078 1148.36 324.255 1146.66 319.608Z" fill="#B45181"/>
<path opacity="0.1" d="M1150.76 218.068C1150.92 218.802 1151.03 219.546 1151.09 220.295C1152.5 221.662 1154.39 222.424 1156.35 222.421C1158.31 222.417 1160.19 221.648 1161.59 220.276C1161.78 219.762 1162.01 219.262 1162.27 218.779C1162.27 218.779 1149.61 212.866 1150.76 218.068Z" fill="black"/>
<path opacity="0.1" d="M1157.74 236.19C1157.74 236.19 1164.23 239.87 1170.27 237.415Z" fill="black"/>
<g opacity="0.1">
<path d="M1184.67 230.873C1184.58 230.886 1184.49 230.89 1184.39 230.887C1184.29 231.009 1184.19 231.129 1184.08 231.245C1184.29 231.147 1184.49 231.022 1184.67 230.873Z" fill="black"/>
<path d="M1182.82 222.719C1182.59 222.596 1182.36 222.484 1182.13 222.386C1182.13 222.386 1181.63 223.64 1179.55 224.74C1180.79 224.344 1181.91 223.65 1182.82 222.719Z" fill="black"/>
<path d="M1172.88 236.351L1173.03 236.624C1174.92 236.19 1176.76 235.565 1178.53 234.759C1176.7 235.473 1174.81 236.006 1172.88 236.351Z" fill="black"/>
<path d="M1174.93 266.192C1167.68 268.384 1161.09 269.186 1162.29 266.922C1163.5 264.657 1161.73 255.445 1161.73 255.445C1161.73 255.445 1161.75 255.493 1161.75 255.401C1161.73 255.152 1161.62 254.919 1161.43 254.753C1155.72 249.555 1151.13 237.892 1151.13 237.892C1151.13 237.892 1148.25 232.332 1149.17 229.377C1149.87 227.188 1152.95 225.462 1154.48 224.721C1154.33 224.773 1154.18 224.836 1154.04 224.91C1154.04 224.91 1148.81 227.023 1147.87 229.962C1146.94 232.9 1149.83 238.477 1149.83 238.477C1149.83 238.477 1154.43 250.157 1160.13 255.338C1160.32 255.504 1160.43 255.737 1160.45 255.986C1160.45 256.078 1160.43 256.03 1160.43 256.03C1160.43 256.03 1162.22 265.202 1160.98 267.482C1159.74 269.762 1166.35 268.957 1173.62 266.753C1180.88 264.549 1184.52 265.349 1184.52 265.349C1184.59 265.122 1184.63 264.888 1184.65 264.652C1183.02 264.584 1179.78 264.713 1174.93 266.192Z" fill="black"/>
</g>
<path d="M1159.47 221.419C1163.28 219.766 1165.03 215.323 1163.37 211.494C1161.71 207.666 1157.27 205.903 1153.46 207.556C1149.64 209.209 1147.9 213.653 1149.56 217.481C1151.22 221.309 1155.65 223.073 1159.47 221.419Z" fill="#FDC2CC"/>
<path opacity="0.1" d="M1164.95 207.127C1165 208.811 1163.53 210.093 1162.19 211.114C1160.28 212.566 1158.2 214.081 1155.8 214.154C1155.47 214.119 1155.14 214.192 1154.86 214.361C1154.66 214.564 1154.53 214.83 1154.5 215.114C1153.64 219.315 1155.87 223.452 1156.98 227.602C1157.32 228.895 1157.55 230.281 1157.13 231.541C1156.3 233.981 1153.27 235.215 1152.62 237.709C1152.19 239.353 1152.92 241.06 1153.6 242.62C1154.33 244.287 1155.04 245.961 1155.73 247.644C1156.18 248.75 1156.62 249.907 1156.55 251.092C1156.42 253.102 1154.89 254.695 1153.45 256.077C1152.55 256.945 1151.62 257.832 1150.42 258.222C1149.22 258.612 1147.74 258.345 1147.09 257.253C1146.2 255.774 1147.34 253.982 1147.95 252.372C1148.95 249.804 1148.54 246.87 1147.51 244.311C1147.13 243.261 1146.53 242.302 1145.77 241.491C1144.93 240.673 1143.84 240.151 1142.98 239.359C1140.33 236.92 1140.47 232.707 1141.31 229.202C1142.15 225.696 1143.47 222.06 1142.47 218.597C1142.2 217.871 1141.99 217.123 1141.86 216.36C1141.75 215.273 1141.33 212.323 1141.87 211.373C1142.73 209.853 1143.95 208.576 1145.44 207.66C1146.59 206.95 1147.87 206.473 1148.98 205.709C1150.28 204.816 1151.31 203.565 1152.62 202.694C1155.46 200.814 1160.35 202.954 1162.93 205.198C1163.67 205.904 1164.91 206.096 1164.95 207.127Z" fill="black"/>
<path d="M1164.83 206.86C1164.88 208.544 1163.41 209.826 1162.08 210.847C1160.17 212.299 1158.09 213.814 1155.69 213.887C1155.36 213.852 1155.03 213.925 1154.74 214.094C1154.54 214.297 1154.42 214.563 1154.38 214.847C1153.53 219.048 1155.75 223.185 1156.86 227.335C1157.2 228.628 1157.44 230.014 1157.01 231.274C1156.18 233.714 1153.16 234.947 1152.5 237.442C1152.07 239.086 1152.8 240.793 1153.49 242.353C1154.21 244.019 1154.92 245.694 1155.61 247.377C1156.06 248.483 1156.5 249.639 1156.43 250.825C1156.31 252.835 1154.78 254.428 1153.33 255.81C1152.43 256.678 1151.5 257.565 1150.3 257.955C1149.1 258.345 1147.62 258.078 1146.97 256.986C1146.09 255.507 1147.22 253.715 1147.84 252.105C1148.83 249.537 1148.42 246.603 1147.39 244.043C1147.01 242.994 1146.42 242.034 1145.65 241.224C1144.81 240.406 1143.73 239.884 1142.87 239.092C1140.21 236.653 1140.36 232.44 1141.19 228.935C1142.03 225.429 1143.35 221.793 1142.35 218.33C1142.08 217.604 1141.88 216.855 1141.74 216.093C1141.63 215.006 1141.22 212.056 1141.75 211.106C1142.61 209.585 1143.84 208.308 1145.32 207.393C1146.47 206.682 1147.75 206.205 1148.87 205.441C1150.17 204.549 1151.2 203.297 1152.51 202.427C1155.35 200.547 1160.24 202.686 1162.81 204.931C1163.56 205.637 1164.8 205.829 1164.83 206.86Z" fill="#444444"/>
<path d="M1181.37 183.863L1296.16 134.101L1346.11 249.332L1231.32 299.094L1181.37 183.863Z" fill="#333333"/>
<path d="M1253.3 267.073L1259.77 257.927C1262.77 260.209 1265.42 262.094 1269.12 260.491C1272.67 258.953 1274.3 256.593 1271.95 251.18L1255.99 214.358L1266.77 209.682L1282.8 246.653C1287.66 257.867 1283.33 265.81 1273.77 269.954C1265.14 273.695 1258.19 271.377 1253.3 267.067M1290.94 249.373L1297.51 240.46C1301.46 243.25 1305.67 244.724 1310.99 242.419C1315.46 240.481 1317.34 237.004 1315.99 233.908C1314.38 230.195 1310.89 230.15 1305.02 230.117L1301.83 230.125C1292.6 230.175 1285.63 228.236 1281.8 219.417C1278.28 211.294 1281.76 202.435 1291.4 198.26C1298.25 195.287 1304.21 195.554 1310.48 200.275L1304.43 209.332C1301.14 206.805 1298.57 206.36 1295.49 207.696C1292.33 209.065 1291.19 211.945 1292.33 214.577C1293.74 217.826 1296.31 218.272 1301.81 218.273L1305.01 218.265C1315.87 218.235 1322.79 220.017 1326.72 229.068C1330.94 238.815 1325.63 247.46 1315.37 251.906C1305.34 256.255 1296.79 254.237 1290.95 249.354" fill="white"/>
<path d="M1424.19 291.453C1424.19 291.453 1419.85 293.711 1414.99 290.093C1414.03 289.357 1413 288.723 1411.91 288.2C1410.38 287.117 1409.18 285.627 1408.45 283.898C1407.06 280.263 1394.88 262.322 1394.88 262.322C1394.88 262.322 1392.11 254.678 1386.39 251.63C1382.61 249.624 1375.31 242.388 1370.74 237.648C1370.94 237.713 1371.15 237.729 1371.35 237.695L1371.05 237.247L1371.14 237.209L1367.43 231.645C1365.03 230.496 1362.81 229.035 1360.8 227.299L1361.02 227.139L1364 225.025C1364 225.025 1366.04 215.108 1364.75 211.221L1365.19 211.032L1365.81 210.765C1370.73 208.599 1375.77 206.72 1380.91 205.138C1380.9 205.116 1380.83 205.035 1380.72 204.9C1380.18 204.238 1379.69 203.542 1379.24 202.818L1379.55 202.686L1382.51 201.161C1382.51 201.161 1387.91 184.818 1383.11 184.321C1378.3 183.824 1379.46 197.512 1379.46 197.512L1378.25 198.315L1377.93 198.534C1377.94 198.466 1377.96 198.403 1377.97 198.338C1377.99 198.273 1360.49 205.002 1356.02 201.955C1356.02 201.955 1345.83 199.186 1343.77 195.3C1343.36 194.49 1342.73 193.811 1341.95 193.336C1341.17 192.861 1340.28 192.61 1339.37 192.609C1338.24 192.566 1337.12 192.821 1336.12 193.347L1332.68 195.13L1333.12 195.46L1333.02 195.503C1332.58 195.088 1332.16 194.642 1331.78 194.169L1331.85 194.137C1331.78 194.039 1331.71 193.939 1331.64 193.839C1332.62 193.11 1333.44 192.192 1334.05 191.14C1334.67 190.087 1335.06 188.921 1335.22 187.711C1335.37 186.5 1335.29 185.27 1334.96 184.093C1334.63 182.916 1334.07 181.815 1333.32 180.858C1333.68 180.752 1334.03 180.589 1334.35 180.375C1335.54 179.541 1335.88 177.81 1335.34 176.464C1335.3 176.377 1335.26 176.289 1335.23 176.206C1335.23 176.206 1335.21 176.171 1335.2 176.153C1334.9 175.49 1334.46 174.902 1333.9 174.433C1333.34 173.964 1332.69 173.625 1331.98 173.441C1331.02 173.156 1329.99 173.102 1329.08 172.718C1327.97 172.265 1327.1 171.396 1326.11 170.729C1324.45 169.631 1322.48 169.119 1320.5 169.273C1319.03 169.389 1317.44 170.026 1316.86 171.371C1316.56 172.068 1316.57 172.886 1316.18 173.535C1315.62 174.475 1314.43 174.78 1313.48 175.332C1312.64 175.863 1311.94 176.596 1311.45 177.464C1310.95 178.332 1310.68 179.31 1310.65 180.31C1310.61 181.564 1310.87 182.81 1311.41 183.945C1311.74 184.74 1312.18 185.487 1312.7 186.167C1313.23 186.846 1313.83 187.458 1314.37 188.13C1315.49 189.517 1316.31 191.133 1317.48 192.47C1318.32 193.478 1319.44 194.212 1320.69 194.579L1320.82 195.283C1320.73 195.325 1318.55 196.907 1318.47 201.275C1318.41 204.719 1315.24 209.619 1313.8 211.668C1313.54 212.05 1313.35 212.483 1313.25 212.94C1313.15 213.398 1313.14 213.871 1313.23 214.331C1313.41 215.259 1313.7 216.161 1314.1 217.018C1314.87 218.903 1316.38 221.323 1319.3 223.954C1325.93 229.925 1329.81 232.111 1329.81 232.111C1329.81 232.111 1330.99 234.311 1332.04 236.709C1332.82 238.5 1333.46 240.339 1333.47 241.397C1333.47 242.29 1334.19 244.262 1335.17 246.449C1337 250.661 1339.79 255.979 1339.79 255.979C1339.79 255.979 1341.07 255.694 1343.02 255.169L1352.87 274.783C1354.07 277.157 1354.33 279.894 1353.6 282.446C1353.23 283.783 1352.69 285.065 1352 286.263C1349.76 289.995 1353.43 317.522 1353.43 317.522C1353.43 317.522 1353.77 317.375 1354.36 317.198L1354.82 324.111C1354.82 324.111 1366.2 326.977 1370.62 322.93C1371.1 322.501 1371.66 322.162 1372.26 321.928C1373.29 321.484 1375.13 319.718 1373.44 319.175C1370.14 318.017 1366.91 316.659 1363.76 315.108C1363.97 315.118 1364.17 315.143 1364.37 315.185L1364.35 315.137L1364.44 315.153C1364.44 315.153 1364.34 314.912 1364.22 314.493L1364.14 314.499C1363.6 312.82 1362.32 308.523 1363.11 307.623C1364.07 306.466 1365.32 284.361 1365.32 284.361L1364.22 256.829C1364.22 256.829 1376.93 266.248 1384.05 265.736L1386.33 270.991C1386.33 270.991 1396.45 285.032 1398.43 286.199C1400.4 287.365 1402.13 294.729 1402.13 294.729C1402.49 294.904 1402.88 295.03 1403.28 295.103L1404.72 301.155C1404.72 301.155 1411.7 297.762 1425.37 296.26C1425.37 296.285 1429.13 292.261 1424.19 291.453ZM1360.59 222.646L1359.25 223.675L1358.98 223.878C1358.87 223.702 1358.8 223.602 1358.8 223.602C1358.52 223.909 1358.19 224.16 1357.82 224.344C1356.55 222.879 1355.48 221.253 1354.64 219.508C1353.21 217.601 1351.96 215.565 1350.91 213.427C1350.42 212.297 1350.18 211.23 1350.36 210.491L1350.88 210.313L1351.37 210.494L1351.41 210.505L1351.66 210.589L1351.92 210.674L1351.96 210.687L1352.24 210.78L1352.28 210.795L1352.57 210.882L1352.88 210.974L1352.95 210.995L1353.28 211.086L1353.6 211.175L1353.68 211.194L1354.03 211.28L1354.11 211.295L1354.44 211.374L1354.5 211.386L1354.88 211.467L1354.97 211.485L1355.36 211.562L1355.39 211.551L1355.77 211.62L1355.86 211.637L1356.27 211.705L1356.36 211.719L1356.73 211.774L1356.81 211.785L1357.23 211.838L1357.34 211.851L1357.78 211.895L1357.8 211.883L1358.23 211.918L1358.33 211.926L1358.78 211.951L1358.86 211.954L1359.27 211.964L1359.35 211.966L1359.81 211.966L1359.92 211.966L1360.38 211.956C1359.1 215.748 1360.59 222.646 1360.59 222.646Z" fill="url(#paint0_linear_68_2401)"/>
<path d="M1354.39 312.804L1355.01 322.073C1355.01 322.073 1365.48 324.712 1370.04 321.248C1370.72 320.722 1371.45 320.255 1372.21 319.851C1373.24 319.315 1374.72 317.751 1373.16 317.26C1368.17 315.65 1360.78 311.836 1360.78 311.836L1354.39 312.804Z" fill="#4F4D59"/>
<path d="M1401.74 291.381L1403.73 299.694C1403.73 299.694 1410.54 296.383 1423.88 294.916C1423.88 294.916 1427.55 290.983 1422.74 290.21C1422.74 290.21 1418.51 292.403 1413.75 288.904C1409 285.404 1407.62 286.705 1407.62 286.705L1401.74 291.381Z" fill="#4F4D59"/>
<path d="M1341.53 250.918L1353.03 273.857C1354.26 276.299 1354.5 279.121 1353.7 281.732C1353.35 282.926 1352.85 284.072 1352.22 285.146C1350.04 288.791 1353.62 315.662 1353.62 315.662C1353.62 315.662 1361.5 312.764 1364.28 313.381C1364.28 313.381 1362.09 307.136 1363.05 305.998C1364.01 304.86 1365.21 283.291 1365.21 283.291L1364.14 256.412C1364.14 256.412 1376.54 265.6 1383.5 265.111L1385.73 270.261C1385.73 270.261 1395.62 283.969 1397.55 285.109C1399.48 286.249 1401.15 293.429 1401.15 293.429C1401.15 293.429 1406.54 296.295 1412.48 288.157C1412.48 288.157 1408.67 286.392 1407.31 282.84C1405.96 279.289 1394.04 261.789 1394.04 261.789C1394.04 261.789 1391.33 254.33 1385.75 251.338C1380.17 248.346 1366.64 233.545 1366.64 233.545L1358.6 226.377L1341.53 250.918Z" fill="#333333"/>
<g opacity="0.1">
<path d="M1355.08 315.022C1355.08 315.022 1351.5 288.153 1353.69 284.506C1354.35 283.368 1354.86 282.152 1355.22 280.884C1355.96 278.332 1355.7 275.593 1354.49 273.221L1342.97 250.288L1359.25 226.877L1358.67 226.355L1341.62 250.88L1353.14 273.814C1354.34 276.186 1354.6 278.924 1353.87 281.477C1353.51 282.744 1352.99 283.961 1352.33 285.098C1350.15 288.737 1353.73 315.61 1353.73 315.61C1353.73 315.61 1361.61 312.712 1364.39 313.33C1364.39 313.33 1364.28 313.093 1364.18 312.688C1360.76 312.951 1355.08 315.022 1355.08 315.022Z" fill="black"/>
<path d="M1402.62 292.798C1402.62 292.798 1400.94 285.609 1399.01 284.478C1397.09 283.346 1387.2 269.63 1387.2 269.63L1384.96 264.472C1378.01 264.967 1365.6 255.772 1365.6 255.772L1365.67 257.374C1369.13 259.745 1378.09 265.463 1383.61 265.066L1385.85 270.216C1385.85 270.216 1395.73 283.924 1397.66 285.064C1399.59 286.204 1401.27 293.384 1401.27 293.384C1401.27 293.384 1403.87 294.782 1407.46 292.882C1404.59 293.855 1402.62 292.798 1402.62 292.798Z" fill="black"/>
</g>
<path d="M1382.01 202.064L1379.14 203.545L1377.62 204.327L1375.98 200.539L1377.87 199.278L1379.04 198.496C1379.04 198.496 1377.91 185.133 1382.6 185.619C1387.28 186.104 1382.01 202.064 1382.01 202.064Z" fill="#714B4F"/>
<path d="M1320.96 191.446C1320.96 191.446 1322.28 199.868 1323.71 204.819C1325.14 209.77 1338.14 199.649 1338.14 199.649C1338.14 199.649 1329.6 195.255 1331.19 190.246L1320.96 191.446Z" fill="#714B4F"/>
<path d="M1350.47 216.108L1352.02 218.855L1347.21 220.58L1340.76 218.517L1330.37 207.363L1325.32 203.969L1321.81 202.074L1321.2 198.177C1321.2 198.177 1321.77 198.361 1322.7 198.593C1325.76 199.348 1332.74 200.695 1336.24 197.972C1336.4 197.847 1336.56 197.712 1336.71 197.569L1346.99 205.164L1350.47 216.108Z" fill="#E6E6F0"/>
<path opacity="0.1" d="M1322.02 196.769C1322.02 196.769 1319.79 198.252 1319.71 202.625C1319.65 205.97 1316.6 210.737 1315.18 212.741C1314.91 213.125 1314.72 213.559 1314.62 214.018C1314.52 214.478 1314.52 214.952 1314.61 215.415C1314.96 217.308 1316.21 220.591 1320.33 224.304C1326.8 230.134 1330.59 232.268 1330.59 232.268C1330.59 232.268 1334.34 239.276 1334.36 241.787C1334.37 244.297 1340.33 255.567 1340.33 255.567C1340.33 255.567 1357.48 251.731 1361.45 246.411C1365.42 241.091 1359.61 229.757 1359.61 229.757C1359.61 229.757 1369.19 238.201 1371.13 237.719L1367.51 232.269C1367.51 232.269 1358.87 228.457 1355.02 220.412C1355.02 220.412 1350 213.775 1350.65 211.154C1350.65 211.154 1377.07 202.222 1377.79 199.75C1377.79 199.75 1360.71 206.252 1356.38 203.274C1356.38 203.274 1346.42 200.571 1344.41 196.765C1344.05 196.045 1343.51 195.43 1342.84 194.977C1342.18 194.524 1341.41 194.249 1340.6 194.178C1339.32 194.037 1338.03 194.283 1336.89 194.886L1333.59 196.599C1333.59 196.599 1344 204.496 1344.3 206.002C1344.59 207.507 1349.98 218.29 1349.98 218.29C1349.98 218.29 1336.81 206.55 1333.09 206.185C1329.37 205.82 1322.91 200.486 1322.91 200.486L1322.01 196.766" fill="black"/>
<path opacity="0.1" d="M1350.47 216.108L1352.02 218.855L1347.21 220.58L1340.76 218.517L1330.37 207.363L1325.32 203.969L1321.81 202.074L1321.2 198.177C1321.2 198.177 1321.77 198.361 1322.7 198.593L1323.01 199.879C1323.01 199.879 1329.47 205.206 1333.19 205.576C1336.91 205.945 1350.08 217.68 1350.08 217.68C1350.08 217.68 1344.69 206.884 1344.4 205.392C1344.2 204.379 1339.35 200.419 1336.24 197.972C1336.4 197.847 1336.56 197.712 1336.71 197.569L1346.99 205.164L1350.47 216.108Z" fill="black"/>
<path opacity="0.1" d="M1379.14 203.545L1377.62 204.327L1375.98 200.539L1377.87 199.278C1377.57 200.539 1378.32 202.209 1379.14 203.545Z" fill="black"/>
<path d="M1321.82 196.317C1321.82 196.317 1319.6 197.801 1319.52 202.174C1319.46 205.519 1316.4 210.286 1314.99 212.289C1314.72 212.673 1314.53 213.108 1314.43 213.567C1314.33 214.026 1314.32 214.501 1314.41 214.964C1314.77 216.857 1316.02 220.14 1320.13 223.853C1326.6 229.683 1330.39 231.817 1330.39 231.817C1330.39 231.817 1334.15 238.825 1334.16 241.336C1334.18 243.846 1340.14 255.116 1340.14 255.116C1340.14 255.116 1357.29 251.28 1361.26 245.96C1365.23 240.64 1359.42 229.306 1359.42 229.306C1359.42 229.306 1368.98 237.735 1370.93 237.272L1367.32 231.822C1367.32 231.822 1358.67 228.011 1354.83 219.966C1354.83 219.966 1349.8 213.328 1350.46 210.708C1350.46 210.708 1359.1 214.52 1365.67 211.488C1370.5 209.362 1375.44 207.519 1380.48 205.968C1380.48 205.968 1376.87 201.775 1377.59 199.303C1377.59 199.303 1360.52 205.805 1356.18 202.827C1356.18 202.827 1346.23 200.125 1344.22 196.319C1343.86 195.599 1343.32 194.983 1342.65 194.53C1341.98 194.078 1341.21 193.803 1340.41 193.731C1339.13 193.59 1337.84 193.837 1336.7 194.439L1333.4 196.152C1333.4 196.152 1343.81 204.05 1344.11 205.555C1344.4 207.061 1349.79 217.843 1349.79 217.843C1349.79 217.843 1336.61 206.095 1332.89 205.73C1329.17 205.365 1322.72 200.048 1322.72 200.048L1321.82 196.328" fill="#333333"/>
<path opacity="0.1" d="M1325.38 213.662C1325.38 213.662 1334.32 224.354 1337.09 224.958C1339.86 225.562 1356.03 227.723 1359.01 224.27C1359.01 224.27 1361.89 228.422 1361 230.064C1361 230.064 1346.7 235.611 1346.56 235.607C1346.56 235.607 1336.83 238.384 1333.35 234.497C1329.88 230.611 1324.72 223.675 1324.72 223.675L1325.38 213.662Z" fill="black"/>
<path d="M1350.71 219.145C1351 219.018 1351.09 218.577 1350.91 218.158C1350.73 217.74 1350.35 217.503 1350.05 217.63C1349.76 217.756 1349.67 218.198 1349.86 218.616C1350.04 219.034 1350.42 219.271 1350.71 219.145Z" fill="#6D6D6D"/>
<path d="M1354.51 223.791C1354.8 223.664 1354.89 223.223 1354.71 222.804C1354.53 222.386 1354.15 222.149 1353.86 222.276C1353.56 222.402 1353.48 222.844 1353.66 223.262C1353.84 223.68 1354.22 223.917 1354.51 223.791Z" fill="#6D6D6D"/>
<g opacity="0.1">
<path d="M1341.12 254.49C1341.12 254.49 1335.16 243.222 1335.15 240.71C1335.14 238.197 1331.38 231.191 1331.38 231.191C1331.38 231.191 1327.59 229.057 1321.12 223.227C1317 219.516 1315.76 216.231 1315.4 214.338C1315.31 213.875 1315.32 213.401 1315.42 212.941C1315.51 212.482 1315.7 212.048 1315.97 211.664C1317.38 209.647 1320.44 204.895 1320.51 201.548C1320.56 199.092 1321.28 197.545 1321.9 196.662L1321.81 196.304C1321.81 196.304 1319.59 197.788 1319.51 202.16C1319.45 205.506 1316.4 210.273 1314.98 212.276C1314.71 212.66 1314.52 213.095 1314.42 213.554C1314.32 214.013 1314.32 214.488 1314.4 214.95C1314.76 216.844 1316.01 220.127 1320.13 223.84C1326.6 229.67 1330.39 231.804 1330.39 231.804C1330.39 231.804 1334.14 238.812 1334.16 241.322C1334.17 243.833 1340.13 255.103 1340.13 255.103C1340.13 255.103 1352.38 252.361 1358.57 248.3C1352.17 252.039 1341.12 254.49 1341.12 254.49Z" fill="black"/>
<path d="M1344.1 205.548C1344.3 206.57 1346.88 211.968 1348.51 215.257C1349.88 216.434 1350.77 217.23 1350.77 217.23C1350.77 217.23 1345.38 206.434 1345.09 204.942C1344.81 203.503 1335.4 196.316 1334.46 195.608L1333.39 196.159C1333.39 196.159 1343.81 204.054 1344.1 205.548Z" fill="black"/>
<path d="M1366.66 210.878C1360.09 213.909 1351.45 210.097 1351.45 210.097C1351.38 210.42 1351.37 210.754 1351.42 211.08C1353.87 211.953 1360.42 213.906 1365.67 211.484C1370.5 209.358 1375.44 207.514 1380.48 205.964C1380.48 205.964 1380.41 205.876 1380.29 205.726C1375.65 207.188 1371.1 208.908 1366.66 210.878Z" fill="black"/>
<path d="M1360.4 228.704C1360.4 228.704 1360.87 229.623 1361.45 231.057C1364.38 233.503 1369.55 237.611 1370.92 237.271L1370.16 236.124C1366.77 234.308 1360.4 228.704 1360.4 228.704Z" fill="black"/>
</g>
<path d="M1363.97 225.341L1361.06 227.41L1358.76 229.041L1358.47 224.665L1359.32 224.018L1360.63 223.013C1360.63 223.013 1358.14 211.497 1362.7 210.422C1367.25 209.347 1363.97 225.341 1363.97 225.341Z" fill="#714B4F"/>
<path opacity="0.1" d="M1361.07 227.421L1358.77 229.052L1358.48 224.676L1359.33 224.029C1360.04 225.089 1360.62 226.227 1361.07 227.421Z" fill="black"/>
<path d="M1325.25 213.36C1325.25 213.36 1334.18 224.051 1336.95 224.656C1339.72 225.26 1355.9 227.421 1358.88 223.968C1358.88 223.968 1361.76 228.12 1360.87 229.762C1360.87 229.762 1346.57 235.308 1346.43 235.305C1346.43 235.305 1336.7 238.082 1333.22 234.195C1329.75 230.308 1324.59 223.373 1324.59 223.373L1325.25 213.36Z" fill="#333333"/>
<path opacity="0.1" d="M1321.25 191.706C1321.25 191.706 1321.46 193.025 1321.8 194.928C1323.32 196.154 1325.2 196.845 1327.16 196.892C1329.11 196.94 1331.02 196.342 1332.59 195.191C1331.56 193.793 1330.95 192.187 1331.48 190.51L1321.25 191.706Z" fill="black"/>
<path d="M1330.61 195.925C1335.11 193.974 1337.17 188.731 1335.21 184.213C1333.25 179.696 1328.02 177.615 1323.52 179.565C1319.02 181.516 1316.96 186.76 1318.91 191.277C1320.87 195.795 1326.11 197.876 1330.61 195.925Z" fill="#714B4F"/>
<path opacity="0.1" d="M1333.16 182.427C1333.82 182.337 1334.46 182.108 1335.03 181.755C1335.58 181.312 1335.97 180.7 1336.15 180.011C1336.32 179.322 1336.27 178.595 1335.99 177.939C1335.7 177.291 1335.26 176.717 1334.72 176.258C1334.18 175.8 1333.54 175.469 1332.85 175.29C1331.91 175.011 1330.91 174.961 1330 174.592C1328.92 174.149 1328.07 173.302 1327.09 172.655C1325.47 171.584 1323.54 171.084 1321.62 171.235C1320.18 171.337 1318.63 171.966 1318.07 173.293C1317.78 173.975 1317.78 174.77 1317.4 175.407C1316.85 176.322 1315.7 176.624 1314.77 177.16C1313.95 177.677 1313.27 178.388 1312.79 179.233C1312.3 180.077 1312.03 181.028 1312 182.003C1311.97 183.975 1312.64 185.897 1313.88 187.431C1314.39 188.094 1314.98 188.692 1315.5 189.332C1316.6 190.684 1317.39 192.262 1318.54 193.57C1319.68 194.877 1321.34 195.929 1323.06 195.723C1322.2 194.07 1321.8 192.217 1321.89 190.357C1321.87 189.968 1322 189.586 1322.24 189.288C1322.49 189.1 1322.77 188.976 1323.07 188.929C1325.11 188.383 1326.89 187.141 1328.11 185.416C1328.53 184.814 1328.91 183.214 1329.48 182.829C1330.21 182.349 1332.25 182.603 1333.16 182.427Z" fill="black"/>
<path d="M1333.03 182.125C1333.69 182.035 1334.33 181.806 1334.9 181.453C1335.45 181.01 1335.84 180.398 1336.02 179.709C1336.19 179.02 1336.14 178.293 1335.86 177.636C1335.57 176.989 1335.13 176.414 1334.59 175.956C1334.05 175.498 1333.41 175.167 1332.72 174.988C1331.78 174.709 1330.78 174.659 1329.87 174.29C1328.79 173.847 1327.94 173 1326.96 172.353C1325.34 171.282 1323.41 170.782 1321.48 170.932C1320.05 171.035 1318.5 171.664 1317.94 172.991C1317.65 173.673 1317.65 174.468 1317.27 175.105C1316.72 176.02 1315.57 176.322 1314.64 176.858C1313.82 177.374 1313.14 178.086 1312.65 178.931C1312.17 179.775 1311.9 180.726 1311.87 181.701C1311.84 183.673 1312.51 185.595 1313.75 187.129C1314.26 187.792 1314.85 188.389 1315.36 189.029C1316.47 190.382 1317.26 191.96 1318.4 193.267C1319.55 194.575 1321.2 195.627 1322.93 195.421C1322.07 193.767 1321.67 191.914 1321.77 190.056C1321.75 189.667 1321.88 189.285 1322.12 188.986C1322.37 188.799 1322.65 188.675 1322.95 188.627C1324.99 188.082 1326.77 186.839 1327.98 185.114C1328.41 184.512 1328.79 182.912 1329.36 182.528C1330.08 182.047 1332.12 182.301 1333.03 182.125Z" fill="#503F43"/>
<path d="M1402.62 119.893L1428.37 197.523L1402.1 218.795L1368.69 223.392L1329.65 151.521L1402.62 119.893Z" fill="#333333"/>
<path d="M1399.38 212.418L1420.62 195.235L1398.6 128.897L1368.78 141.821L1399.38 212.418Z" fill="#333333"/>
<path d="M1363.81 165.761L1376.73 160.16L1372.76 150.99L1349.86 160.918L1351.14 163.284L1364.34 187.577L1384.78 178.716L1380.81 169.546L1368.72 174.786L1363.81 165.761ZM1375.92 188.003L1366.76 191.974L1374.28 205.818L1395.23 202.946L1395.28 202.927L1391.13 193.359L1391.09 193.376L1379.72 195.027L1375.92 188.003Z" fill="#EBEBEB"/>
<path d="M1327.64 128.259L1332.28 126.247L1334.27 130.85L1338.52 129.01L1336.52 124.407L1341.16 122.396L1347.21 136.338L1342.57 138.35L1340.54 133.682L1336.3 135.522L1338.32 140.19L1333.68 142.202L1327.64 128.259ZM1349.27 124.374L1345.18 126.146L1343.18 121.522L1355.99 115.967L1358 120.591L1353.91 122.362L1357.95 131.681L1353.31 133.691L1349.27 124.372L1349.27 124.374ZM1358.03 115.083L1362.87 112.985L1367.98 116.593L1368.83 110.404L1373.67 108.305L1379.71 122.247L1375.09 124.251L1372.09 117.342L1371.05 123.683L1370.97 123.717L1365.62 120.146L1368.62 127.056L1364.07 129.026L1358.03 115.083ZM1375.98 107.304L1380.62 105.292L1384.66 114.624L1391.21 111.788L1393.2 116.394L1382.03 121.237L1375.99 107.299L1375.98 107.304Z" fill="black"/>
<path d="M1384.75 178.731L1395.99 173.856L1400.09 186.209L1391.1 193.383L1395.24 202.942L1411.71 189.614L1411.17 188.005L1402.85 162.934L1402.01 160.376L1380.78 169.579L1384.75 178.749L1384.75 178.731ZM1376.69 160.151L1376.7 160.173L1398.76 150.609L1398.05 148.467L1396.47 143.628L1395.62 141.072L1372.72 150.999L1376.69 160.147L1376.69 160.151Z" fill="white"/>
<path d="M1158.8 291.135C1156.87 289.003 1154.26 286.342 1152.97 286.039C1152.89 286.017 1152.81 286.005 1152.73 286.004L1152.6 286.057L1151.26 282.97L1149.13 284.332C1148.28 283.376 1147.5 282.353 1146.81 281.273C1147.13 281.399 1147.48 281.429 1147.81 281.357C1148.15 281.286 1148.45 281.117 1148.69 280.872C1148.62 280.828 1148.56 280.775 1148.5 280.725L1148.58 280.636C1147.95 280.153 1147.44 279.513 1147.12 278.778C1146.85 278.099 1146.67 277.387 1146.58 276.661C1146.37 275.06 1146.49 273.428 1146.26 271.833C1146.11 270.803 1145.81 269.8 1145.38 268.852C1144.69 267.23 1143.63 265.792 1142.29 264.654C1141.93 264.314 1141.49 264.069 1141.02 263.942C1140.62 263.902 1140.21 263.884 1139.81 263.887C1139.08 263.749 1138.37 263.471 1137.74 263.068C1135.25 261.782 1132.43 261.267 1129.65 261.585C1128.91 261.624 1128.19 261.87 1127.58 262.296C1126.23 263.401 1126.49 265.541 1125.68 267.085C1124.95 268.439 1123.48 269.196 1122.23 270.091C1120.92 270.946 1119.92 272.196 1119.36 273.661C1119.03 274.693 1119.1 275.81 1119.54 276.8C1119.7 277.281 1119.98 277.711 1120.36 278.051C1120.74 278.39 1121.19 278.627 1121.69 278.739C1122.24 278.836 1122.8 278.81 1123.34 278.663C1123.87 278.515 1124.37 278.251 1124.79 277.888C1124.98 279.374 1125.48 280.805 1126.25 282.092C1127.02 283.378 1128.04 284.492 1129.26 285.364C1130.47 286.235 1131.86 286.846 1133.32 287.157C1134.78 287.468 1136.29 287.473 1137.75 287.172L1138.23 287.537C1139.73 288.724 1141.07 290.096 1142.22 291.62C1140.63 293.74 1138.81 295.865 1137.46 296.574C1137.64 297.144 1137.78 297.728 1137.86 298.32C1138.11 299.79 1138.02 301.297 1137.6 302.725C1136.63 305.683 1135.12 325.534 1135.12 325.534C1135.12 325.534 1135.13 326.295 1135.17 327.592C1130.16 330.538 1121.94 335.221 1119.31 335.781L1105.93 330.855C1105.93 330.855 1103.9 334.521 1105.39 337.254L1102.98 336.364C1102.98 336.364 1096.97 347.151 1113.12 345.492L1135.83 338.642C1136.47 345.77 1137.7 353.858 1140 357.551L1140.18 357.473C1140.59 357.293 1140.99 357.082 1141.37 356.842L1141.64 357.559L1155.77 395.87C1155.77 395.87 1158.28 402.965 1166.01 403.286C1166.01 403.286 1183.82 422.946 1181.87 426.895C1181.87 426.895 1182.32 426.929 1183.05 426.934L1179.1 435.411C1179.1 435.411 1174.88 438.65 1172.17 439.542C1171.69 439.678 1171.27 439.988 1171 440.413C1170.73 440.838 1170.62 441.349 1170.7 441.848C1170.72 441.896 1170.74 441.944 1170.74 442.008L1170.77 442.069C1170.79 442.118 1170.81 442.17 1170.83 442.223C1170.86 442.275 1170.85 442.262 1170.86 442.28C1170.87 442.297 1170.9 442.367 1170.92 442.411L1170.94 442.468C1170.96 442.52 1170.98 442.569 1171.04 442.608L1171.06 442.665C1171.1 442.714 1171.14 442.76 1171.19 442.804L1171.21 442.857C1171.25 442.9 1171.3 442.941 1171.35 442.982L1171.37 443.017C1171.42 443.057 1171.47 443.096 1171.53 443.133L1171.58 443.164C1171.64 443.203 1171.71 443.24 1171.78 443.275L1171.83 443.304C1171.9 443.34 1171.98 443.37 1172.06 443.402L1172.09 443.391L1172.33 443.464L1172.38 443.478L1172.66 443.539L1172.73 443.551L1173.04 443.588L1173.08 443.571L1173.4 443.587L1173.44 443.57L1173.8 443.562L1173.88 443.56L1174.27 443.525L1174.33 443.5L1174.74 443.436L1174.77 443.422L1175.25 443.317L1175.33 443.281L1175.79 443.157L1175.88 443.121L1176.4 442.952C1177.4 442.605 1178.73 442.062 1180.25 441.4C1180.25 441.4 1180.26 441.439 1180.27 441.456C1180.28 441.474 1180.31 441.544 1180.33 441.588L1180.35 441.645C1180.37 441.697 1180.4 441.745 1180.45 441.785L1180.47 441.842C1180.51 441.891 1180.55 441.937 1180.6 441.981L1180.62 442.034C1180.66 442.077 1180.71 442.118 1180.76 442.159L1180.78 442.194C1180.83 442.233 1180.88 442.273 1180.94 442.31L1180.99 442.341C1181.05 442.38 1181.12 442.417 1181.19 442.452L1181.24 442.481C1181.32 442.517 1181.39 442.547 1181.47 442.579L1181.49 442.57L1181.73 442.643L1181.79 442.657L1182.07 442.717L1182.13 442.73L1182.44 442.768L1182.48 442.751L1182.8 442.767L1182.84 442.75L1183.21 442.743L1183.28 442.741L1183.68 442.705L1183.73 442.681L1184.15 442.616L1184.18 442.603L1184.65 442.497L1184.73 442.461L1185.2 442.338L1185.28 442.302L1185.8 442.133C1192.16 439.942 1211.19 430 1211.19 430L1211.16 429.943L1211.13 429.873C1210.93 428.868 1209.55 423.113 1204.49 420.611C1204.54 420.462 1204.59 420.311 1204.64 420.158C1204.64 420.158 1200.06 416.778 1200.88 414.732C1201.7 412.687 1182.71 391.823 1182.71 391.823C1182.71 391.823 1175.13 386.643 1174.23 377.435C1173.33 368.227 1166.68 360.67 1166.68 360.67C1166.68 360.67 1172.1 356.127 1168.88 348.402C1168.78 348.17 1168.68 347.929 1168.57 347.688C1168.71 347.651 1168.85 347.603 1168.98 347.544C1169.07 347.513 1169.15 347.475 1169.24 347.431C1169.24 347.431 1166.2 343.665 1166.28 339.963C1166.36 336.262 1170.68 337.777 1168.06 323.953C1166.16 313.95 1163.42 302.688 1162.06 297.22C1161.49 294.955 1160.37 292.864 1158.8 291.135ZM1116.37 341.259L1113.32 340.137C1114.17 340.125 1115.09 340.069 1116.1 339.975L1124.65 337.407C1121.16 339.309 1117.85 340.962 1116.38 341.272L1116.37 341.259Z" fill="url(#paint1_linear_68_2401)"/>
<path d="M1136.45 331.129C1136.45 331.129 1120.73 340.72 1116.93 341.532L1103.79 336.691C1103.79 336.691 1097.88 347.292 1113.76 345.679L1141.12 337.425L1136.45 331.129Z" fill="#FDC2CC"/>
<path opacity="0.05" d="M1136.45 331.129C1136.45 331.129 1120.73 340.72 1116.93 341.532L1103.79 336.691C1103.79 336.691 1097.88 347.292 1113.76 345.679L1141.12 337.425L1136.45 331.129Z" fill="black"/>
<path d="M1106.24 351.224L1065.69 356.836L1018.28 269.555L1106.87 231.153L1138.14 325.413L1106.24 351.224Z" fill="#333333"/>
<path d="M1054.59 302.613L1060.41 313.313L1085.23 302.554L1080.41 291.422L1054.59 302.613ZM1042.83 280.945L1048.66 291.639L1075.46 280.022L1070.63 268.89L1042.8 280.954L1042.83 280.945ZM1092.94 320.338L1092.89 320.359L1079.08 322.364L1074.44 313.826L1063.29 318.661L1072.42 335.469L1097.89 331.966L1097.94 331.943L1092.94 320.338Z" fill="#EBEBEB"/>
<path d="M1028.43 235.837L1041.86 230.015L1044.31 235.655L1036.49 239.044L1038.94 244.684L1046.75 241.295L1049.2 246.935L1035.77 252.757L1028.43 235.837ZM1044.57 228.841L1058 223.019L1060.13 227.923L1052.29 231.319L1052.72 232.3L1060.54 228.912L1065.43 240.192L1051.99 246.016L1049.76 240.866L1057.58 237.478L1057.15 236.497L1049.33 239.885L1044.55 228.85L1044.57 228.841ZM1060.71 221.845L1074.14 216.023L1076.27 220.927L1068.41 224.332L1068.84 225.313L1076.65 221.925L1081.54 233.205L1068.11 239.029L1065.88 233.879L1073.69 230.491L1073.27 229.51L1065.45 232.898L1060.67 221.863L1060.71 221.845Z" fill="black"/>
<path d="M1106.12 280.274L1098.36 256.872L1070.56 268.923L1075.38 280.054L1091.01 273.279L1094.94 285.101L1080.32 291.439L1085.14 302.57L1098.8 296.65L1103.76 311.668L1092.86 320.379L1097.89 331.962L1117.88 315.779L1117.23 313.824L1107.14 283.377L1106.11 280.269L1106.12 280.274Z" fill="white"/>
<path d="M1183.59 423.275L1178.58 434.037C1178.58 434.037 1174.44 437.222 1171.78 438.093C1169.12 438.965 1169.78 443.674 1176.03 441.521C1182.28 439.369 1200.97 429.603 1200.97 429.603C1200.97 429.603 1199.59 421.327 1192.19 419.546L1183.59 423.275Z" fill="#333333"/>
<path opacity="0.3" d="M1199.86 426.251C1200.21 427.108 1200.48 427.998 1200.66 428.908C1200.66 428.908 1181.97 438.675 1175.72 440.827C1172.72 441.865 1171.01 441.31 1170.34 440.362C1170.59 441.677 1172.33 442.8 1176.03 441.536C1182.28 439.384 1200.97 429.618 1200.97 429.618C1200.73 428.455 1200.36 427.324 1199.86 426.251Z" fill="white"/>
<path d="M1135.75 286.818C1135.75 286.818 1144 291.834 1144.27 297.546C1144.53 303.258 1151.81 288.176 1151.81 288.176C1151.81 288.176 1145.24 283.225 1144.07 275.411L1135.75 286.818Z" fill="#FDC2CC"/>
<path d="M1192.93 422.552L1187.94 433.311C1187.94 433.311 1183.79 436.496 1181.13 437.367C1178.48 438.239 1179.13 442.948 1185.38 440.795C1191.63 438.643 1210.32 428.877 1210.32 428.877C1210.32 428.877 1208.94 420.601 1201.54 418.82L1192.93 422.552Z" fill="#333333"/>
<path d="M1194.56 419.906C1194 421.933 1192.54 423.252 1190.79 424.115C1186.81 426.07 1181.31 425.65 1181.31 425.65C1183.22 421.774 1165.73 402.456 1165.73 402.456C1158.14 402.143 1155.67 395.172 1155.67 395.172L1141.77 357.552L1138.29 348.098L1143.08 341.308L1149.92 343.025L1156.41 344.663C1157.24 345.718 1157.98 346.849 1158.6 348.042C1162.89 356.374 1157 361.322 1157 361.322C1157 361.322 1163.54 368.747 1164.42 377.796C1165.3 386.845 1172.76 391.931 1172.76 391.931C1172.76 391.931 1191.65 412.58 1190.87 414.584C1190.08 416.588 1194.56 419.906 1194.56 419.906Z" fill="#333333"/>
<path d="M1203.9 419.181C1202.07 425.794 1190.65 424.926 1190.65 424.926C1190.76 424.671 1190.81 424.392 1190.78 424.115C1190.47 418.721 1173.36 399.7 1173.36 399.7C1165.77 399.387 1161.93 392.457 1161.93 392.457L1144.07 355.765L1141.76 351.015L1149.92 343.025L1152.42 340.571L1165.77 343.934C1166.9 345.343 1167.82 346.898 1168.52 348.557C1171.66 356.148 1166.36 360.611 1166.36 360.611C1166.36 360.611 1172.9 368.036 1173.78 377.085C1174.66 386.134 1182.12 391.193 1182.12 391.193C1182.12 391.193 1201.01 411.841 1200.23 413.846C1199.44 415.85 1203.9 419.181 1203.9 419.181Z" fill="#333333"/>
<path opacity="0.1" d="M1168.52 348.557C1166.39 349.14 1161.27 348.474 1158.6 348.061C1157.59 347.904 1156.93 347.788 1156.93 347.788C1156.93 347.788 1152.31 342.858 1148.65 349.713C1147.48 351.979 1145.93 354.031 1144.08 355.783C1143.37 356.445 1142.6 357.039 1141.78 357.557L1138.29 348.103L1143.08 341.312L1149.92 343.03L1152.43 340.575L1165.77 343.934C1166.9 345.343 1167.82 346.898 1168.52 348.557Z" fill="black"/>
<path d="M1161.69 298.31C1163.03 303.679 1165.72 314.771 1167.58 324.569C1170.15 338.15 1165.92 336.657 1165.84 340.295C1165.76 343.933 1168.74 347.629 1168.74 347.629C1166.52 348.869 1156.62 347.063 1156.62 347.063C1156.62 347.063 1152 342.134 1148.34 348.988C1144.69 355.842 1140.16 357.521 1140.16 357.521C1135.66 350.324 1135.36 326.052 1135.36 326.052C1135.36 326.052 1136.85 306.549 1137.81 303.664C1138.23 302.262 1138.31 300.782 1138.07 299.338C1137.99 298.757 1137.86 298.184 1137.68 297.624C1140.6 296.082 1145.82 287.717 1145.82 287.717L1151.23 284.264L1152.55 287.299C1152.63 287.3 1152.71 287.312 1152.79 287.334C1154.06 287.651 1156.64 290.237 1158.52 292.34C1160.05 294.04 1161.14 296.09 1161.69 298.31Z" fill="#E1A0A7"/>
<path d="M1144.02 332.009L1140.87 332.961L1116.67 340.263C1100.79 341.878 1106.69 331.275 1106.69 331.275L1119.84 336.116C1122.75 335.491 1132.73 329.672 1137.19 327.032C1138.53 326.236 1139.37 325.726 1139.37 325.726L1144.02 332.009Z" fill="#FDC2CC"/>
<path opacity="0.1" d="M1152.91 290.724C1152.91 290.724 1144.74 288.445 1142.53 308.253C1140.33 328.061 1137.14 326.395 1137.14 326.395C1137.14 326.395 1142.03 332.596 1141.71 334.395C1141.71 334.395 1147.78 331.206 1150.31 330.666C1152.84 330.127 1159.36 305.67 1159.36 305.67C1159.36 305.67 1162.38 292.166 1152.91 290.724Z" fill="black"/>
<path opacity="0.1" d="M1152.28 289.892C1152.28 289.892 1144.11 287.613 1141.92 307.413C1139.73 327.213 1136.52 325.555 1136.52 325.555C1136.52 325.555 1147.17 330.366 1149.69 329.826C1152.22 329.287 1158.75 304.83 1158.75 304.83C1158.75 304.83 1161.74 291.334 1152.28 289.892Z" fill="black"/>
<path opacity="0.1" d="M1140.87 332.977C1140.21 331.205 1138.25 328.448 1137.19 327.034C1138.52 326.238 1139.36 325.727 1139.36 325.727L1144.03 332.028L1140.87 332.977Z" fill="black"/>
<path d="M1152.71 290.256C1152.71 290.256 1144.54 287.976 1142.33 307.789C1140.13 327.601 1136.94 325.931 1136.94 325.931C1136.94 325.931 1141.83 332.132 1141.51 333.931C1141.51 333.931 1147.58 330.742 1150.11 330.202C1152.64 329.663 1159.16 305.206 1159.16 305.206C1159.16 305.206 1162.17 291.698 1152.71 290.256Z" fill="#E1A0A7"/>
<path opacity="0.1" d="M1144.52 275.78L1136.17 287.156C1136.94 287.64 1137.69 288.164 1138.41 288.725C1139.11 288.578 1139.79 288.36 1140.45 288.075C1143.43 286.784 1143.45 283.045 1144.33 280.149C1143.47 278.524 1144.82 277.887 1144.52 275.78Z" fill="black"/>
<path d="M1140.01 287.724C1145.4 285.386 1147.87 279.101 1145.53 273.686C1143.18 268.271 1136.9 265.777 1131.51 268.115C1126.11 270.453 1123.65 276.738 1125.99 282.153C1128.34 287.568 1134.62 290.062 1140.01 287.724Z" fill="#FDC2CC"/>
<path opacity="0.1" d="M1119.98 275.341C1120.52 273.9 1121.51 272.67 1122.8 271.829C1124.03 270.948 1125.48 270.215 1126.18 268.875C1126.98 267.358 1126.72 265.246 1128.05 264.17C1128.65 263.752 1129.35 263.512 1130.08 263.474C1132.81 263.16 1135.58 263.667 1138.03 264.929C1138.65 265.327 1139.34 265.6 1140.07 265.736C1140.46 265.733 1140.86 265.751 1141.25 265.79C1141.72 265.916 1142.15 266.158 1142.5 266.492C1144.55 268.23 1145.9 270.653 1146.3 273.31C1146.53 274.881 1146.41 276.481 1146.61 278.058C1146.81 279.635 1147.4 281.263 1148.68 282.196C1148.12 282.874 1147.02 282.801 1146.28 282.326C1145.54 281.851 1145.05 281.086 1144.48 280.413C1143.35 279.093 1141.89 278.107 1140.25 277.565C1139.23 277.235 1137.74 277.364 1137.59 278.422C1137.53 278.831 1137.73 279.241 1137.7 279.652C1137.66 280.457 1136.74 281.012 1135.96 280.928C1135.16 280.768 1134.45 280.313 1133.97 279.652C1131.6 276.812 1129.08 275.477 1126.22 278.366C1125.14 279.45 1123.79 280.461 1122.16 280.125C1120.06 279.641 1119.37 277.178 1119.98 275.341Z" fill="black"/>
<path d="M1119.87 275.104C1120.42 273.663 1121.41 272.434 1122.69 271.593C1123.92 270.711 1125.37 269.979 1126.08 268.639C1126.88 267.122 1126.61 265.01 1127.94 263.933C1128.54 263.516 1129.25 263.275 1129.98 263.238C1132.71 262.924 1135.48 263.43 1137.93 264.693C1138.55 265.09 1139.24 265.364 1139.97 265.5C1140.36 265.497 1140.76 265.515 1141.15 265.553C1141.62 265.68 1142.05 265.921 1142.4 266.256C1144.45 267.993 1145.79 270.417 1146.19 273.074C1146.42 274.644 1146.31 276.244 1146.51 277.821C1146.71 279.398 1147.3 281.027 1148.58 281.96C1148.02 282.638 1146.92 282.565 1146.18 282.09C1145.44 281.615 1144.95 280.85 1144.38 280.177C1143.25 278.856 1141.79 277.871 1140.15 277.329C1139.13 276.998 1137.63 277.128 1137.49 278.185C1137.43 278.595 1137.62 279.005 1137.6 279.416C1137.55 280.221 1136.63 280.776 1135.86 280.691C1135.06 280.532 1134.35 280.076 1133.87 279.415C1131.5 276.576 1128.98 275.24 1126.12 278.13C1125.03 279.214 1123.68 280.225 1122.06 279.888C1119.96 279.409 1119.27 276.946 1119.87 275.104Z" fill="#8F5A6A"/>
<path opacity="0.05" d="M1152.77 287.322L1148.04 289.37C1148.04 289.37 1140.77 298.069 1140.44 297.937C1140.21 297.848 1138.89 298.743 1138.06 299.327C1137.98 298.746 1137.85 298.172 1137.67 297.613C1140.59 296.07 1145.81 287.706 1145.81 287.706L1151.22 284.253L1152.54 287.288C1152.61 287.289 1152.69 287.301 1152.77 287.322Z" fill="black"/>
<path opacity="0.3" d="M1209.2 425.522C1209.56 426.379 1209.83 427.27 1210.01 428.18C1210.01 428.18 1191.32 437.946 1185.07 440.099C1182.06 441.137 1180.36 440.581 1179.69 439.634C1179.94 440.949 1181.68 442.072 1185.38 440.808C1191.63 438.656 1210.32 428.889 1210.32 428.889C1210.08 427.726 1209.71 426.596 1209.2 425.522Z" fill="white"/>
<g opacity="0.05">
<path d="M1146.03 349.715C1143.98 353.57 1141.64 355.78 1140 357.008C1140.08 357.183 1140.19 357.339 1140.29 357.494C1140.29 357.494 1144.81 355.811 1148.47 348.961C1149.01 347.843 1149.8 346.863 1150.77 346.098C1149.3 346.026 1147.58 346.818 1146.03 349.715Z" fill="black"/>
<path d="M1158.61 292.273C1156.72 290.178 1154.16 287.588 1152.88 287.267C1152.8 287.244 1152.72 287.233 1152.64 287.231C1152.64 287.231 1150.75 288.131 1150.83 288.155C1152.11 288.472 1154.29 290.953 1156.19 293.045C1157.73 294.745 1158.82 296.8 1159.38 299.026C1160.72 304.394 1163.41 315.486 1165.27 325.285C1167.84 338.866 1163.6 337.373 1163.53 341.011C1163.46 343.994 1165.45 347.013 1166.18 348.004C1167.09 348.056 1168.01 347.909 1168.86 347.574C1168.86 347.574 1165.87 343.879 1165.96 340.24C1166.04 336.6 1170.27 338.092 1167.7 324.514C1165.84 314.688 1163.14 303.601 1161.81 298.254C1161.25 296.029 1160.15 293.974 1158.61 292.273Z" fill="black"/>
</g>
</g>
<g clip-path="url(#clip1_68_2401)">
<path d="M283.793 932.391C215.544 932.391 160.02 876.809 160.02 808.489C160.02 740.17 215.544 684.587 283.793 684.587C291.008 684.587 298.21 685.211 305.318 686.455C305.407 686.47 305.491 686.503 305.567 686.551C305.643 686.599 305.709 686.662 305.761 686.735C305.813 686.809 305.849 686.892 305.869 686.98C305.889 687.068 305.891 687.159 305.875 687.247C305.86 687.336 305.827 687.421 305.778 687.497C305.73 687.573 305.667 687.638 305.594 687.69C305.52 687.741 305.437 687.778 305.349 687.797C305.261 687.817 305.17 687.819 305.082 687.803C298.052 686.574 290.929 685.956 283.793 685.957C216.299 685.957 161.388 740.924 161.388 808.489C161.388 876.054 216.299 931.022 283.793 931.022C351.288 931.022 406.199 876.054 406.199 808.489C406.229 777.951 394.837 748.507 374.267 725.955C374.146 725.821 374.083 725.644 374.092 725.463C374.101 725.282 374.181 725.113 374.314 724.991C374.448 724.869 374.624 724.805 374.805 724.813C374.985 724.82 375.155 724.899 375.278 725.032C396.078 747.836 407.597 777.609 407.566 808.489C407.566 876.809 352.042 932.391 283.793 932.391Z" fill="#E4E4E4"/>
<path d="M338.368 727.081C351.892 727.081 362.856 716.106 362.856 702.567C362.856 689.029 351.892 678.053 338.368 678.053C324.843 678.053 313.879 689.029 313.879 702.567C313.879 716.106 324.843 727.081 338.368 727.081Z" fill="#B1B1B1"/>
<path d="M335.027 715.326C334.604 715.326 334.187 715.227 333.809 715.038C333.431 714.848 333.102 714.573 332.848 714.235L326.167 705.318C325.952 705.031 325.796 704.705 325.708 704.358C325.619 704.011 325.599 703.65 325.65 703.296C325.7 702.941 325.82 702.6 326.002 702.292C326.185 701.984 326.426 701.715 326.712 701.5C326.998 701.285 327.324 701.129 327.67 701.04C328.017 700.951 328.377 700.931 328.732 700.982C329.086 701.033 329.426 701.153 329.734 701.335C330.042 701.518 330.311 701.759 330.525 702.045L334.896 707.879L346.122 691.023C346.524 690.423 347.147 690.008 347.854 689.868C348.561 689.727 349.295 689.873 349.895 690.273C350.495 690.674 350.912 691.296 351.055 692.003C351.197 692.711 351.054 693.446 350.655 694.048L337.294 714.111C337.052 714.474 336.727 714.774 336.346 714.985C335.964 715.196 335.538 715.313 335.103 715.325C335.077 715.325 335.052 715.326 335.027 715.326Z" fill="white"/>
<path d="M280.609 789.261L242.845 684.095L243.803 683.75L236.858 664.407L235.9 664.752L224.305 632.463C223.872 631.257 223.206 630.148 222.345 629.2C221.484 628.251 220.445 627.482 219.287 626.936C218.128 626.39 216.874 626.077 215.596 626.016C214.317 625.955 213.039 626.147 211.834 626.58L143.565 651.145C142.361 651.579 141.253 652.245 140.306 653.107C139.358 653.969 138.59 655.01 138.044 656.169C137.499 657.328 137.186 658.584 137.125 659.864C137.064 661.144 137.256 662.423 137.689 663.629L145.773 686.143L144.26 686.727L149.421 700.142L150.632 699.675L151.704 702.659L150.415 703.156L155.575 716.571L156.563 716.19L193.993 820.428C194.424 821.635 195.089 822.746 195.949 823.695C196.81 824.645 197.849 825.415 199.008 825.962C200.167 826.508 201.422 826.82 202.701 826.88C203.981 826.94 205.26 826.746 206.464 826.311L274.732 801.746C277.163 800.868 279.147 799.06 280.249 796.72C281.351 794.379 281.48 791.697 280.609 789.261Z" fill="#333333"/>
<path d="M202.874 822.844C201.912 822.842 200.975 822.544 200.189 821.99C199.403 821.436 198.807 820.653 198.481 819.747L141.583 661.294C141.164 660.127 141.225 658.841 141.753 657.719C142.281 656.598 143.233 655.732 144.399 655.312L158.924 650.085L158.902 650.594C158.865 651.477 159.045 652.356 159.427 653.153C159.809 653.95 160.381 654.641 161.092 655.164C161.804 655.688 162.633 656.028 163.507 656.155C164.38 656.283 165.272 656.193 166.103 655.894L198.339 644.295C199.117 643.938 199.8 643.402 200.334 642.732C200.867 642.062 201.235 641.275 201.408 640.436C201.579 639.611 201.553 638.757 201.332 637.944C201.111 637.131 200.701 636.382 200.135 635.758L199.795 635.379L214.799 629.98C215.965 629.562 217.249 629.624 218.369 630.153C219.489 630.681 220.355 631.633 220.775 632.799L275.061 783.976C276.169 787.073 276.004 790.484 274.603 793.459C273.202 796.435 270.68 798.733 267.589 799.849L204.457 822.566C203.949 822.75 203.413 822.844 202.874 822.844Z" fill="white"/>
<path d="M197.312 710.457C207.509 710.457 215.775 702.182 215.775 691.974C215.775 681.766 207.509 673.491 197.312 673.491C187.114 673.491 178.848 681.766 178.848 691.974C178.848 702.182 187.114 710.457 197.312 710.457Z" fill="#B1B1B1"/>
<path d="M243.064 718.852L179.124 741.859C178.924 741.932 178.712 741.964 178.5 741.954C178.288 741.944 178.08 741.893 177.888 741.803C177.695 741.712 177.523 741.585 177.38 741.427C177.237 741.27 177.126 741.086 177.054 740.886C176.983 740.686 176.951 740.474 176.961 740.261C176.971 740.049 177.023 739.841 177.114 739.648C177.205 739.456 177.333 739.284 177.49 739.141C177.647 738.998 177.831 738.888 178.031 738.817L241.971 715.809C242.374 715.666 242.817 715.688 243.204 715.87C243.59 716.053 243.889 716.382 244.033 716.785C244.178 717.188 244.157 717.632 243.975 718.019C243.793 718.407 243.466 718.706 243.064 718.852Z" fill="#E6E6E6"/>
<path d="M224.076 733.44L203.044 741.007C202.845 741.08 202.633 741.112 202.42 741.102C202.208 741.092 202 741.041 201.808 740.95C201.616 740.86 201.443 740.732 201.3 740.575C201.157 740.418 201.047 740.234 200.975 740.034C200.903 739.834 200.872 739.622 200.882 739.409C200.892 739.197 200.944 738.989 201.035 738.797C201.125 738.604 201.253 738.432 201.41 738.289C201.568 738.146 201.752 738.036 201.952 737.965L222.983 730.397C223.386 730.252 223.83 730.273 224.218 730.456C224.605 730.638 224.904 730.968 225.049 731.371C225.194 731.775 225.173 732.219 224.99 732.607C224.808 732.995 224.479 733.295 224.076 733.44Z" fill="#E6E6E6"/>
<path d="M229.078 747.371L208.046 754.938C207.847 755.01 207.635 755.042 207.423 755.032C207.211 755.022 207.004 754.97 206.812 754.88C206.62 754.789 206.448 754.662 206.305 754.504C206.162 754.347 206.052 754.164 205.98 753.964C205.908 753.764 205.877 753.552 205.887 753.34C205.897 753.128 205.949 752.92 206.039 752.728C206.129 752.536 206.257 752.363 206.414 752.221C206.571 752.078 206.754 751.967 206.954 751.895L227.985 744.328C228.388 744.183 228.833 744.204 229.22 744.387C229.607 744.569 229.907 744.899 230.052 745.302C230.196 745.706 230.175 746.15 229.993 746.538C229.81 746.926 229.481 747.226 229.078 747.371Z" fill="#E6E6E6"/>
<path d="M231.64 754.506L210.609 762.074C210.409 762.146 210.197 762.178 209.985 762.169C209.772 762.159 209.564 762.107 209.372 762.017C209.18 761.927 209.007 761.799 208.864 761.642C208.721 761.485 208.61 761.301 208.539 761.101C208.467 760.9 208.435 760.688 208.445 760.476C208.455 760.263 208.507 760.055 208.598 759.863C208.689 759.67 208.817 759.498 208.974 759.355C209.132 759.213 209.316 759.102 209.516 759.031L230.547 751.463C230.747 751.391 230.959 751.359 231.171 751.368C231.384 751.378 231.592 751.43 231.784 751.52C231.976 751.61 232.149 751.738 232.292 751.895C232.435 752.052 232.545 752.236 232.617 752.436C232.689 752.637 232.721 752.849 232.71 753.061C232.7 753.274 232.648 753.482 232.557 753.674C232.467 753.866 232.339 754.039 232.182 754.181C232.024 754.324 231.84 754.434 231.64 754.506Z" fill="#E6E6E6"/>
<path d="M238.337 736.063L193.715 752.119C193.515 752.192 193.303 752.224 193.091 752.214C192.879 752.205 192.671 752.153 192.479 752.063C192.286 751.972 192.114 751.845 191.971 751.687C191.828 751.53 191.717 751.346 191.646 751.146C191.574 750.946 191.542 750.734 191.552 750.521C191.562 750.309 191.614 750.101 191.705 749.909C191.796 749.716 191.924 749.544 192.081 749.401C192.238 749.258 192.422 749.148 192.622 749.077L237.244 733.02C237.444 732.948 237.656 732.916 237.868 732.926C238.08 732.935 238.289 732.987 238.481 733.077C238.673 733.168 238.846 733.295 238.989 733.452C239.131 733.61 239.242 733.794 239.314 733.994C239.386 734.194 239.417 734.406 239.407 734.618C239.397 734.831 239.345 735.039 239.254 735.231C239.164 735.424 239.036 735.596 238.878 735.739C238.721 735.881 238.537 735.992 238.337 736.063Z" fill="#E6E6E6"/>
<path d="M229.349 771.827L221.713 774.575C221.027 774.821 220.272 774.785 219.614 774.474C218.955 774.163 218.447 773.603 218.201 772.917C217.955 772.231 217.991 771.476 218.301 770.816C218.611 770.157 219.17 769.648 219.855 769.401L227.491 766.653C228.176 766.407 228.931 766.443 229.59 766.754C230.248 767.065 230.756 767.625 231.003 768.311C231.249 768.997 231.213 769.752 230.903 770.412C230.593 771.071 230.034 771.58 229.349 771.827Z" fill="#B1B1B1"/>
<path d="M169.171 650.598C169.758 650.598 170.233 650.122 170.233 649.535C170.233 648.948 169.758 648.472 169.171 648.472C168.585 648.472 168.109 648.948 168.109 649.535C168.109 650.122 168.585 650.598 169.171 650.598Z" fill="white"/>
<path d="M394.759 945.94C395.73 942.233 398.061 939.029 401.287 936.966C401.607 936.761 401.273 936.275 400.954 936.479C397.601 938.633 395.182 941.972 394.18 945.832C394.085 946.2 394.665 946.306 394.759 945.94Z" fill="white"/>
<path d="M456.253 854.021L436.463 887.358L437.215 887.755L430.513 900.474L429.118 899.735L424.714 907.148L425.808 907.778L418.628 920.223L417.384 919.504L352.81 1028.29C351.116 1031.14 348.364 1033.2 345.156 1034.01C341.948 1034.83 338.548 1034.34 335.7 1032.65L215.654 961.247C212.81 959.552 210.754 956.797 209.937 953.586C209.12 950.375 209.61 946.97 211.298 944.12L314.741 769.85C316.434 767.003 319.187 764.945 322.395 764.128C325.602 763.31 329.003 763.8 331.85 765.49L451.897 836.894C454.74 838.59 456.795 841.345 457.611 844.556C458.428 847.767 457.939 851.171 456.253 854.021Z" fill="#333333"/>
<path d="M339.979 1025.92L219.51 954.269C218.633 953.747 217.999 952.897 217.748 951.908C217.496 950.918 217.647 949.869 218.167 948.99L322.296 773.561C322.818 772.683 323.667 772.049 324.656 771.797C325.644 771.545 326.693 771.696 327.57 772.217L448.039 843.872C448.916 844.395 449.549 845.244 449.801 846.234C450.053 847.223 449.902 848.273 449.382 849.151L345.253 1024.58C344.73 1025.46 343.882 1026.09 342.893 1026.34C341.905 1026.6 340.856 1026.45 339.979 1025.92Z" fill="white"/>
<path d="M389.464 805.271C390.051 805.271 390.526 804.796 390.526 804.208C390.526 803.621 390.051 803.145 389.464 803.145C388.878 803.145 388.402 803.621 388.402 804.208C388.402 804.796 388.878 805.271 389.464 805.271Z" fill="white"/>
<path d="M382.892 930.938L282.33 871.124C282.014 870.938 281.739 870.692 281.519 870.399C281.299 870.106 281.139 869.773 281.048 869.418C280.957 869.063 280.937 868.693 280.989 868.331C281.041 867.968 281.164 867.619 281.351 867.304C281.538 866.989 281.785 866.714 282.078 866.495C282.372 866.276 282.705 866.117 283.06 866.027C283.415 865.937 283.784 865.919 284.146 865.972C284.508 866.026 284.856 866.15 285.17 866.339L385.732 926.153C386.047 926.339 386.323 926.585 386.543 926.878C386.763 927.171 386.923 927.504 387.014 927.859C387.105 928.214 387.125 928.584 387.073 928.946C387.021 929.309 386.898 929.658 386.711 929.973C386.524 930.288 386.277 930.563 385.984 930.782C385.69 931.001 385.357 931.16 385.002 931.25C384.647 931.339 384.278 931.358 383.916 931.305C383.553 931.251 383.205 931.127 382.892 930.938Z" fill="#E6E6E6"/>
<path d="M342.738 921.67L309.661 901.995C309.347 901.809 309.072 901.562 308.854 901.269C308.635 900.976 308.476 900.643 308.386 900.289C308.296 899.935 308.276 899.566 308.328 899.205C308.381 898.843 308.503 898.495 308.69 898.18C308.876 897.866 309.123 897.592 309.416 897.373C309.708 897.154 310.041 896.995 310.395 896.905C310.749 896.815 311.117 896.795 311.478 896.847C311.84 896.9 312.187 897.023 312.501 897.21L345.579 916.884C345.893 917.071 346.167 917.318 346.385 917.61C346.604 917.903 346.763 918.236 346.853 918.59C346.943 918.945 346.963 919.313 346.91 919.675C346.858 920.037 346.735 920.385 346.549 920.699C346.362 921.013 346.116 921.288 345.823 921.506C345.531 921.725 345.198 921.884 344.844 921.975C344.49 922.065 344.122 922.084 343.761 922.032C343.4 921.98 343.052 921.857 342.738 921.67Z" fill="#E6E6E6"/>
<path d="M329.733 943.58L296.655 923.905C296.022 923.528 295.563 922.915 295.382 922.199C295.2 921.484 295.309 920.726 295.686 920.091C296.062 919.456 296.675 918.998 297.39 918.816C298.105 918.633 298.862 918.743 299.496 919.12L332.574 938.794C332.887 938.981 333.162 939.228 333.38 939.52C333.599 939.813 333.758 940.146 333.848 940.501C333.938 940.855 333.957 941.223 333.905 941.585C333.853 941.947 333.73 942.295 333.544 942.609C333.357 942.923 333.111 943.198 332.818 943.416C332.526 943.635 332.193 943.794 331.839 943.885C331.485 943.975 331.117 943.994 330.756 943.942C330.394 943.89 330.047 943.767 329.733 943.58Z" fill="#E6E6E6"/>
<path d="M323.072 954.802L289.995 935.128C289.68 934.941 289.405 934.695 289.185 934.402C288.966 934.109 288.806 933.776 288.715 933.421C288.625 933.067 288.605 932.697 288.657 932.335C288.709 931.973 288.832 931.624 289.019 931.31C289.206 930.995 289.453 930.72 289.746 930.501C290.039 930.282 290.372 930.123 290.726 930.033C291.081 929.943 291.45 929.924 291.811 929.977C292.173 930.03 292.521 930.154 292.835 930.342L325.913 950.017C326.228 950.202 326.504 950.449 326.724 950.742C326.944 951.035 327.104 951.368 327.195 951.723C327.286 952.078 327.306 952.447 327.254 952.81C327.202 953.173 327.079 953.522 326.892 953.837C326.705 954.152 326.458 954.427 326.165 954.646C325.871 954.865 325.537 955.024 325.182 955.114C324.827 955.203 324.458 955.222 324.096 955.169C323.734 955.115 323.386 954.991 323.072 954.802Z" fill="#E6E6E6"/>
<path d="M354.878 943.505L284.698 901.763C284.068 901.384 283.612 900.771 283.432 900.057C283.252 899.343 283.362 898.587 283.738 897.954C284.114 897.321 284.725 896.863 285.437 896.68C286.149 896.497 286.905 896.604 287.539 896.977L357.718 938.72C358.034 938.906 358.31 939.152 358.53 939.445C358.75 939.738 358.91 940.071 359.001 940.426C359.092 940.781 359.112 941.151 359.06 941.513C359.008 941.876 358.885 942.225 358.698 942.54C358.511 942.855 358.264 943.13 357.97 943.349C357.677 943.568 357.343 943.727 356.988 943.817C356.633 943.907 356.264 943.925 355.902 943.872C355.54 943.818 355.192 943.694 354.878 943.505Z" fill="#E6E6E6"/>
<path d="M341.501 996.853L329.491 989.709C328.415 989.067 327.637 988.024 327.328 986.808C327.02 985.592 327.206 984.304 327.846 983.225C328.486 982.147 329.528 981.367 330.742 981.057C331.956 980.747 333.244 980.932 334.322 981.571L346.332 988.715C347.41 989.356 348.189 990.4 348.499 991.616C348.808 992.833 348.622 994.122 347.981 995.202C347.341 996.281 346.298 997.061 345.083 997.371C343.868 997.68 342.58 997.494 341.501 996.853Z" fill="#B1B1B1"/>
<path d="M363.91 880.864C377.506 880.864 388.527 869.831 388.527 856.221C388.527 842.61 377.506 831.577 363.91 831.577C350.314 831.577 339.292 842.61 339.292 856.221C339.292 869.831 350.314 880.864 363.91 880.864Z" fill="#B1B1B1"/>
<path d="M-39.71 956.363H293.439V763.29C293.437 761.843 292.862 760.456 291.84 759.433C290.818 758.41 289.433 757.835 287.988 757.833H-34.2592C-35.7043 757.835 -37.0897 758.41 -38.1116 759.433C-39.1335 760.456 -39.7083 761.843 -39.71 763.29V956.363Z" fill="#CACACA"/>
<path d="M283.145 765.38H-29.417V943.011H283.145V765.38Z" fill="white"/>
<path d="M-40 951.138V974.964C-40 975.951 -39.8057 976.929 -39.4281 977.842C-39.0505 978.754 -38.4971 979.583 -37.7994 980.282C-37.1017 980.98 -36.2734 981.534 -35.3619 981.912C-34.4503 982.29 -33.4733 982.485 -32.4866 982.485H90.4759V1029.5H88.8424C88.7142 1029.5 88.5873 1029.53 88.4689 1029.58C88.3505 1029.63 88.2429 1029.7 88.1523 1029.79C88.0616 1029.88 87.9897 1029.99 87.9407 1030.11C87.8916 1030.23 87.8664 1030.35 87.8664 1030.48V1033.75C87.8664 1033.88 87.8916 1034.01 87.9407 1034.13C87.9897 1034.24 88.0616 1034.35 88.1522 1034.44C88.2429 1034.53 88.3505 1034.61 88.4689 1034.66C88.5873 1034.7 88.7142 1034.73 88.8424 1034.73H165.176C165.304 1034.73 165.431 1034.7 165.549 1034.66C165.668 1034.61 165.775 1034.53 165.866 1034.44C165.957 1034.35 166.029 1034.24 166.078 1034.13C166.127 1034.01 166.152 1033.88 166.152 1033.75V1030.48C166.152 1030.35 166.127 1030.23 166.078 1030.11C166.029 1029.99 165.957 1029.88 165.866 1029.79C165.775 1029.7 165.668 1029.63 165.549 1029.58C165.431 1029.53 165.304 1029.5 165.176 1029.5H163.542V982.485H286.505C287.492 982.485 288.469 982.29 289.38 981.912C290.292 981.534 291.12 980.98 291.818 980.282C292.515 979.584 293.069 978.754 293.446 977.842C293.824 976.929 294.018 975.951 294.018 974.964V951.138L-40 951.138Z" fill="#333333"/>
<path d="M237.917 824.786H89.8999C88.9668 824.786 88.0719 824.415 87.4121 823.755C86.7523 823.094 86.3816 822.199 86.3816 821.264C86.3816 820.33 86.7523 819.435 87.4121 818.774C88.0719 818.114 88.9668 817.743 89.8999 817.743H237.917C238.85 817.743 239.745 818.114 240.405 818.774C241.065 819.435 241.436 820.33 241.436 821.264C241.436 822.199 241.065 823.094 240.405 823.755C239.745 824.415 238.85 824.786 237.917 824.786Z" fill="#E6E6E6"/>
<path d="M188.252 840.685H139.565C138.632 840.685 137.737 840.314 137.077 839.654C136.417 838.993 136.046 838.097 136.046 837.163C136.046 836.229 136.417 835.333 137.077 834.673C137.737 834.012 138.632 833.641 139.565 833.641H188.252C189.185 833.641 190.08 834.012 190.74 834.673C191.4 835.333 191.77 836.229 191.77 837.163C191.77 838.097 191.4 838.993 190.74 839.654C190.08 840.314 189.185 840.685 188.252 840.685Z" fill="#E6E6E6"/>
<path d="M188.252 872.935H139.565C138.632 872.935 137.737 872.564 137.077 871.903C136.417 871.243 136.046 870.347 136.046 869.413C136.046 868.479 136.417 867.583 137.077 866.922C137.737 866.262 138.632 865.891 139.565 865.891H188.252C189.185 865.891 190.08 866.262 190.74 866.922C191.4 867.583 191.77 868.479 191.77 869.413C191.77 870.347 191.4 871.243 190.74 871.903C190.08 872.564 189.185 872.935 188.252 872.935Z" fill="#E6E6E6"/>
<path d="M188.252 889.453H139.565C139.103 889.453 138.645 889.362 138.219 889.185C137.792 889.008 137.404 888.748 137.077 888.421C136.75 888.094 136.491 887.706 136.314 887.279C136.138 886.851 136.047 886.393 136.047 885.931C136.047 885.468 136.138 885.01 136.314 884.583C136.491 884.156 136.75 883.767 137.077 883.44C137.404 883.113 137.792 882.854 138.219 882.677C138.645 882.5 139.103 882.409 139.565 882.409H188.252C188.714 882.409 189.172 882.5 189.598 882.677C190.025 882.854 190.413 883.113 190.74 883.44C191.067 883.767 191.326 884.156 191.503 884.583C191.679 885.01 191.77 885.468 191.77 885.931C191.77 886.393 191.679 886.851 191.503 887.279C191.326 887.706 191.067 888.094 190.74 888.421C190.413 888.748 190.025 889.008 189.598 889.185C189.172 889.362 188.714 889.453 188.252 889.453Z" fill="#E6E6E6"/>
<path d="M215.557 856.584H112.26C111.327 856.584 110.432 856.213 109.772 855.552C109.112 854.892 108.741 853.996 108.741 853.062C108.741 852.128 109.112 851.232 109.772 850.571C110.432 849.911 111.327 849.54 112.26 849.54H215.557C216.49 849.54 217.385 849.911 218.045 850.571C218.705 851.232 219.076 852.128 219.076 853.062C219.076 853.996 218.705 854.892 218.045 855.552C217.385 856.213 216.49 856.584 215.557 856.584Z" fill="#E6E6E6"/>
<path d="M235.453 923.272H217.775C216.188 923.272 214.666 922.641 213.544 921.518C212.422 920.395 211.792 918.872 211.792 917.283C211.792 915.695 212.422 914.171 213.544 913.048C214.666 911.925 216.188 911.294 217.775 911.294H235.453C237.04 911.294 238.561 911.925 239.683 913.048C240.805 914.171 241.436 915.695 241.436 917.283C241.436 918.872 240.805 920.395 239.683 921.518C238.561 922.641 237.04 923.272 235.453 923.272Z" fill="#B1B1B1"/>
<path d="M43.3551 879.804C60.3502 879.804 74.1274 866.012 74.1274 849C74.1274 831.987 60.3502 818.195 43.3551 818.195C26.36 818.195 12.5828 831.987 12.5828 849C12.5828 866.012 26.36 879.804 43.3551 879.804Z" fill="#B1B1B1"/>
<path d="M126.719 761.606C127.36 761.606 127.879 761.087 127.879 760.445C127.879 759.804 127.36 759.284 126.719 759.284C126.079 759.284 125.559 759.804 125.559 760.445C125.559 761.087 126.079 761.606 126.719 761.606Z" fill="white"/>
</g>
<g clip-path="url(#clip2_68_2401)">
<path d="M1317.98 888.611C1313.12 893.183 1306.83 894.386 1303.92 891.298C1301.01 888.209 1302.59 881.999 1307.44 877.427C1309.56 875.425 1311.96 874.069 1314.24 873.436L1335.04 854.32L1343.81 864.275L1322.36 882.064C1321.6 884.294 1320.1 886.609 1317.98 888.611Z" fill="#FFB6B6"/>
<path d="M1473.23 894.131L1497.94 1059.55L1474.94 1062.55L1434.94 931.554L1429.94 1066.55H1408.5C1408.5 1066.55 1389.99 917.554 1395.46 899.554C1400.94 881.554 1473.23 894.131 1473.23 894.131Z" fill="#333333"/>
<path d="M1419.94 761.554H1443.94L1447.44 770.054C1447.44 770.054 1461.44 778.054 1461.44 781.054C1461.44 784.054 1469.94 859.554 1469.94 859.554L1474.44 901.054C1474.44 901.054 1421.94 927.554 1395.94 900.554L1400.94 854.554C1400.94 854.554 1396.94 782.554 1398.94 779.554C1400.94 776.554 1415.94 769.554 1415.94 769.554L1419.94 761.554Z" fill="#B1B1B1"/>
<path d="M1412.43 774.454C1412.43 774.454 1419.75 785.507 1417.44 790.054C1415.13 794.6 1379.12 838.237 1379.12 838.237L1335.66 874.023L1322.92 862.72L1363.86 823.673L1390.3 784.67C1394.51 776.642 1403.59 772.449 1412.43 774.454Z" fill="#B1B1B1"/>
<path d="M1432.76 755.987C1444.16 755.987 1453.4 746.749 1453.4 735.353C1453.4 723.957 1444.16 714.719 1432.76 714.719C1421.37 714.719 1412.13 723.957 1412.13 735.353C1412.13 746.749 1421.37 755.987 1432.76 755.987Z" fill="#FFB6B6"/>
<path d="M1444.84 752.873C1443.51 752.937 1441.77 752.685 1441.55 751.379C1441.39 750.458 1442.17 749.664 1442.9 749.082C1443.92 748.271 1444.99 747.515 1445.87 746.551C1446.74 745.586 1447.42 744.367 1447.44 743.064C1447.45 741.761 1446.68 740.402 1445.43 740.023C1444.18 739.644 1442.63 740.571 1442.61 741.873C1441.41 740.049 1441.25 737.749 1441.19 735.565C1441.15 734.287 1441.13 733.009 1441.14 731.73C1441.14 729.983 1441.19 728.237 1441.23 726.491C1440.37 726.446 1433.44 729.054 1432.44 729.054C1431.58 729.054 1424.67 727.682 1425.13 725.714C1425 726.972 1418.4 729.238 1418.27 728.579C1418.14 727.921 1417.64 727.226 1416.97 727.265C1416.27 727.307 1415.88 728.091 1415.64 728.758C1415.11 730.248 1413.82 732.823 1412.44 732.054C1401.98 726.228 1410.42 724.414 1411.65 722.045C1413.18 719.133 1414.8 716.104 1417.51 714.246C1420.22 712.388 1422.36 710.17 1424.5 712.668C1429.86 708.763 1435.17 709.705 1441.41 711.932C1447.66 714.158 1452.65 719.606 1454.33 726.019C1455.1 728.959 1457.16 730.248 1455.62 732.871C1457.31 735.139 1456.4 733.856 1456.73 736.665C1456.99 738.882 1456.77 741.221 1455.67 743.164C1454.5 745.24 1452.42 746.684 1450.2 747.549C1447.98 748.414 1447.59 752.761 1445.23 753.101" fill="#333333"/>
<path d="M1234.49 983.849L1234.35 981.852C1238.25 981.588 1242.17 981.054 1245.98 980.264L1246.38 982.223C1242.48 983.03 1238.48 983.577 1234.49 983.849ZM1222.47 983.671C1218.43 983.308 1214.44 982.729 1210.61 981.953L1211.01 979.992C1214.77 980.755 1218.69 981.322 1222.65 981.679L1222.47 983.671ZM1257.95 978.984L1257.28 977.1C1260.95 975.792 1264.57 974.216 1268.04 972.416L1268.96 974.191C1265.41 976.033 1261.71 977.645 1257.95 978.984ZM1199.03 978.858C1195.2 977.573 1191.46 976.039 1187.93 974.296L1188.81 972.503C1192.27 974.205 1195.92 975.706 1199.66 976.962L1199.03 978.858ZM1177.56 968.236C1174.26 965.973 1171.1 963.449 1168.17 960.735L1169.53 959.268C1172.39 961.916 1175.47 964.378 1178.69 966.586L1177.56 968.236ZM1279.21 967.943L1278.05 966.31C1281.24 964.057 1284.3 961.562 1287.15 958.898L1288.51 960.359C1285.6 963.085 1282.47 965.637 1279.21 967.943ZM1159.98 951.927C1157.5 948.821 1155.2 945.49 1153.17 942.027L1154.89 941.014C1156.88 944.394 1159.12 947.645 1161.55 950.677L1159.98 951.927ZM1296.71 951.586L1295.16 950.322C1297.63 947.292 1299.91 944.066 1301.94 940.736L1303.65 941.777C1301.57 945.184 1299.24 948.484 1296.71 951.586ZM1147.82 931.272C1146.3 927.604 1145.01 923.776 1143.98 919.893L1145.92 919.382C1146.92 923.179 1148.18 926.922 1149.67 930.507L1147.82 931.272ZM1309.18 931.116L1307.34 930.317C1308.9 926.739 1310.22 923.016 1311.28 919.253L1313.2 919.792C1312.13 923.642 1310.77 927.453 1309.18 931.116ZM1141.68 908.111C1141.17 904.159 1140.9 900.129 1140.9 896.134L1142.9 896.132C1142.9 900.043 1143.16 903.987 1143.66 907.855L1141.68 908.111ZM1315.63 908.032L1313.65 907.763C1314.18 903.908 1314.44 899.969 1314.44 896.054L1314.44 895.873H1316.44L1316.44 896.046C1316.44 900.058 1316.17 904.089 1315.63 908.032ZM1143.64 884.407L1141.66 884.153C1142.16 880.18 1142.93 876.214 1143.94 872.369L1145.88 872.876C1144.89 876.639 1144.14 880.518 1143.64 884.407ZM1313.63 884.168C1313.09 880.299 1312.29 876.434 1311.23 872.682L1313.15 872.14C1314.24 875.979 1315.06 879.934 1315.61 883.894L1313.63 884.168ZM1149.6 861.746L1147.76 860.984C1149.29 857.27 1151.08 853.65 1153.08 850.224L1154.81 851.234C1152.85 854.58 1151.1 858.117 1149.6 861.746ZM1307.28 861.633C1305.72 858.064 1303.89 854.566 1301.85 851.235L1303.56 850.191C1305.65 853.6 1307.51 857.18 1309.11 860.832L1307.28 861.633ZM1295.06 841.668C1292.6 838.647 1289.9 835.766 1287.04 833.106L1288.4 831.642C1291.32 834.365 1294.09 837.312 1296.61 840.402L1295.06 841.668ZM1161.44 841.563L1159.88 840.316C1162.37 837.183 1165.12 834.217 1168.04 831.497L1169.4 832.96C1166.56 835.613 1163.88 838.507 1161.44 841.563ZM1277.93 825.708C1274.73 823.456 1271.35 821.407 1267.89 819.615L1268.81 817.839C1272.35 819.672 1275.81 821.769 1279.08 824.073L1277.93 825.708ZM1178.54 825.622L1177.4 823.975C1180.67 821.725 1184.16 819.679 1187.76 817.892L1188.65 819.684C1185.13 821.428 1181.73 823.426 1178.54 825.622ZM1199.49 815.201L1198.85 813.306C1202.56 812.053 1206.46 811.005 1210.43 810.191L1210.83 812.15C1206.94 812.948 1203.13 813.974 1199.49 815.201ZM1257.12 814.95C1253.44 813.649 1249.63 812.592 1245.8 811.807L1246.2 809.848C1250.12 810.651 1254.02 811.733 1257.78 813.064L1257.12 814.95ZM1222.47 810.445L1222.29 808.454C1224.29 808.27 1226.35 808.136 1228.4 808.055C1230.35 808.032 1232.37 808.118 1234.3 808.245L1234.17 810.242C1232.28 810.117 1230.35 810.054 1228.44 810.054C1226.46 810.133 1224.44 810.265 1222.47 810.445Z" fill="#3F3D56"/>
<path d="M1161.87 977.876C1176.79 977.876 1188.87 965.788 1188.87 950.876C1188.87 935.964 1176.79 923.876 1161.87 923.876C1146.96 923.876 1134.87 935.964 1134.87 950.876C1134.87 965.788 1146.96 977.876 1161.87 977.876Z" fill="#B1B1B1"/>
<path d="M1151.31 941.823C1151.31 940.987 1152 940.309 1152.86 940.309H1170.89C1171.75 940.309 1172.44 940.987 1172.44 941.823V959.929C1172.44 960.765 1171.75 961.443 1170.89 961.443H1152.86C1152 961.443 1151.31 960.765 1151.31 959.929V941.823ZM1157.84 958.001V948.457H1154.67V958.001H1157.84ZM1156.25 947.154C1157.36 947.154 1158.05 946.422 1158.05 945.505C1158.03 944.569 1157.36 943.857 1156.27 943.857C1155.19 943.857 1154.48 944.57 1154.48 945.505C1154.48 946.422 1155.17 947.154 1156.23 947.154H1156.25ZM1162.73 958.001V952.671C1162.73 952.386 1162.76 952.1 1162.84 951.897C1163.07 951.328 1163.59 950.737 1164.47 950.737C1165.62 950.737 1166.07 951.612 1166.07 952.896V958.001H1169.25V952.527C1169.25 949.595 1167.68 948.232 1165.59 948.232C1163.91 948.232 1163.16 949.156 1162.73 949.807V949.84H1162.71L1162.73 949.807V948.457H1159.56C1159.6 949.353 1159.56 958.001 1159.56 958.001H1162.73Z" fill="white"/>
<path d="M1241.61 836.515C1256.52 836.515 1268.61 824.427 1268.61 809.515C1268.61 794.603 1256.52 782.515 1241.61 782.515C1226.69 782.515 1214.61 794.603 1214.61 809.515C1214.61 824.427 1226.69 836.515 1241.61 836.515Z" fill="#B1B1B1"/>
<path fill-rule="evenodd" clip-rule="evenodd" d="M1241.95 804.624C1243.43 802.626 1245.06 801.054 1247.15 801.054C1251.09 801.054 1254.34 806.072 1254.34 812.047C1254.34 815.692 1252.77 817.977 1249.95 817.977C1247.5 817.977 1246.14 816.598 1243.71 812.527L1242.65 810.739L1242.46 810.426C1242.18 809.958 1241.9 809.492 1241.61 809.03L1239.74 812.34C1237.08 816.996 1235.58 817.977 1233.49 817.977C1230.6 817.977 1228.87 815.724 1228.87 812.153C1228.87 806.446 1232.05 801.054 1236.19 801.054C1236.7 801.054 1237.19 801.116 1237.66 801.248C1238.15 801.385 1238.63 801.598 1239.11 801.896C1240.03 802.467 1240.95 803.352 1241.95 804.624ZM1244.36 808.164C1243.96 807.511 1243.58 806.911 1243.21 806.36L1243.2 806.348C1244.54 804.27 1245.65 803.237 1246.97 803.237C1249.72 803.237 1251.91 807.276 1251.91 812.235C1251.91 814.126 1251.29 815.223 1250.01 815.223C1248.78 815.223 1248.19 814.411 1245.85 810.655L1244.36 808.164H1244.36ZM1236.59 803.849C1237.74 804.008 1238.79 804.858 1240.31 807.034C1239.43 808.377 1238.57 809.726 1237.71 811.081C1235.55 814.465 1234.8 815.225 1233.6 815.225C1232.36 815.225 1231.63 814.139 1231.63 812.2C1231.63 808.059 1233.69 803.822 1236.16 803.822C1236.3 803.822 1236.44 803.831 1236.59 803.85V803.849Z" fill="white"/>
<path d="M1154.72 879.223C1169.63 879.223 1181.72 867.134 1181.72 852.223C1181.72 837.311 1169.63 825.223 1154.72 825.223C1139.81 825.223 1127.72 837.311 1127.72 852.223C1127.72 867.134 1139.81 879.223 1154.72 879.223Z" fill="#B1B1B1"/>
<path d="M1150.36 861.747C1159.21 861.747 1164.05 854.416 1164.05 848.071C1164.05 847.866 1164.05 847.657 1164.04 847.452C1164.98 846.77 1165.8 845.926 1166.44 844.959C1165.56 845.347 1164.63 845.602 1163.67 845.718C1164.68 845.116 1165.43 844.17 1165.79 843.055C1164.85 843.615 1163.81 844.008 1162.74 844.217C1160.92 842.279 1157.87 842.183 1155.93 844.003C1154.68 845.178 1154.15 846.932 1154.54 848.604C1150.67 848.41 1147.07 846.584 1144.62 843.58C1143.35 845.779 1144 848.588 1146.11 850C1145.35 849.974 1144.6 849.77 1143.94 849.403V849.468C1143.94 851.757 1145.55 853.727 1147.79 854.184C1147.38 854.297 1146.95 854.354 1146.52 854.352C1146.22 854.353 1145.92 854.325 1145.63 854.269C1146.26 856.227 1148.06 857.568 1150.12 857.605C1148.41 858.944 1146.31 859.67 1144.14 859.666C1143.76 859.668 1143.38 859.646 1143 859.6C1145.2 861.003 1147.75 861.748 1150.36 861.747Z" fill="white"/>
<path d="M1251.93 1007.54C1266.84 1007.54 1278.93 995.447 1278.93 980.536C1278.93 965.624 1266.84 953.536 1251.93 953.536C1237.01 953.536 1224.93 965.624 1224.93 980.536C1224.93 995.447 1237.01 1007.54 1251.93 1007.54Z" fill="#B1B1B1"/>
<path d="M1251.93 969.02C1248.8 969.02 1248.41 969.035 1247.18 969.089C1245.95 969.147 1245.12 969.34 1244.38 969.625C1243.61 969.914 1242.92 970.367 1242.34 970.953C1241.76 971.529 1241.3 972.225 1241.01 972.993C1240.73 973.724 1240.54 974.562 1240.48 975.786C1240.42 977.016 1240.41 977.408 1240.41 980.537C1240.41 983.664 1240.42 984.055 1240.48 985.283C1240.54 986.509 1240.73 987.346 1241.01 988.078C1241.31 988.835 1241.7 989.477 1242.34 990.118C1242.98 990.759 1243.62 991.153 1244.38 991.447C1245.12 991.732 1245.95 991.926 1247.18 991.982C1248.41 992.037 1248.8 992.051 1251.93 992.051C1255.05 992.051 1255.44 992.037 1256.67 991.982C1257.9 991.925 1258.74 991.732 1259.47 991.447C1260.24 991.157 1260.93 990.704 1261.51 990.118C1262.15 989.477 1262.54 988.835 1262.84 988.078C1263.12 987.346 1263.31 986.509 1263.37 985.283C1263.43 984.055 1263.44 983.664 1263.44 980.536C1263.44 977.408 1263.43 977.016 1263.37 975.787C1263.31 974.562 1263.12 973.724 1262.84 972.993C1262.55 972.225 1262.09 971.529 1261.51 970.953C1260.93 970.367 1260.24 969.914 1259.47 969.625C1258.73 969.34 1257.9 969.145 1256.67 969.089C1255.44 969.035 1255.05 969.02 1251.92 969.02H1251.93ZM1250.89 971.096H1251.93C1255 971.096 1255.37 971.106 1256.58 971.162C1257.7 971.212 1258.31 971.401 1258.72 971.558C1259.26 971.767 1259.64 972.017 1260.04 972.42C1260.45 972.823 1260.69 973.206 1260.9 973.744C1261.06 974.149 1261.25 974.759 1261.3 975.882C1261.36 977.095 1261.37 977.46 1261.37 980.533C1261.37 983.606 1261.36 983.972 1261.3 985.185C1261.25 986.308 1261.06 986.917 1260.9 987.323C1260.72 987.823 1260.42 988.275 1260.04 988.645C1259.64 989.048 1259.26 989.298 1258.72 989.506C1258.31 989.665 1257.7 989.852 1256.58 989.904C1255.37 989.958 1255 989.971 1251.93 989.971C1248.85 989.971 1248.49 989.958 1247.27 989.904C1246.15 989.852 1245.54 989.665 1245.14 989.506C1244.64 989.322 1244.18 989.028 1243.81 988.645C1243.43 988.274 1243.13 987.822 1242.95 987.321C1242.79 986.917 1242.6 986.306 1242.55 985.184C1242.5 983.97 1242.49 983.606 1242.49 980.53C1242.49 977.455 1242.5 977.093 1242.55 975.879C1242.6 974.756 1242.79 974.146 1242.95 973.74C1243.16 973.203 1243.41 972.819 1243.81 972.416C1244.21 972.013 1244.6 971.764 1245.14 971.555C1245.54 971.397 1246.15 971.21 1247.27 971.158C1248.34 971.109 1248.75 971.094 1250.89 971.093L1250.89 971.096ZM1258.07 973.007C1257.31 973.007 1256.69 973.626 1256.69 974.389C1256.69 975.152 1257.31 975.771 1258.07 975.771C1258.84 975.771 1259.46 975.152 1259.46 974.389C1259.46 973.626 1258.84 973.007 1258.07 973.007ZM1251.93 974.622C1248.66 974.572 1245.97 977.178 1245.92 980.444C1245.87 983.71 1248.48 986.399 1251.74 986.45C1251.8 986.451 1251.87 986.451 1251.93 986.45C1255.19 986.399 1257.8 983.71 1257.75 980.444C1257.7 977.25 1255.12 974.672 1251.93 974.622ZM1251.93 976.697C1254.05 976.696 1255.77 978.414 1255.77 980.534C1255.77 982.654 1254.05 984.374 1251.93 984.375H1251.93C1249.81 984.375 1248.09 982.656 1248.09 980.536C1248.09 978.415 1249.81 976.697 1251.93 976.697Z" fill="white"/>
</g>
<g clip-path="url(#clip3_68_2401)">
<path d="M86.3207 87.8104L83.0806 104.803L99.2346 109.353L97.2274 91.2108L86.3207 87.8104Z" fill="#A0616A"/>
<path d="M279.402 208.837H112.804C93.9115 208.837 78.5962 224.136 78.5962 243.008V404.387C78.5962 423.26 93.9114 438.559 112.804 438.559H279.402C298.295 438.559 313.61 423.26 313.61 404.387V243.008C313.61 224.136 298.295 208.837 279.402 208.837Z" fill="white"/>
<path d="M279.402 439.368H112.804C93.4952 439.368 77.7861 423.676 77.7861 404.387V243.009C77.7861 223.72 93.4952 208.027 112.804 208.027H279.402C298.711 208.027 314.42 223.72 314.42 243.009V404.387C314.42 423.676 298.711 439.368 279.402 439.368ZM112.804 209.646C94.3882 209.646 79.4062 224.612 79.4062 243.009V404.387C79.4062 422.784 94.3883 437.75 112.804 437.75H279.402C297.818 437.75 312.8 422.784 312.8 404.387V243.009C312.8 224.612 297.818 209.646 279.402 209.646L112.804 209.646Z" fill="#3F3D56"/>
<path d="M291.47 278.8H224.507C221.666 278.8 219.355 276.492 219.355 273.654C219.355 270.817 221.666 268.509 224.507 268.509H291.47C294.31 268.509 296.621 270.817 296.621 273.654C296.621 276.492 294.31 278.8 291.47 278.8Z" fill="#B1B1B1"/>
<path d="M228.649 319.265H163.557C161.916 319.265 160.581 317.931 160.581 316.292C160.581 314.653 161.916 313.32 163.557 313.32H228.649C230.29 313.32 231.625 314.653 231.625 316.292C231.625 317.931 230.29 319.265 228.649 319.265Z" fill="#B1B1B1"/>
<path d="M136.649 219.888H99.4861C99.3474 219.888 99.2349 220.001 99.2349 220.139V224.461C99.2349 224.6 99.3474 224.712 99.4861 224.712H136.649C136.787 224.712 136.9 224.6 136.9 224.461V220.139C136.9 220.001 136.787 219.888 136.649 219.888Z" fill="#B1B1B1"/>
<path d="M261.824 224.712C263.957 224.712 265.687 222.984 265.687 220.853C265.687 218.722 263.957 216.994 261.824 216.994C259.69 216.994 257.96 218.722 257.96 220.853C257.96 222.984 259.69 224.712 261.824 224.712Z" fill="#3F3D56"/>
<path d="M272.447 224.712C274.581 224.712 276.31 222.984 276.31 220.853C276.31 218.722 274.581 216.994 272.447 216.994C270.314 216.994 268.584 218.722 268.584 220.853C268.584 222.984 270.314 224.712 272.447 224.712Z" fill="#3F3D56"/>
<path d="M283.07 224.712C285.204 224.712 286.933 222.984 286.933 220.853C286.933 218.722 285.204 216.994 283.07 216.994C280.937 216.994 279.207 218.722 279.207 220.853C279.207 222.984 280.937 224.712 283.07 224.712Z" fill="#3F3D56"/>
<path d="M112.398 335.18C112.398 335.714 112.828 336.143 113.362 336.143H278.844C279.379 336.143 279.808 335.714 279.808 335.18C279.808 334.646 279.379 334.217 278.844 334.217H113.362C112.828 334.217 112.398 334.646 112.398 335.18Z" fill="#3F3D56"/>
<path d="M162.867 97.6608C166.39 94.7529 170.748 94.2116 172.6 96.4516C174.452 98.6916 173.097 102.864 169.573 105.773C168.181 106.954 166.526 107.785 164.747 108.196L149.664 120.329L144.115 113.137L159.573 101.94C160.313 100.271 161.443 98.8038 162.867 97.6608Z" fill="#A0616A"/>
<path d="M75.6911 125.036C75.6834 124.499 75.6885 119.819 79.1571 116.861C83.1416 113.462 88.7639 114.838 90.7359 115.32C95.2912 116.435 95.6648 118.387 99.9427 120.392C107.946 124.145 97.9181 122.224 102.68 121.021C104.329 120.604 128.044 118.961 133.948 115.332C145.429 108.273 153.251 103.992 153.251 103.992L158.365 114.21C158.365 114.21 150.971 124.481 140.563 132.09C129.887 139.896 124.55 143.798 116.438 145.306C115.739 145.436 98.5583 148.367 84.7206 138.039C81.5643 135.683 75.7812 131.367 75.6911 125.036Z" fill="#E6E6E6"/>
<path d="M91.5545 99.0512C101.393 99.0512 109.369 91.0836 109.369 81.255C109.369 71.4264 101.393 63.4588 91.5545 63.4588C81.7157 63.4588 73.7397 71.4264 73.7397 81.255C73.7397 91.0836 81.7157 99.0512 91.5545 99.0512Z" fill="#A0616A"/>
<path d="M231.073 200.817L212.727 182.056L203.256 191.925L216.925 209.913L230.483 211.462L231.073 200.817Z" fill="#A0616A"/>
<path d="M126.313 165.637C127.386 165.726 130.796 166.408 134.055 164.617C136.28 163.394 137.421 161.576 137.806 160.998C142.586 153.826 160.934 142.642 177.401 141.954C181.13 141.798 183.585 142.23 185.816 143.391C188.979 145.039 190.242 147.398 194.256 152.926C196.452 155.95 198.882 158.798 201.104 161.803C214.115 179.391 219.047 180.772 218.543 186.411C217.984 192.667 211.229 198.603 206.74 197.918C204.902 197.637 204.19 196.36 201.733 193.775C194.531 186.194 191.551 187.595 186.424 181.789C180.437 175.01 181.221 169.39 178.098 169.173C175.201 168.971 173.97 173.766 167.787 180.136C164.957 183.05 162.942 184.387 156.804 188.641C132.899 205.208 132.518 206.372 127.693 207.693C125.583 208.271 110.602 212.374 105.266 205.845C96.9146 195.628 116.643 164.834 126.313 165.637Z" fill="#333333"/>
<path d="M225.464 205.056C226.813 204.451 228.391 203.743 228.899 202.116C229.242 201.015 229.045 199.657 228.335 198.718C227.515 197.636 226.303 197.493 226.352 197.302C226.427 197.01 229.294 197.124 232.441 198.235C233.035 198.445 235.726 199.427 239.148 202.096C241.891 204.235 241.522 204.664 243.241 205.897C248.52 209.682 253.47 206.699 256.327 210.249C257.429 211.619 257.899 213.564 257.435 215.137C256.504 218.295 251.973 219.382 249.497 219.943C243.534 221.295 239.021 220.191 234.308 219.398C218.28 216.7 209.275 219.157 208.069 215.448C207.841 214.746 208.212 214.806 209.448 209.654C210.667 204.569 210.627 203.173 211.666 202.766C213.23 202.153 214.28 204.941 218.219 205.895C221.71 206.74 224.59 205.448 225.464 205.056Z" fill="#333333"/>
<path d="M198.456 262.189L193.82 236.374L180.436 239.228L181.635 261.78L191.983 270.667L198.456 262.189Z" fill="#A0616A"/>
<path d="M131.547 174.314C132.385 174.99 134.823 177.467 138.527 177.813C141.055 178.049 143.021 177.185 143.664 176.923C151.651 173.67 173.12 174.708 187.133 183.376C190.306 185.339 192.094 187.073 193.287 189.285C194.979 192.423 194.697 195.084 194.912 201.91C195.029 205.643 195.438 209.363 195.589 213.096C196.467 234.948 199.772 238.857 196.185 243.24C192.206 248.103 183.28 249.226 179.951 246.141C178.587 244.877 178.716 243.421 178.137 239.904C176.438 229.592 173.186 229.079 172.206 221.399C171.063 212.431 174.871 208.22 172.409 206.289C170.125 204.497 166.411 207.774 157.714 209.576C153.735 210.401 151.316 210.377 143.845 210.453C114.753 210.752 113.783 211.501 109.048 209.888C106.977 209.183 92.2749 204.174 91.5294 195.778C90.3627 182.639 123.997 168.226 131.547 174.314Z" fill="#333333"/>
<path d="M191.431 262.551C192.888 262.807 194.591 263.106 195.926 262.045C196.829 261.326 197.429 260.092 197.369 258.917C197.3 257.562 196.377 256.763 196.525 256.632C196.751 256.433 199.059 258.136 201.039 260.821C201.412 261.327 203.086 263.649 204.418 267.778C205.485 271.086 204.939 271.234 205.668 273.219C207.908 279.312 213.682 279.62 214.05 284.16C214.192 285.912 213.487 287.785 212.219 288.826C209.673 290.917 205.313 289.275 202.949 288.351C197.255 286.124 194.141 282.679 190.687 279.379C178.941 268.156 170.109 265.137 171.196 261.392C171.402 260.683 171.675 260.94 175.594 257.371C179.461 253.848 180.213 252.67 181.302 252.916C182.94 253.286 182.242 256.181 184.965 259.181C187.378 261.838 190.487 262.385 191.431 262.551Z" fill="#333333"/>
<path d="M93.9833 84.6571C94.6768 82.1788 93.8057 81.2757 94.6936 80.1632C94.6936 80.1632 95.0509 79.7156 98.2451 78.5076C97.3026 73.0452 98.0083 72.1216 98.0083 72.1216C98.8215 71.0571 100.451 70.7997 101.56 70.939C103.905 71.2335 104.321 73.3517 105.822 73.3042C107.895 73.2385 110.382 69.0925 109.61 65.499C108.98 62.5678 106.265 60.3909 105.585 60.7686C104.91 61.1432 102.481 59.4917 101.56 59.8226C100.931 60.0485 97.9695 59.7479 97.298 60.0591C96.5647 60.3989 94.4648 62.5148 94.264 62.2482C92.8689 60.3956 92.8986 59.7488 92.0891 59.3495C90.6548 58.642 89.0955 59.9497 86.4067 61.2417C80.8745 63.8999 79.2546 62.3142 76.6993 64.553C75.4085 65.6838 74.7163 67.8451 73.3846 72.1216C71.5222 78.1021 70.591 81.0924 71.4904 83.9476C72.4077 86.8593 73.7585 86.2256 75.7522 90.3336C77.9716 94.9065 77.2067 97.5645 79.3037 98.6118C80.9245 99.4212 83.5292 98.906 84.5126 97.4292C86.1963 94.9007 81.8444 91.4802 83.3288 87.4954C84.2399 85.0493 87.0507 83.1946 88.7744 83.711C90.7234 84.295 90.8669 87.7859 92.0891 87.7319C93.1358 87.6856 93.8624 85.089 93.9833 84.6571Z" fill="#333333"/>
<path d="M80.4878 101.687C84.1333 97.6033 98.9824 101.83 100.376 108.309C100.949 110.974 98.8331 112.1 99.4291 115.168C100.301 119.656 105.236 119.351 108.9 123.919C114.101 130.406 108.743 136.747 114.582 147.571C115.83 149.884 116.882 151.834 119.081 153.721C124.127 158.051 128.823 156.566 131.393 160.58C133.314 163.582 132.525 167.282 132.34 168.149C131.581 171.703 129.526 172.569 128.078 175.481C125.668 180.326 128.396 183.883 128.551 189.672C128.745 196.915 124.892 206.955 117.187 210.249C108.53 213.95 98.0888 207.82 93.0364 201.734C90.0216 198.103 89.1464 194.753 87.8275 190.618C81.9329 172.138 78.6028 173.81 74.095 159.161C68.9419 142.415 67.9288 122.795 74.095 116.587C74.9124 115.764 77.1616 113.862 78.5936 110.438C80.5206 105.829 78.8559 103.514 80.4878 101.687Z" fill="#E6E6E6"/>
<path d="M134.354 196.739C137.181 200.327 137.619 204.691 135.333 206.488C133.047 208.284 128.904 206.832 126.077 203.243C124.928 201.825 124.136 200.153 123.766 198.366L111.983 183.015L118.072 178.375L130.15 193.348C131.803 194.127 133.244 195.29 134.354 196.739Z" fill="#A0616A"/>
<path d="M91.1989 117.248C91.7232 117.131 96.3109 116.181 99.9177 118.97C104.061 122.173 103.86 127.952 103.79 129.979C103.627 134.661 101.79 135.425 100.698 140.017C98.6534 148.61 102.547 156.595 104.698 161.007C105.442 162.534 107.834 167.207 112.596 172.24C121.856 182.027 130.118 187.177 130.118 187.177L121.242 195.059C121.242 195.059 107.103 190.754 97.5225 182.129C87.695 173.281 72.5821 141.977 69.4492 134.352C69.1794 133.695 73.0011 144.372 80.2983 128.732C81.9628 125.164 85.0124 118.628 91.1989 117.248Z" fill="#E6E6E6"/>
<path d="M212.905 357.223C207.263 358.087 203.136 361.696 203.687 365.282C204.237 368.869 209.257 371.075 214.901 370.21C217.16 369.896 219.311 369.045 221.174 367.73L245.033 363.768L243.441 354.347L219.635 357.712C217.463 357.015 215.155 356.847 212.905 357.223Z" fill="#FFB6B6"/>
<path d="M315.718 327.857L306.466 347.468L259.959 363.107L221.367 365.164L220.4 355.904L262.225 347.168L305.143 326.909L315.718 327.857Z" fill="#E6E6E6"/>
<path d="M229.94 402.319L221.634 423.306L210.886 415.985L217.237 394.022L229.94 402.319Z" fill="#FFB6B6"/>
<path d="M195.251 394.51L173.265 415.497L182.06 424.77L204.534 407.2L195.251 394.51Z" fill="#FFB6B6"/>
<path d="M319.838 326.18L319.594 324.472L313.975 313.491L295.409 318.371L298.829 333.501L319.838 326.18Z" fill="#FFB6B6"/>
<path d="M312.021 399.391L312.592 406.721C312.592 406.721 314.953 437.46 295.898 439.9C276.844 442.341 268.538 444.781 257.301 425.746L239.712 394.51L229.438 406.721L215.771 395.974C215.771 395.974 225.543 357.905 233.36 356.441C234.337 356.258 235.315 356.166 236.276 356.146C242.748 356.011 248.849 359.174 252.721 364.355L274.889 394.022L282.951 390.361L312.021 399.391Z" fill="#333333"/>
<path d="M206.488 422.33L210.886 414.033L223.589 422.818C223.589 422.818 226.52 433.555 222.123 435.02C217.726 436.484 205.511 434.532 205.511 434.532C205.511 434.532 183.037 439.412 182.548 435.02C182.06 430.627 192.808 429.651 192.808 429.651L206.488 422.33Z" fill="#333333"/>
<path d="M254.369 416.473L220.413 395.1L203.068 410.616L191.343 396.95C191.343 396.95 212.84 365.226 219.191 363.762C225.543 362.297 235.803 361.321 235.803 361.321L267.072 390.117L254.369 416.473Z" fill="#333333"/>
<path d="M172.777 413.545L184.014 425.746L182.532 427.013C182.532 427.013 179.617 439.697 172.777 435.406C165.937 431.115 165.448 430.139 165.448 430.139C165.448 430.139 145.905 434.531 143.951 426.722C141.996 418.913 147.371 420.377 147.371 420.377L152.251 423.306L172.777 413.545Z" fill="#333333"/>
<path d="M301.272 323.74C309.907 323.74 316.907 316.748 316.907 308.122C316.907 299.496 309.907 292.504 301.272 292.504C292.638 292.504 285.638 299.496 285.638 308.122C285.638 316.748 292.638 323.74 301.272 323.74Z" fill="#FFB6B6"/>
<path d="M297.608 330.329L320.083 323.496C320.083 323.496 328.877 343.995 327.411 353.268C325.946 362.541 312.592 406.721 312.592 406.721L282.951 390.361C282.951 390.361 282.462 380.6 280.996 376.207C279.531 371.815 274.889 358.393 285.149 347.167C295.409 335.942 297.608 330.329 297.608 330.329Z" fill="#E6E6E6"/>
<path d="M248.143 432.814C244.486 437.192 243.782 442.625 246.571 444.95C249.36 447.275 254.585 445.61 258.243 441.231C259.729 439.502 260.778 437.442 261.303 435.225L276.566 416.482L269.131 410.472L253.513 428.731C251.422 429.644 249.581 431.044 248.143 432.814Z" fill="#FFB6B6"/>
<path d="M314.847 340.176L320.159 361.196L294.16 402.771L267.618 429.418L259.015 422.288L285.783 389.017L306.073 346.149L314.847 340.176Z" fill="#E6E6E6"/>
<path d="M286.86 305.438C290.869 305.428 291.097 305.455 291.745 305.438C296.718 305.307 298.019 303.352 300.54 303.485C305.039 303.723 299.101 326.257 296.631 336.674C294.209 346.891 302.394 356.046 302.983 356.685C311.291 365.711 325.884 367.362 328.389 363.518C330.415 360.406 323.232 355.676 324.968 348.876C326.666 342.228 334.503 342.936 336.694 336.674C338.989 330.116 331.278 326.808 326.434 310.806C323.652 301.616 324.144 299.904 321.548 294.212C314.61 278.998 280.598 285.476 284.417 299.581C285.155 302.309 283.19 305.446 286.86 305.438Z" fill="#333333"/>
<path d="M336.784 120.03H172.468C167.821 120.03 164.041 116.253 164.041 111.612V24.4184C164.041 19.7767 167.821 16 172.468 16H336.784C341.431 16 345.211 19.7767 345.211 24.4184V111.612C345.211 116.253 341.431 120.03 336.784 120.03Z" fill="white"/>
<path d="M336.784 120.03H172.468C167.821 120.03 164.041 116.253 164.041 111.612V24.4184C164.041 19.7767 167.821 16 172.468 16H336.784C341.431 16 345.211 19.7767 345.211 24.4184V111.612C345.211 116.253 341.431 120.03 336.784 120.03ZM172.468 17.4058C168.598 17.4058 165.448 20.5517 165.448 24.4184V111.612C165.448 115.478 168.598 118.624 172.468 118.624H336.784C340.655 118.624 343.804 115.478 343.804 111.612V24.4184C343.804 20.5517 340.655 17.4058 336.784 17.4058H172.468Z" fill="#3F3D56"/>
<path d="M324.102 26.5436C325.268 26.5436 326.213 25.5995 326.213 24.4349C326.213 23.2703 325.268 22.3262 324.102 22.3262C322.936 22.3262 321.991 23.2703 321.991 24.4349C321.991 25.5995 322.936 26.5436 324.102 26.5436Z" fill="#3F3D56"/>
<path d="M329.731 26.5436C330.897 26.5436 331.842 25.5995 331.842 24.4349C331.842 23.2703 330.897 22.3262 329.731 22.3262C328.565 22.3262 327.62 23.2703 327.62 24.4349C327.62 25.5995 328.565 26.5436 329.731 26.5436Z" fill="#3F3D56"/>
<path d="M335.36 26.5436C336.526 26.5436 337.471 25.5995 337.471 24.4349C337.471 23.2703 336.526 22.3262 335.36 22.3262C334.194 22.3262 333.249 23.2703 333.249 24.4349C333.249 25.5995 334.194 26.5436 335.36 26.5436Z" fill="#3F3D56"/>
<path d="M176.003 58.5258C175.421 58.5258 174.948 58.9987 174.948 59.5801C174.948 59.8636 175.057 60.1258 175.256 60.3194C175.457 60.5246 175.719 60.6345 176.003 60.6345H333.953C334.535 60.6345 335.008 60.1615 335.008 59.5801C335.008 59.2966 334.899 59.0344 334.7 58.8408C334.499 58.6356 334.236 58.5258 333.953 58.5258H176.003Z" fill="#E6E6E6"/>
<path d="M314.251 58.1743V60.9859H176.003C175.616 60.9859 175.264 60.8313 175.011 60.5712C174.75 60.3182 174.596 59.9667 174.596 59.5801C174.596 58.8069 175.229 58.1743 176.003 58.1743H314.251Z" fill="#B1B1B1"/>
<path d="M332.194 52.9025H318.121C316.569 52.9025 315.306 51.6416 315.306 50.0909C315.306 48.5403 316.569 47.2793 318.121 47.2793H332.194C333.746 47.2793 335.008 48.5403 335.008 50.0909C335.008 51.6416 333.746 52.9025 332.194 52.9025Z" fill="#E6E6E6"/>
<path d="M240.017 38.1415H177.058C175.507 38.1415 174.244 36.8805 174.244 35.3299C174.244 33.7792 175.507 32.5182 177.058 32.5182H240.017C241.569 32.5182 242.832 33.7792 242.832 35.3299C242.832 36.8805 241.569 38.1415 240.017 38.1415Z" fill="#E6E6E6"/>
<path d="M176.003 90.1565C175.421 90.1565 174.948 90.6294 174.948 91.2108C174.948 91.4943 175.057 91.7566 175.256 91.9501C175.457 92.1554 175.719 92.2652 176.003 92.2652H333.953C334.535 92.2652 335.008 91.7922 335.008 91.2108C335.008 90.9273 334.899 90.6651 334.7 90.4716C334.499 90.2663 334.236 90.1565 333.953 90.1565H176.003Z" fill="#E6E6E6"/>
<path d="M260.071 89.805V92.6166H176.003C175.616 92.6166 175.264 92.462 175.011 92.2019C174.75 91.9489 174.596 91.5974 174.596 91.2108C174.596 90.4376 175.229 89.805 176.003 89.805H260.071Z" fill="#B1B1B1"/>
<path d="M332.194 84.5332H318.121C316.569 84.5332 315.306 83.2722 315.306 81.7216C315.306 80.1709 316.569 78.91 318.121 78.91H332.194C333.746 78.91 335.008 80.1709 335.008 81.7216C335.008 83.2722 333.746 84.5332 332.194 84.5332Z" fill="#E6E6E6"/>
</g>
<defs>
<linearGradient id="paint0_linear_68_2401" x1="1394.85" y1="312.793" x2="1330.58" y2="164.544" gradientUnits="userSpaceOnUse">
<stop stop-color="#808080" stop-opacity="0.25"/>
<stop offset="0.54" stop-color="#808080" stop-opacity="0.12"/>
<stop offset="1" stop-color="#808080" stop-opacity="0.1"/>
</linearGradient>
<linearGradient id="paint1_linear_68_2401" x1="1185.52" y1="442.653" x2="1110.51" y2="269.594" gradientUnits="userSpaceOnUse">
<stop stop-color="#808080" stop-opacity="0.25"/>
<stop offset="0.54" stop-color="#808080" stop-opacity="0.12"/>
<stop offset="1" stop-color="#808080" stop-opacity="0.1"/>
</linearGradient>
<clipPath id="clip0_68_2401">
<rect width="489.69" height="348.337" fill="white" transform="translate(927 194.763) rotate(-23.4362)"/>
</clipPath>
<clipPath id="clip1_68_2401">
<rect width="498" height="410" fill="white" transform="translate(-40 626)"/>
</clipPath>
<clipPath id="clip2_68_2401">
<rect width="478.67" height="383.237" fill="white" transform="translate(1127 710)"/>
</clipPath>
<clipPath id="clip3_68_2401">
<rect width="425" height="430" fill="white" transform="translate(-9 16)"/>
</clipPath>
</defs>
</svg>
