<svg width="24" height="24" viewBox="0 0 24 24" fill="none" xmlns="http://www.w3.org/2000/svg">
<path fill-rule="evenodd" clip-rule="evenodd" d="M5.84032 9.85601C7.63107 13.7544 10.8128 16.8438 14.7623 18.519L14.7743 18.524L15.5383 18.864C16.0102 19.0744 16.5402 19.1161 17.0391 18.9818C17.5381 18.8476 17.9757 18.5458 18.2783 18.127L19.5523 16.364C19.5898 16.3121 19.6059 16.2478 19.5973 16.1843C19.5888 16.1209 19.5562 16.0631 19.5063 16.023L17.2823 14.228C17.2561 14.2068 17.2258 14.1912 17.1934 14.182C17.1609 14.1729 17.127 14.1703 17.0935 14.1746C17.0601 14.1789 17.0278 14.19 16.9988 14.207C16.9697 14.2241 16.9444 14.2469 16.9243 14.274L16.0583 15.442C15.9563 15.5798 15.8101 15.6785 15.6442 15.7216C15.4782 15.7647 15.3025 15.7497 15.1463 15.679C12.1874 14.3386 9.81676 11.968 8.47632 9.00901C8.40563 8.8528 8.39059 8.67709 8.43371 8.51114C8.47684 8.34519 8.57552 8.19903 8.71332 8.09701L9.88032 7.23001C9.90744 7.20996 9.93022 7.18464 9.9473 7.15557C9.96437 7.12649 9.97539 7.09426 9.97969 7.06082C9.98399 7.02737 9.98147 6.99341 9.9723 6.96096C9.96313 6.92851 9.94749 6.89825 9.92632 6.87201L8.13232 4.64801C8.09218 4.59814 8.03444 4.56557 7.97099 4.55701C7.90755 4.54845 7.84324 4.56456 7.79132 4.60201L6.01832 5.88201C5.59672 6.18611 5.29342 6.62682 5.15998 7.12924C5.02654 7.63166 5.07118 8.16478 5.28632 8.63801L5.84032 9.85501V9.85601ZM14.1703 19.897C9.87942 18.075 6.42292 14.7173 4.47732 10.481L4.47532 10.479L3.92132 9.25901C3.56274 8.47044 3.48823 7.58205 3.71045 6.74477C3.93266 5.9075 4.4379 5.17298 5.14032 4.66601L6.91332 3.38601C7.27645 3.12393 7.72623 3.01103 8.17008 3.07056C8.61394 3.13009 9.01808 3.35751 9.29932 3.70601L11.0943 5.93101C11.2425 6.11458 11.3519 6.3262 11.4162 6.55316C11.4805 6.78013 11.4982 7.01774 11.4683 7.25172C11.4384 7.4857 11.3615 7.71123 11.2423 7.91475C11.123 8.11826 10.9638 8.29557 10.7743 8.43601L10.1043 8.93201C11.2371 11.1283 13.026 12.9172 15.2223 14.05L15.7193 13.38C15.8598 13.1906 16.037 13.0316 16.2404 12.9124C16.4439 12.7933 16.6693 12.7164 16.9031 12.6865C17.137 12.6566 17.3745 12.6743 17.6014 12.7385C17.8282 12.8027 18.0398 12.912 18.2233 13.06L20.4483 14.855C20.7971 15.1363 21.0247 15.5406 21.0842 15.9847C21.1438 16.4288 21.0307 16.8788 20.7683 17.242L19.4943 19.006C18.99 19.7039 18.2609 20.2071 17.4294 20.4309C16.598 20.6547 15.7148 20.5855 14.9283 20.235L14.1703 19.897Z" fill="black"/>
</svg>
