<svg width="70" height="70" viewBox="0 0 70 70" fill="none" xmlns="http://www.w3.org/2000/svg">
<g clip-path="url(#clip0_56_978)">
<path d="M1.48209 34.5811C1.48047 40.4624 3.01721 46.2051 5.9393 51.2668L1.20264 68.5612L18.9012 63.9206C23.7964 66.5855 29.2812 67.9818 34.8547 67.9822H34.8694C53.2688 67.9822 68.2464 53.0101 68.2542 34.6074C68.2578 25.69 64.7881 17.3046 58.4843 10.9959C52.1816 4.68781 43.7993 1.21196 34.868 1.20789C16.4664 1.20789 1.48996 16.1792 1.48237 34.5811" fill="url(#paint0_linear_56_978)"/>
<path d="M0.29031 34.5702C0.288411 40.6632 1.88023 46.6113 4.90651 51.8543L0 69.7686L18.3332 64.9616C23.3846 67.7158 29.072 69.1679 34.8592 69.17H34.8741C53.9336 69.17 69.4492 53.6593 69.4574 34.5979C69.4606 25.3601 65.8662 16.6733 59.3372 10.1386C52.8074 3.60473 44.1252 0.00379845 34.8741 0C15.8113 0 0.297907 15.5085 0.29031 34.5702ZM11.2081 50.9513L10.5236 49.8647C7.64601 45.2892 6.12717 40.0017 6.12934 34.5724C6.13558 18.7288 19.0297 5.83876 34.885 5.83876C42.5633 5.84202 49.7792 8.83519 55.2067 14.2659C60.6338 19.6971 63.6202 26.9169 63.6183 34.5957C63.6113 50.4393 50.7169 63.331 34.8741 63.331H34.8627C29.7041 63.3283 24.6449 61.9429 20.2327 59.325L19.1827 58.7023L8.30341 61.5547L11.2081 50.951V50.9513Z" fill="url(#paint1_linear_56_978)"/>
<path d="M26.2306 20.1177C25.5832 18.6789 24.9019 18.6498 24.2863 18.6246C23.7822 18.6029 23.2059 18.6045 22.6302 18.6045C22.0539 18.6045 21.1176 18.8213 20.3262 19.6855C19.5339 20.5504 17.3015 22.6406 17.3015 26.8919C17.3015 31.1435 20.3981 35.252 20.8297 35.8291C21.2619 36.4051 26.8077 45.4086 35.5908 48.8722C42.8903 51.7506 44.3758 51.1781 45.96 51.0338C47.5445 50.89 51.0727 48.9441 51.7925 46.9263C52.5129 44.9088 52.5129 43.1794 52.2969 42.818C52.0809 42.458 51.5047 42.2417 50.6405 41.8098C49.7761 41.3776 45.5278 39.2871 44.7358 38.9987C43.9436 38.7105 43.3676 38.5667 42.7913 39.432C42.215 40.2958 40.5602 42.2417 40.0559 42.818C39.552 43.3956 39.0476 43.4675 38.1838 43.0353C37.3191 42.6018 34.5362 41.6904 31.2345 38.7469C28.6657 36.4564 26.9314 33.6279 26.4273 32.7627C25.9232 31.8988 26.3733 31.4305 26.8066 30.9999C27.1948 30.6128 27.671 29.9909 28.1035 29.4865C28.5343 28.9819 28.6781 28.6218 28.9663 28.0456C29.2547 27.4687 29.1104 26.9641 28.8947 26.5319C28.6781 26.0997 26.999 21.8261 26.2306 20.1177Z" fill="white"/>
</g>
<defs>
<linearGradient id="paint0_linear_56_978" x1="3353.78" y1="6736.54" x2="3353.78" y2="1.20789" gradientUnits="userSpaceOnUse">
<stop stop-color="#1FAF38"/>
<stop offset="1" stop-color="#60D669"/>
</linearGradient>
<linearGradient id="paint1_linear_56_978" x1="3472.87" y1="6976.86" x2="3472.87" y2="0" gradientUnits="userSpaceOnUse">
<stop stop-color="#F9F9F9"/>
<stop offset="1" stop-color="white"/>
</linearGradient>
<clipPath id="clip0_56_978">
<rect width="69.4574" height="70" fill="white"/>
</clipPath>
</defs>
</svg>
