<svg width="471" height="302" viewBox="0 0 471 302" fill="none" xmlns="http://www.w3.org/2000/svg">
<g clip-path="url(#clip0_333_2515)">
<path d="M440.263 266.837H321.245C316.915 266.832 312.764 265.111 309.702 262.05C306.64 258.99 304.918 254.84 304.913 250.512V62.854C304.918 58.5257 306.64 54.3761 309.702 51.3155C312.764 48.255 316.915 46.5334 321.245 46.5286H440.263C444.594 46.5334 448.745 48.255 451.807 51.3155C454.869 54.3761 456.591 58.5257 456.596 62.854V250.512C456.591 254.84 454.869 258.99 451.807 262.05C448.745 265.111 444.593 266.832 440.263 266.837Z" fill="#E6E6E6"/>
<path d="M442.237 56.27H321.021C319.665 56.2717 318.366 56.8107 317.408 57.7687C316.449 58.7268 315.91 60.0257 315.908 61.3806V251.485C315.91 252.84 316.45 254.139 317.408 255.097C318.366 256.055 319.666 256.594 321.021 256.596H442.237C443.593 256.594 444.892 256.055 445.851 255.097C446.809 254.139 447.348 252.84 447.35 251.485V61.3806C447.348 60.0257 446.809 58.7268 445.851 57.7687C444.892 56.8107 443.593 56.2717 442.237 56.27Z" fill="white"/>
<path d="M324.154 46.5287C324.155 46.1976 324.286 45.8802 324.521 45.646C324.755 45.4119 325.073 45.2802 325.404 45.2798H333.9C334.231 45.2798 334.549 45.4114 334.783 45.6456C335.018 45.8798 335.149 46.1975 335.149 46.5287C335.149 46.8599 335.018 47.1776 334.783 47.4118C334.549 47.646 334.231 47.7776 333.9 47.7776H325.404C325.072 47.7772 324.755 47.6455 324.521 47.4114C324.286 47.1772 324.155 46.8598 324.154 46.5287Z" fill="#E6E6E6"/>
<path d="M338.148 46.5287C338.149 46.1976 338.281 45.8802 338.515 45.646C338.749 45.4119 339.067 45.2802 339.398 45.2798H347.894C348.225 45.2798 348.543 45.4114 348.778 45.6456C349.012 45.8798 349.144 46.1975 349.144 46.5287C349.144 46.8599 349.012 47.1776 348.778 47.4118C348.543 47.646 348.225 47.7776 347.894 47.7776H339.398C339.067 47.7772 338.749 47.6455 338.515 47.4114C338.281 47.1773 338.149 46.8598 338.148 46.5287Z" fill="#E6E6E6"/>
<path d="M422.111 46.5287C422.112 46.1976 422.243 45.8802 422.478 45.646C422.712 45.4119 423.03 45.2802 423.361 45.2798H431.857C432.188 45.2798 432.506 45.4114 432.741 45.6456C432.975 45.8798 433.106 46.1975 433.106 46.5287C433.106 46.8599 432.975 47.1776 432.741 47.4118C432.506 47.646 432.188 47.7776 431.857 47.7776H423.361C423.03 47.7772 422.712 47.6455 422.478 47.4114C422.243 47.1773 422.112 46.8598 422.111 46.5287Z" fill="#E6E6E6"/>
<path d="M398.427 252.679C398.427 253.993 398.402 255.302 398.342 256.596H321.021C319.666 256.594 318.366 256.055 317.408 255.097C316.45 254.139 315.91 252.84 315.908 251.485V155.799C338.934 159.517 359.883 171.308 375.003 189.06C390.123 206.812 398.427 229.365 398.427 252.679Z" fill="#F2F2F2"/>
<path d="M395.8 105.123H366.964C365.652 105.123 364.588 106.187 364.588 107.498V110.462C364.588 111.774 365.652 112.837 366.964 112.837H395.8C397.113 112.837 398.176 111.774 398.176 110.462V107.498C398.176 106.187 397.113 105.123 395.8 105.123Z" fill="#A84AC9"/>
<path d="M414.128 120.551H348.637C347.325 120.551 346.261 121.614 346.261 122.926V125.889C346.261 127.201 347.325 128.264 348.637 128.264H414.128C415.441 128.264 416.504 127.201 416.504 125.889V122.926C416.504 121.614 415.441 120.551 414.128 120.551Z" fill="#E6E6E6"/>
<path d="M414.128 135.978H348.637C347.325 135.978 346.261 137.041 346.261 138.353V141.316C346.261 142.628 347.325 143.691 348.637 143.691H414.128C415.441 143.691 416.504 142.628 416.504 141.316V138.353C416.504 137.041 415.441 135.978 414.128 135.978Z" fill="#E6E6E6"/>
<path d="M436.178 73.0538H327.08C326.843 73.0486 326.619 72.9512 326.454 72.7826C326.289 72.6139 326.196 72.3873 326.196 72.1513C326.196 71.9153 326.289 71.6887 326.454 71.52C326.619 71.3513 326.843 71.254 327.08 71.2488H436.178C436.414 71.254 436.638 71.3513 436.803 71.52C436.968 71.6887 437.061 71.9153 437.061 72.1513C437.061 72.3873 436.968 72.6139 436.803 72.7826C436.638 72.9512 436.414 73.0486 436.178 73.0538Z" fill="#CACACA"/>
<path d="M332.901 68.639C334.366 68.639 335.555 67.4249 335.555 65.9273C335.555 64.4297 334.366 63.2156 332.901 63.2156C331.435 63.2156 330.247 64.4297 330.247 65.9273C330.247 67.4249 331.435 68.639 332.901 68.639Z" fill="#3F3D56"/>
<path d="M342.068 68.639C343.533 68.639 344.722 67.4249 344.722 65.9273C344.722 64.4297 343.533 63.2156 342.068 63.2156C340.602 63.2156 339.414 64.4297 339.414 65.9273C339.414 67.4249 340.602 68.639 342.068 68.639Z" fill="#3F3D56"/>
<path d="M351.236 68.639C352.701 68.639 353.889 67.4249 353.889 65.9273C353.889 64.4297 352.701 63.2156 351.236 63.2156C349.77 63.2156 348.582 64.4297 348.582 65.9273C348.582 67.4249 349.77 68.639 351.236 68.639Z" fill="#3F3D56"/>
<path d="M431.914 64.2632H425.975C425.857 64.2655 425.745 64.3139 425.663 64.3979C425.58 64.482 425.534 64.595 425.534 64.7127C425.534 64.8304 425.58 64.9434 425.663 65.0274C425.745 65.1114 425.857 65.1598 425.975 65.1621H431.914C432.031 65.1598 432.144 65.1114 432.226 65.0274C432.308 64.9434 432.355 64.8304 432.355 64.7127C432.355 64.595 432.308 64.482 432.226 64.3979C432.144 64.3139 432.031 64.2655 431.914 64.2632Z" fill="#3F3D56"/>
<path d="M431.914 65.9504H425.975C425.857 65.9528 425.745 66.0011 425.663 66.0852C425.58 66.1692 425.534 66.2822 425.534 66.3999C425.534 66.5176 425.58 66.6306 425.663 66.7147C425.745 66.7987 425.857 66.8471 425.975 66.8494H431.914C432.031 66.8471 432.144 66.7987 432.226 66.7147C432.308 66.6306 432.355 66.5176 432.355 66.3999C432.355 66.2822 432.308 66.1692 432.226 66.0852C432.144 66.0011 432.031 65.9528 431.914 65.9504Z" fill="#3F3D56"/>
<path d="M431.914 67.6353H425.975C425.857 67.6376 425.745 67.6859 425.663 67.77C425.58 67.854 425.534 67.967 425.534 68.0847C425.534 68.2024 425.58 68.3154 425.663 68.3995C425.745 68.4835 425.857 68.5319 425.975 68.5342H431.914C432.031 68.5319 432.144 68.4835 432.226 68.3995C432.308 68.3154 432.355 68.2024 432.355 68.0847C432.355 67.967 432.308 67.854 432.226 67.77C432.144 67.6859 432.031 67.6376 431.914 67.6353Z" fill="#3F3D56"/>
<path d="M254.902 155.87H191.65C190.755 155.871 189.898 156.228 189.266 156.861C188.634 157.495 188.279 158.353 188.28 159.247V259.125H258.281V159.247C258.281 158.804 258.194 158.364 258.024 157.955C257.854 157.545 257.605 157.172 257.292 156.859C256.978 156.545 256.605 156.296 256.195 156.127C255.785 155.957 255.346 155.87 254.902 155.87ZM223.489 212.619C221.511 212.61 219.616 211.82 218.218 210.422C216.819 209.024 216.029 207.131 216.02 205.153V193.633C216.022 191.654 216.809 189.757 218.21 188.358C219.61 186.96 221.509 186.174 223.489 186.174C225.469 186.174 227.368 186.96 228.768 188.358C230.169 189.757 230.956 191.654 230.958 193.633V205.153C230.949 207.131 230.159 209.024 228.76 210.422C227.361 211.821 225.467 212.61 223.489 212.619Z" fill="#E6E6E6"/>
<path d="M188.063 255.93V265.566C188.065 266.065 188.263 266.544 188.617 266.897C188.97 267.25 189.449 267.449 189.948 267.45H256.614C257.113 267.447 257.59 267.248 257.943 266.895C258.296 266.542 258.496 266.065 258.498 265.566V255.93L188.063 255.93Z" fill="#CCCCCC"/>
<path d="M359.643 0H89.2641C86.9411 0.00369402 84.7143 0.927735 83.0717 2.56962C81.4291 4.21151 80.5047 6.43734 80.501 8.75932V191.134C80.5032 193.457 81.4272 195.684 83.0701 197.326C84.713 198.968 86.9406 199.891 89.2641 199.894H359.643C361.966 199.891 364.194 198.968 365.837 197.326C367.48 195.684 368.403 193.457 368.406 191.134V8.75932C368.402 6.43734 367.478 4.21152 365.835 2.56962C364.192 0.927734 361.966 0.00369258 359.643 0Z" fill="#E6E6E6"/>
<path d="M357.386 6.32666H91.5234C90.2796 6.32936 89.0877 6.82511 88.2091 7.70514C87.3305 8.58518 86.837 9.77763 86.8369 11.0209V188.876C86.8391 190.117 87.3335 191.308 88.2119 192.186C89.0903 193.064 90.2811 193.558 91.5234 193.56H357.386C358.628 193.558 359.819 193.064 360.698 192.186C361.576 191.308 362.07 190.117 362.073 188.876V11.0209C362.072 9.77763 361.579 8.58518 360.7 7.70514C359.822 6.82511 358.63 6.32936 357.386 6.32666Z" fill="white"/>
<path d="M362.072 11.0209V188.876C362.07 190.117 361.575 191.308 360.697 192.186C359.818 193.064 358.628 193.558 357.385 193.56H263.636C253.265 183.946 244.757 172.503 238.538 159.804C238.129 158.986 237.739 158.159 237.369 157.321C231.702 145.03 228.271 131.829 227.236 118.336C227.167 117.508 227.109 116.68 227.07 115.842C226.943 113.7 226.885 111.528 226.885 109.346C226.866 94.8375 229.607 80.4573 234.962 66.9717C235.283 66.1342 235.624 65.3064 235.975 64.4785C246.752 39.1695 266.224 18.5447 290.878 6.32666H357.385C358.629 6.32936 359.821 6.82511 360.7 7.70514C361.578 8.58518 362.072 9.77763 362.072 11.0209Z" fill="#A84AC9"/>
<path d="M344.021 30.8312H95.2545C94.9958 30.8257 94.7496 30.7191 94.5685 30.5343C94.3875 30.3494 94.2861 30.101 94.2861 29.8424C94.2861 29.5837 94.3875 29.3353 94.5685 29.1505C94.7496 28.9656 94.9958 28.859 95.2545 28.8535H344.021C344.28 28.859 344.526 28.9656 344.707 29.1505C344.888 29.3353 344.99 29.5837 344.99 29.8424C344.99 30.101 344.888 30.3494 344.707 30.5343C344.526 30.7191 344.28 30.8257 344.021 30.8312Z" fill="#CACACA"/>
<path d="M112.188 23.8047C115.39 23.8047 117.986 21.1523 117.986 17.8804C117.986 14.6085 115.39 11.9561 112.188 11.9561C108.986 11.9561 106.391 14.6085 106.391 17.8804C106.391 21.1523 108.986 23.8047 112.188 23.8047Z" fill="#3F3D56"/>
<path d="M132.217 23.8047C135.419 23.8047 138.014 21.1523 138.014 17.8804C138.014 14.6085 135.419 11.9561 132.217 11.9561C129.015 11.9561 126.419 14.6085 126.419 17.8804C126.419 21.1523 129.015 23.8047 132.217 23.8047Z" fill="#3F3D56"/>
<path d="M152.245 23.8047C155.447 23.8047 158.043 21.1523 158.043 17.8804C158.043 14.6085 155.447 11.9561 152.245 11.9561C149.043 11.9561 146.447 14.6085 146.447 17.8804C146.447 21.1523 149.043 23.8047 152.245 23.8047Z" fill="#3F3D56"/>
<path d="M331.963 13.4243H317.736C317.454 13.4299 317.185 13.5458 316.988 13.7471C316.79 13.9484 316.68 14.2191 316.68 14.5011C316.68 14.783 316.79 15.0537 316.988 15.2551C317.185 15.4564 317.454 15.5723 317.736 15.5779H331.963C332.245 15.5723 332.513 15.4564 332.711 15.2551C332.908 15.0537 333.019 14.783 333.019 14.5011C333.019 14.2191 332.908 13.9484 332.711 13.7471C332.513 13.5458 332.245 13.4299 331.963 13.4243Z" fill="#3F3D56"/>
<path d="M331.963 17.4663H317.736C317.454 17.4719 317.185 17.5878 316.988 17.7891C316.79 17.9904 316.68 18.2611 316.68 18.5431C316.68 18.825 316.79 19.0957 316.988 19.2971C317.185 19.4984 317.454 19.6143 317.736 19.6199H331.963C332.245 19.6143 332.513 19.4984 332.711 19.2971C332.908 19.0957 333.019 18.825 333.019 18.5431C333.019 18.2611 332.908 17.9904 332.711 17.7891C332.513 17.5878 332.245 17.4719 331.963 17.4663Z" fill="#3F3D56"/>
<path d="M331.963 21.5029H317.736C317.454 21.5085 317.185 21.6244 316.988 21.8257C316.79 22.0271 316.68 22.2978 316.68 22.5797C316.68 22.8616 316.79 23.1324 316.988 23.3337C317.185 23.535 317.454 23.6509 317.736 23.6565H331.963C332.245 23.6509 332.513 23.535 332.711 23.3337C332.908 23.1324 333.019 22.8616 333.019 22.5797C333.019 22.2978 332.908 22.0271 332.711 21.8257C332.513 21.6244 332.245 21.5085 331.963 21.5029Z" fill="#3F3D56"/>
<path d="M171.424 88.6011H136.636C135.324 88.6011 134.26 89.6644 134.26 90.9761V94.6776C134.26 95.9893 135.324 97.0526 136.636 97.0526H171.424C172.736 97.0526 173.8 95.9893 173.8 94.6776V90.9761C173.8 89.6644 172.736 88.6011 171.424 88.6011Z" fill="#A84AC9"/>
<path d="M191.504 105.504H116.555C115.242 105.504 114.179 106.567 114.179 107.879V111.581C114.179 112.892 115.242 113.956 116.555 113.956H191.504C192.817 113.956 193.88 112.892 193.88 111.581V107.879C193.88 106.567 192.817 105.504 191.504 105.504Z" fill="#E6E6E6"/>
<path d="M191.504 122.407H116.555C115.242 122.407 114.179 123.471 114.179 124.782V128.484C114.179 129.795 115.242 130.859 116.555 130.859H191.504C192.817 130.859 193.88 129.795 193.88 128.484V124.782C193.88 123.471 192.817 122.407 191.504 122.407Z" fill="#E6E6E6"/>
<path d="M120.685 183.363C120.691 186.845 120.07 190.299 118.853 193.56H91.5234C90.2811 193.558 89.0903 193.064 88.2119 192.186C87.3335 191.308 86.8391 190.117 86.8369 188.876V154.516C88.3639 154.269 89.9083 154.146 91.4552 154.146C95.2937 154.146 99.0948 154.902 102.641 156.37C106.188 157.838 109.41 159.99 112.124 162.703C114.838 165.416 116.991 168.637 118.46 172.182C119.929 175.727 120.685 179.526 120.685 183.363Z" fill="#6C63FF"/>
<path opacity="0.2" d="M362.316 66.972V64.4788H320.508V35.583H318.023V64.4788H270.106V35.583H267.622V64.4788H235.976C235.625 65.3066 235.284 66.1344 234.962 66.972H267.622V115.843H227.07C227.109 116.68 227.168 117.508 227.236 118.336H267.622V157.321H237.369C237.739 158.159 238.129 158.987 238.538 159.805H267.622V192.577H270.106V159.805H318.023V192.577H320.508V159.805H362.316V157.321H320.508C320.508 152.202 321.516 147.132 323.476 142.402C325.437 137.672 328.309 133.374 331.931 129.754C335.553 126.134 339.852 123.263 344.584 121.303C349.316 119.344 354.388 118.336 359.51 118.336H362.316V115.843H320.508V66.972H362.316ZM318.023 157.321H270.106V118.336H318.023V157.321ZM318.023 115.843H270.106V114.869C270.106 102.166 275.154 89.9829 284.141 81.0006C293.127 72.0182 305.315 66.972 318.023 66.972L318.023 115.843Z" fill="black"/>
<path d="M144.551 126.775V98.9998C144.551 94.7364 142.857 90.6476 139.841 87.6329C136.825 84.6182 132.735 82.9246 128.469 82.9246H69.5997C65.3344 82.9246 61.2439 84.6182 58.2279 87.6329C55.2119 90.6476 53.5176 94.7364 53.5176 98.9998V251.374C53.5176 255.638 55.2119 259.727 58.2279 262.741C61.2439 265.756 65.3344 267.45 69.5997 267.45H128.469C130.581 267.45 132.673 267.034 134.624 266.226C136.575 265.418 138.348 264.234 139.841 262.741C141.335 261.249 142.519 259.477 143.327 257.526C144.136 255.576 144.551 253.486 144.551 251.374V146.545C144.82 146.545 145.078 146.438 145.269 146.248C145.459 146.058 145.566 145.8 145.566 145.531V127.789C145.566 127.52 145.459 127.262 145.269 127.072C145.079 126.881 144.821 126.775 144.551 126.775Z" fill="#E6E6E6"/>
<path d="M141.129 99.11V251.265C141.129 254.425 139.882 257.458 137.658 259.705C135.434 261.951 132.413 263.23 129.251 263.263C129.208 263.267 129.164 263.269 129.12 263.268H69.9637C66.7789 263.268 63.7247 262.003 61.4727 259.752C59.2207 257.501 57.9554 254.448 57.9551 251.265V99.11C57.9554 95.9266 59.2207 92.8736 61.4727 90.6225C63.7247 88.3715 66.7789 87.1067 69.9637 87.1064H77.1426C76.7897 87.9727 76.6552 88.9125 76.751 89.8429C76.8467 90.7734 77.1698 91.6661 77.6917 92.4424C78.2137 93.2188 78.9185 93.855 79.7442 94.2951C80.5699 94.7353 81.4911 94.9658 82.4269 94.9665H116.153C117.088 94.9639 118.008 94.7321 118.832 94.2913C119.657 93.8505 120.36 93.2142 120.882 92.4383C121.403 91.6624 121.725 90.7705 121.821 89.8409C121.917 88.9113 121.783 87.9724 121.432 87.1064H129.12C132.305 87.1067 135.359 88.3715 137.611 90.6225C139.863 92.8736 141.128 95.9265 141.129 99.11Z" fill="white"/>
<path d="M129.399 258.572C129.399 260.148 129.35 261.712 129.251 263.263C129.208 263.267 129.164 263.269 129.12 263.268H69.9637C66.7789 263.268 63.7247 262.003 61.4727 259.752C59.2207 257.501 57.9554 254.448 57.9551 251.265V183.458C77.2292 184.429 95.3928 192.767 108.69 206.748C121.987 220.728 129.401 239.282 129.399 258.572Z" fill="#F2F2F2"/>
<path d="M53.8426 142.313C53.4797 142.312 53.1317 142.168 52.8751 141.912C52.6184 141.655 52.4741 141.307 52.4736 140.944V131.639C52.4736 131.276 52.6179 130.928 52.8746 130.672C53.1313 130.415 53.4795 130.271 53.8426 130.271C54.2057 130.271 54.5539 130.415 54.8106 130.672C55.0674 130.928 55.2116 131.276 55.2116 131.639V140.944C55.2112 141.307 55.0668 141.655 54.8102 141.912C54.5535 142.168 54.2056 142.312 53.8426 142.313Z" fill="#E6E6E6"/>
<path d="M106.805 134.883H92.2783C90.9661 134.883 89.9023 135.946 89.9023 137.258V140.96C89.9023 142.271 90.9661 143.335 92.2783 143.335H106.805C108.117 143.335 109.181 142.271 109.181 140.96V137.258C109.181 135.946 108.117 134.883 106.805 134.883Z" fill="#A84AC9"/>
<path d="M126.886 151.786H72.1973C70.8851 151.786 69.8213 152.849 69.8213 154.161V157.863C69.8213 159.174 70.8851 160.238 72.1973 160.238H126.886C128.198 160.238 129.262 159.174 129.262 157.863V154.161C129.262 152.849 128.198 151.786 126.886 151.786Z" fill="#E6E6E6"/>
<path d="M126.886 168.689H72.1973C70.8851 168.689 69.8213 169.753 69.8213 171.064V174.766C69.8213 176.077 70.8851 177.141 72.1973 177.141H126.886C128.198 177.141 129.262 176.077 129.262 174.766V171.064C129.262 169.753 128.198 168.689 126.886 168.689Z" fill="#E6E6E6"/>
<path d="M53.5692 124.25C53.2062 124.25 52.8583 124.105 52.6016 123.849C52.345 123.592 52.2006 123.245 52.2002 122.882V113.577C52.2002 113.214 52.3444 112.866 52.6012 112.609C52.8579 112.352 53.2061 112.208 53.5692 112.208C53.9322 112.208 54.2804 112.352 54.5372 112.609C54.7939 112.866 54.9381 113.214 54.9381 113.577V122.882C54.9377 123.245 54.7934 123.592 54.5367 123.849C54.2801 124.105 53.9321 124.25 53.5692 124.25Z" fill="#E6E6E6"/>
<path d="M89.9834 88.6719C89.9838 88.3091 90.1282 87.9613 90.3848 87.7047C90.6415 87.4482 90.9894 87.3039 91.3524 87.3035H100.661C101.024 87.3035 101.373 87.4476 101.629 87.7043C101.886 87.9609 102.03 88.3089 102.03 88.6719C102.03 89.0348 101.886 89.3828 101.629 89.6395C101.373 89.8961 101.024 90.0403 100.661 90.0403H91.3524C90.9894 90.0398 90.6415 89.8955 90.3848 89.639C90.1282 89.3825 89.9838 89.0347 89.9834 88.6719Z" fill="white"/>
<path d="M53.8426 158.186C53.4797 158.186 53.1317 158.041 52.8751 157.785C52.6184 157.528 52.4741 157.181 52.4736 156.818V147.513C52.4736 147.15 52.6179 146.802 52.8746 146.545C53.1313 146.288 53.4795 146.144 53.8426 146.144C54.2057 146.144 54.5539 146.288 54.8106 146.545C55.0674 146.802 55.2116 147.15 55.2116 147.513V156.818C55.2112 157.181 55.0668 157.528 54.8102 157.785C54.5535 158.041 54.2056 158.186 53.8426 158.186Z" fill="#E6E6E6"/>
<path d="M105.864 90.0403C106.62 90.0403 107.233 89.4276 107.233 88.6719C107.233 87.9161 106.62 87.3035 105.864 87.3035C105.108 87.3035 104.495 87.9161 104.495 88.6719C104.495 89.4276 105.108 90.0403 105.864 90.0403Z" fill="white"/>
<path d="M470.348 267.446L0.652075 267.614C0.479479 267.614 0.314127 267.545 0.19226 267.423C0.0703923 267.301 0.00195312 267.135 0.00195312 266.963C0.00195312 266.79 0.0703923 266.625 0.19226 266.502C0.314127 266.38 0.479479 266.311 0.652075 266.311L470.348 266.143C470.521 266.143 470.687 266.211 470.809 266.333C470.931 266.456 471 266.621 471 266.794C471 266.967 470.931 267.133 470.809 267.255C470.687 267.377 470.521 267.446 470.348 267.446Z" fill="#CACACA"/>
<path d="M200.842 123.761L198.371 124.29C198.355 123.257 198.226 122.229 197.987 121.224C197.762 122.455 197.289 123.627 196.596 124.669L182.426 127.694L168.822 113.343C168.802 106.168 172.788 100.715 179.935 100.715C180.366 100.715 180.812 100.736 181.264 100.778C185.125 100.132 189.087 101.008 192.314 103.224C195.542 105.439 197.784 108.819 198.568 112.653C203.634 117.639 201.797 120.57 200.842 123.761Z" fill="#2F2E41"/>
<path d="M207.808 291.584H212.947L215.393 271.767L207.807 271.767L207.808 291.584Z" fill="#FFB6B6"/>
<path d="M206.533 289.049L214.658 288.564V292.044L222.383 297.377C222.764 297.64 223.052 298.018 223.203 298.457C223.354 298.895 223.361 299.37 223.223 299.812C223.085 300.255 222.809 300.641 222.436 300.916C222.062 301.191 221.611 301.339 221.147 301.339H211.474L209.807 297.897L209.156 301.339H205.509L206.533 289.049Z" fill="#2F2E41"/>
<path d="M147.593 285.991L152.063 288.527L163.973 272.497L157.375 268.756L147.593 285.991Z" fill="#FFB6B6"/>
<path d="M147.735 283.158L155.041 286.744L153.323 289.771L157.409 298.219C157.611 298.637 157.674 299.107 157.589 299.563C157.504 300.019 157.276 300.435 156.937 300.752C156.599 301.069 156.168 301.269 155.708 301.324C155.247 301.379 154.781 301.285 154.378 301.056L145.965 296.284L146.214 292.468L143.948 295.141L140.776 293.342L147.735 283.158Z" fill="#2F2E41"/>
<path d="M226.806 127.233C226.148 127.328 225.518 127.567 224.962 127.931C224.405 128.296 223.936 128.778 223.586 129.344C223.236 129.91 223.015 130.546 222.937 131.207C222.86 131.867 222.928 132.537 223.138 133.168L215.272 139.973L218.244 145.759L229.216 135.994C230.253 135.572 231.1 134.784 231.596 133.779C232.091 132.775 232.201 131.623 231.904 130.544C231.607 129.464 230.924 128.53 229.985 127.92C229.045 127.31 227.914 127.065 226.806 127.233Z" fill="#FFB6B6"/>
<path d="M218.886 150.632C216.262 154.604 210.382 158.44 201.656 161.841C201.174 162.034 200.658 162.124 200.14 162.107C199.622 162.091 199.113 161.966 198.645 161.742C195.352 160.244 193.241 154.675 193.043 154.135L186.665 145.534C186.551 145.409 183.569 142.025 183.91 138.699C183.987 138.002 184.214 137.33 184.575 136.729C184.936 136.128 185.424 135.612 186.003 135.217C190.832 131.639 201.653 144.065 203.057 145.717L210.119 141.416L215.265 139.121L219.419 134.068L225.268 140.046L220.007 148.411C219.727 149.195 219.35 149.941 218.886 150.632Z" fill="#2F2E41"/>
<path d="M200.543 165.871C200.543 165.871 215.656 189.933 212.918 192.67C210.18 195.407 205.919 196.126 205.919 196.126L196.49 183.912L200.543 165.871Z" fill="#2F2E41"/>
<path d="M187.181 133.008L194.303 137.824C197.614 140.063 200.104 143.32 201.396 147.1C202.687 150.881 202.711 154.98 201.461 158.775L199.456 164.867L187.181 133.008Z" fill="#2F2E41"/>
<path d="M174.586 198.691L173.634 202.006L170.384 241.986L154.15 272.227L161.898 277.759L184.036 248.993L192.792 220.43L206.542 283.66L216.873 282.922L209.698 195.255L196.083 170.578L174.586 198.691Z" fill="#2F2E41"/>
<path d="M185.97 134.219L195.883 142.317C198.059 144.095 199.625 146.506 200.365 149.216C200.7 150.446 200.86 151.718 200.839 152.993L200.543 170.578L209.632 194.859C209.632 194.859 184.991 204.164 181.705 195.954C178.42 187.744 185.97 134.219 185.97 134.219Z" fill="#6C63FF"/>
<path d="M188.934 200.216C176.624 200.216 173.624 200.309 173.43 200.269L173.235 200.23V192.829L176.229 179.533C175.879 175.406 175.059 169.963 175.134 165.302C175.402 148.457 174.574 132.002 174.574 132.002L181.089 125.991L184.049 127.916L189.539 133.404C195.921 149.103 200.985 163.883 201.017 164.833L201.418 181.176L199.775 187.744C192.344 192.988 199.134 200.216 188.934 200.216Z" fill="#2F2E41"/>
<path opacity="0.2" d="M177.335 146.677L175.839 156.014L185.97 160.191L177.335 146.677Z" fill="black"/>
<path d="M187.541 124.239C193.019 124.239 197.46 119.801 197.46 114.325C197.46 108.849 193.019 104.41 187.541 104.41C182.063 104.41 177.622 108.849 177.622 114.325C177.622 119.801 182.063 124.239 187.541 124.239Z" fill="#FFB6B6"/>
<path opacity="0.2" d="M170.921 164.631C173.561 167.686 177.142 169.778 181.1 170.578C185.059 171.378 189.172 170.84 192.791 169.049L194.95 167.981L170.921 164.631Z" fill="black"/>
<path d="M205.436 162.348C204.994 161.851 204.448 161.458 203.837 161.194C203.226 160.931 202.564 160.805 201.899 160.825C201.234 160.846 200.581 161.011 199.987 161.311C199.393 161.61 198.871 162.036 198.46 162.559L188.445 159.749L185.252 165.415L199.451 169.186C200.375 169.819 201.499 170.091 202.611 169.951C203.722 169.81 204.744 169.267 205.482 168.425C206.22 167.582 206.623 166.498 206.614 165.378C206.606 164.258 206.187 163.18 205.436 162.348Z" fill="#FFB6B6"/>
<path d="M181.538 168.637C176.776 168.638 170.334 165.847 162.686 160.442C162.259 160.147 161.899 159.766 161.628 159.325C161.356 158.883 161.179 158.39 161.108 157.877C160.544 154.304 164.031 149.475 164.372 149.012L168.037 138.952C168.079 138.789 169.26 134.436 172.225 132.888C172.849 132.567 173.536 132.386 174.237 132.356C174.937 132.327 175.637 132.449 176.286 132.715C181.933 134.77 177.523 150.644 176.918 152.725L184.4 156.246L189.152 159.273L195.659 159.954L193.892 168.126L184.01 168.349C183.201 168.546 182.37 168.643 181.538 168.637Z" fill="#2F2E41"/>
<path d="M199.435 107.802C198.641 108.835 195.906 109.748 192.657 110.484C192.662 110.417 192.662 110.35 192.662 110.282C192.646 109.249 192.517 108.221 192.278 107.216C192.053 108.447 191.58 109.619 190.887 110.661C190.835 110.739 190.783 110.817 190.726 110.894C187.939 111.444 184.991 111.87 182.681 112.155C184.269 117.872 190.357 122.563 189.698 126.039L171.859 129.681C171.969 128.236 171.853 126.783 171.516 125.374C171.175 127.234 170.273 128.945 168.932 130.277L167.416 130.589L166.965 128.363C163.051 118.967 168.506 109.348 177.444 104.373C179.037 101.985 181.512 100.325 184.326 99.7554L186.553 99.2988C187.957 99.0116 189.405 99.0037 190.812 99.2756C192.22 99.5475 193.56 100.094 194.756 100.883C195.952 101.673 196.981 102.691 197.784 103.878C198.587 105.065 199.148 106.398 199.435 107.802Z" fill="#2F2E41"/>
<path d="M250.757 302H125.697C125.524 301.999 125.359 301.931 125.237 301.808C125.115 301.686 125.047 301.521 125.047 301.348C125.047 301.176 125.115 301.01 125.237 300.888C125.359 300.766 125.524 300.697 125.697 300.697H250.757C250.843 300.696 250.928 300.713 251.007 300.746C251.086 300.778 251.158 300.826 251.219 300.887C251.28 300.947 251.328 301.019 251.361 301.098C251.394 301.178 251.411 301.263 251.411 301.348C251.411 301.434 251.394 301.519 251.361 301.598C251.328 301.677 251.28 301.749 251.219 301.81C251.158 301.87 251.086 301.918 251.007 301.951C250.928 301.984 250.843 302 250.757 302Z" fill="#CACACA"/>
</g>
<defs>
<clipPath id="clip0_333_2515">
<rect width="471" height="302" fill="white"/>
</clipPath>
</defs>
</svg>
