<svg width="133" height="110" viewBox="0 0 133 110" fill="none" xmlns="http://www.w3.org/2000/svg">
<g clip-path="url(#clip0_333_2085)">
<path d="M87.4952 0H48.8475C42.8366 0 37.9639 4.85016 37.9639 10.8331V98.7372C37.9639 104.72 42.8366 109.57 48.8475 109.57H87.4952C93.506 109.57 98.3788 104.72 98.3788 98.7372V10.8331C98.3788 4.85016 93.506 0 87.4952 0Z" fill="#3F3D56"/>
<path d="M97.3598 10.8339V98.7374C97.3568 101.341 96.3165 103.836 94.4672 105.677C92.6178 107.518 90.1105 108.553 87.4951 108.556H48.8481C46.2327 108.553 43.7254 107.518 41.876 105.677C40.0267 103.836 38.9864 101.341 38.9834 98.7374V10.8339C38.9864 8.23071 40.0267 5.73499 41.876 3.89424C43.7254 2.05349 46.2327 1.01803 48.8481 1.01501H53.9018V2.75265C53.9019 3.53931 54.2158 4.29373 54.7747 4.84998C55.3335 5.40623 56.0915 5.71875 56.8818 5.71879H79.4614C80.2517 5.71875 81.0097 5.40623 81.5685 4.84998C82.1274 4.29373 82.4413 3.53931 82.4414 2.75265V1.01501H87.4951C90.1105 1.01803 92.6178 2.05349 94.4672 3.89424C96.3165 5.73499 97.3568 8.23071 97.3598 10.8339Z" fill="white"/>
<path d="M37.6861 22.2276C37.4896 22.2274 37.3012 22.1496 37.1622 22.0113C37.0232 21.873 36.945 21.6854 36.9448 21.4898V20.0141C36.9448 19.8184 37.0229 19.6307 37.1619 19.4924C37.301 19.354 37.4895 19.2762 37.6861 19.2762C37.8827 19.2762 38.0713 19.354 38.2103 19.4924C38.3493 19.6307 38.4274 19.8184 38.4274 20.0141V21.4898C38.4272 21.6854 38.349 21.873 38.21 22.0113C38.0711 22.1496 37.8826 22.2274 37.6861 22.2276Z" fill="#3F3D56"/>
<path d="M37.6861 29.7945C37.4896 29.7943 37.3012 29.7165 37.1622 29.5782C37.0232 29.4399 36.945 29.2523 36.9448 29.0567V24.9946C36.9448 24.7989 37.0229 24.6112 37.1619 24.4728C37.301 24.3345 37.4895 24.2567 37.6861 24.2567C37.8827 24.2567 38.0713 24.3345 38.2103 24.4728C38.3493 24.6112 38.4274 24.7989 38.4274 24.9946V29.0567C38.4272 29.2523 38.349 29.4399 38.21 29.5782C38.0711 29.7165 37.8826 29.7943 37.6861 29.7945Z" fill="#3F3D56"/>
<path d="M37.6861 35.8778C37.4896 35.8776 37.3012 35.7998 37.1622 35.6614C37.0232 35.5231 36.945 35.3356 36.9448 35.1399V31.0778C36.9448 30.8821 37.0229 30.6944 37.1619 30.5561C37.301 30.4177 37.4895 30.34 37.6861 30.34C37.8827 30.34 38.0713 30.4177 38.2103 30.5561C38.3493 30.6944 38.4274 30.8821 38.4274 31.0778V35.1399C38.4272 35.3356 38.349 35.5231 38.21 35.6614C38.0711 35.7998 37.8826 35.8776 37.6861 35.8778Z" fill="#3F3D56"/>
<path d="M98.4718 32.5575C98.2752 32.5573 98.0868 32.4795 97.9478 32.3411C97.8089 32.2028 97.7307 32.0153 97.7305 31.8197V21.9079C97.7305 21.7122 97.8086 21.5245 97.9476 21.3862C98.0866 21.2478 98.2752 21.17 98.4718 21.17C98.6684 21.17 98.8569 21.2478 98.9959 21.3862C99.1349 21.5245 99.213 21.7122 99.213 21.9079V31.8197C99.2128 32.0153 99.1346 32.2028 98.9957 32.3411C98.8567 32.4795 98.6683 32.5573 98.4718 32.5575Z" fill="#3F3D56"/>
<path d="M69.764 3.3841H64.019C63.8961 3.3841 63.7783 3.33551 63.6914 3.24903C63.6045 3.16255 63.5557 3.04525 63.5557 2.92295C63.5557 2.80064 63.6045 2.68335 63.6914 2.59686C63.7783 2.51038 63.8961 2.46179 64.019 2.46179H69.764C69.8868 2.46179 70.0047 2.51038 70.0916 2.59686C70.1785 2.68335 70.2273 2.80064 70.2273 2.92295C70.2273 3.04525 70.1785 3.16255 70.0916 3.24903C70.0047 3.33551 69.8868 3.3841 69.764 3.3841Z" fill="white"/>
<path d="M72.729 3.29192C72.9337 3.29192 73.0997 3.12675 73.0997 2.923C73.0997 2.71925 72.9337 2.55408 72.729 2.55408C72.5243 2.55408 72.3584 2.71925 72.3584 2.923C72.3584 3.12675 72.5243 3.29192 72.729 3.29192Z" fill="white"/>
<path d="M51.694 5.36293H46.6903C46.4445 5.36293 46.2088 5.26576 46.0351 5.09279C45.8613 4.91983 45.7637 4.68523 45.7637 4.44062C45.7637 4.19601 45.8613 3.96141 46.0351 3.78845C46.2088 3.61548 46.4445 3.51831 46.6903 3.51831H51.694C51.9397 3.51831 52.1754 3.61548 52.3492 3.78845C52.523 3.96141 52.6206 4.19601 52.6206 4.44062C52.6206 4.68523 52.523 4.91983 52.3492 5.09279C52.1754 5.26576 51.9397 5.36293 51.694 5.36293Z" fill="#E6E6E6"/>
<path d="M84.4956 5.27063C84.9561 5.27063 85.3295 4.89899 85.3295 4.44055C85.3295 3.98211 84.9561 3.61047 84.4956 3.61047C84.035 3.61047 83.6616 3.98211 83.6616 4.44055C83.6616 4.89899 84.035 5.27063 84.4956 5.27063Z" fill="#E6E6E6"/>
<path d="M87.0903 5.27063C87.5509 5.27063 87.9242 4.89899 87.9242 4.44055C87.9242 3.98211 87.5509 3.61047 87.0903 3.61047C86.6297 3.61047 86.2563 3.98211 86.2563 4.44055C86.2563 4.89899 86.6297 5.27063 87.0903 5.27063Z" fill="#E6E6E6"/>
<path d="M89.685 5.27063C90.1456 5.27063 90.519 4.89899 90.519 4.44055C90.519 3.98211 90.1456 3.61047 89.685 3.61047C89.2244 3.61047 88.8511 3.98211 88.8511 4.44055C88.8511 4.89899 89.2244 5.27063 89.685 5.27063Z" fill="#E6E6E6"/>
<path d="M83.9127 18.2538H52.4635C51.8543 18.2546 51.2703 18.4959 50.8395 18.9246C50.4087 19.3534 50.1664 19.9347 50.1655 20.5411V40.8891C50.1664 41.4955 50.4087 42.0768 50.8395 42.5056C51.2703 42.9343 51.8543 43.1756 52.4635 43.1764H83.9127C84.522 43.1759 85.1062 42.9347 85.537 42.5059C85.9678 42.0771 86.2101 41.4956 86.2107 40.8891V20.5411C86.2101 19.9346 85.9678 19.3531 85.537 18.9243C85.1062 18.4955 84.522 18.2543 83.9127 18.2538Z" fill="#F2F2F2"/>
<path d="M74.0669 26.9404C71.2249 31.942 68.0886 36.7722 64.6745 41.4059H59.7427C62.973 37.4887 66.2058 33.5716 69.4409 29.6545C70.369 28.5266 71.3762 27.345 72.7683 26.8867L74.0669 26.9404Z" fill="#3F3D56"/>
<path d="M67.5128 26.1384C66.9984 26.6719 66.5055 27.2268 66.0415 27.8033C65.0199 29.0279 64.0127 30.2632 63.0018 31.4949C62.3723 32.2611 61.7428 33.0273 61.1205 33.7936C60.9229 33.6672 60.7352 33.526 60.5593 33.3711C59.5653 32.5124 58.9488 31.3003 58.8419 29.9945C58.7349 28.6888 59.146 27.3933 59.9871 26.3857C60.8283 25.378 62.0324 24.7384 63.3416 24.6038C64.6509 24.4692 65.9609 24.8504 66.9912 25.6657C67.1769 25.8099 67.3512 25.9679 67.5128 26.1384Z" fill="#A84AC9"/>
<path d="M86.2106 25.5566V26.3L85.877 26.1783L81.1828 24.4701C79.6539 23.9149 78.1287 23.2804 76.5497 22.8801C75.176 22.4889 73.7172 22.5075 72.354 22.9336C71.1389 23.381 70.027 24.068 69.085 24.9534C68.668 25.3371 68.264 25.73 67.873 26.1377C67.7451 26.2723 67.6172 26.407 67.4912 26.5416C67.1131 26.9512 66.7481 27.3699 66.4015 27.8034C65.3804 29.0282 64.3722 30.2641 63.3622 31.4945C62.7321 32.2618 62.102 33.0273 61.4794 33.7928C59.4 36.3255 57.3331 38.8631 55.2785 41.4056C55.0018 41.4025 54.7263 41.3678 54.4575 41.3023C56.5535 38.7106 58.6594 36.1257 60.7751 33.5475C60.8233 33.4885 60.8715 33.4295 60.9197 33.3704C61.168 33.0624 61.4219 32.7525 61.6739 32.4444C62.7284 31.1587 63.7835 29.8743 64.8392 28.591C65.6065 27.6576 66.3682 26.7206 67.1947 25.8352C67.2447 25.778 67.2966 25.7226 67.3504 25.6655C67.43 25.5806 67.5097 25.4976 67.5913 25.4109C69.3871 23.5644 71.6276 21.9319 74.311 21.8877C75.89 21.8637 77.4152 22.3617 78.8829 22.8875C80.4637 23.4575 82.039 24.0367 83.6179 24.6122L86.2106 25.5566Z" fill="#3F3D56"/>
<path d="M86.9501 88.1024H49.3931C48.7838 88.1017 48.1998 87.8605 47.769 87.4317C47.3382 87.0029 47.0959 86.4216 47.0952 85.8152V80.777C47.0959 80.1707 47.3382 79.5893 47.769 79.1605C48.1998 78.7318 48.7838 78.4906 49.3931 78.4899H86.9501C87.5593 78.4906 88.1434 78.7318 88.5742 79.1605C89.005 79.5893 89.2473 80.1707 89.248 80.777V85.8152C89.2473 86.4216 89.005 87.0029 88.5742 87.4317C88.1434 87.8605 87.5593 88.1017 86.9501 88.1024Z" fill="#F2F2F2"/>
<path d="M86.9501 62.2777H49.3931C48.7838 62.277 48.1998 62.0358 47.769 61.607C47.3382 61.1782 47.0959 60.5969 47.0952 59.9905V54.9523C47.0959 54.346 47.3382 53.7646 47.769 53.3358C48.1998 52.907 48.7838 52.6659 49.3931 52.6652H86.9501C87.5593 52.6659 88.1434 52.907 88.5742 53.3358C89.005 53.7646 89.2473 54.346 89.248 54.9523V59.9905C89.2473 60.5969 89.005 61.1782 88.5742 61.607C88.1434 62.0358 87.5593 62.277 86.9501 62.2777Z" fill="#F2F2F2"/>
<path d="M86.9501 75.19H49.3931C48.7838 75.1893 48.1998 74.9481 47.769 74.5194C47.3382 74.0906 47.0959 73.5092 47.0952 72.9029V67.8647C47.0959 67.2583 47.3382 66.677 47.769 66.2482C48.1998 65.8194 48.7838 65.5782 49.3931 65.5775H86.9501C87.5593 65.5782 88.1434 65.8194 88.5742 66.2482C89.005 66.677 89.2473 67.2583 89.248 67.8647V72.9029C89.2473 73.5092 89.005 74.0906 88.5742 74.5194C88.1434 74.9481 87.5593 75.1893 86.9501 75.19Z" fill="#F2F2F2"/>
<path d="M72.7347 82.4338H61.6688C61.5376 82.4338 61.4116 82.3819 61.3188 82.2895C61.226 82.1971 61.1738 82.0718 61.1738 81.9411C61.1738 81.8104 61.226 81.6851 61.3188 81.5927C61.4116 81.5003 61.5376 81.4484 61.6688 81.4484H72.7347C72.866 81.4484 72.9919 81.5003 73.0848 81.5927C73.1776 81.6851 73.2298 81.8104 73.2298 81.9411C73.2298 82.0718 73.1776 82.1971 73.0848 82.2895C72.9919 82.3819 72.866 82.4338 72.7347 82.4338Z" fill="white"/>
<path d="M83.3775 85.1438H61.5448C61.4135 85.1438 61.2876 85.0919 61.1948 84.9995C61.102 84.9071 61.0498 84.7817 61.0498 84.6511C61.0498 84.5204 61.102 84.3951 61.1948 84.3026C61.2876 84.2102 61.4135 84.1583 61.5448 84.1583H83.3775C83.5088 84.1583 83.6347 84.2102 83.7276 84.3026C83.8204 84.3951 83.8726 84.5204 83.8726 84.6511C83.8726 84.7817 83.8204 84.9071 83.7276 84.9995C83.6347 85.0919 83.5088 85.1438 83.3775 85.1438Z" fill="white"/>
<path d="M55.7897 86.5997C57.6228 86.5997 59.1087 85.1206 59.1087 83.296C59.1087 81.4715 57.6228 79.9924 55.7897 79.9924C53.9567 79.9924 52.4707 81.4715 52.4707 83.296C52.4707 85.1206 53.9567 86.5997 55.7897 86.5997Z" fill="white"/>
<path d="M55.0503 87.7585C54.7116 87.6009 54.3245 87.5812 53.9714 87.7034C53.6183 87.8256 53.327 88.0801 53.1595 88.4128C53.1266 88.481 53.0993 88.5517 53.0781 88.6243L48.0801 88.9216L47.3394 91.499L54.1417 90.355C54.4512 90.4193 54.7733 90.3799 55.0578 90.2429C55.3423 90.1059 55.5733 89.8789 55.7146 89.5975C55.7935 89.4366 55.8397 89.2618 55.8508 89.0831C55.8618 88.9044 55.8373 88.7253 55.7788 88.5561C55.7203 88.3868 55.6288 88.2306 55.5097 88.0965C55.3905 87.9624 55.246 87.853 55.0843 87.7745C55.073 87.769 55.0617 87.7637 55.0503 87.7585Z" fill="#FFB6B6"/>
<path d="M44.018 75.0454C43.6887 74.9113 43.3342 74.8493 42.9786 74.8637C42.6231 74.8782 42.2748 74.9686 41.9575 75.129C41.6402 75.2893 41.3613 75.5158 41.1398 75.793C40.9183 76.0703 40.7594 76.3917 40.6739 76.7355L39.2998 82.2589L39.5583 91.9217C39.5583 91.9217 46.7306 93.2916 47.9347 92.411C49.1387 91.5304 49.0257 90.8749 49.1387 91.5304C49.2518 92.1859 49.7686 92.461 49.7757 92.2002C49.7829 91.9395 49.8414 91.984 50.1414 91.9055C50.4415 91.8269 51.7658 91.3411 51.7658 91.3411L51.8251 88.5861C51.8251 88.5861 49.6358 87.76 49.1046 88.0065C48.5735 88.253 49.2177 88.662 48.5735 88.253C47.9293 87.8439 47.8589 86.553 47.7487 87.7164C47.6386 88.8799 47.3161 89.0965 46.8331 88.5792C46.3502 88.0618 44.1125 88.3923 44.1125 88.3923L45.5364 77.6511C45.608 77.1108 45.4979 76.5622 45.2232 76.0908C44.9485 75.6194 44.5247 75.2518 44.018 75.0454Z" fill="#A84AC9"/>
<path d="M92.3196 103.7L92.395 101.666L84.5463 100.408L84.4351 103.411L92.3196 103.7Z" fill="#FFB6B6"/>
<path d="M90.8947 104.313L90.8203 101.055L92.2195 101.107L94.4784 98.095C94.5899 97.9462 94.7463 97.8368 94.9247 97.7828C95.1032 97.7288 95.2943 97.7329 95.4701 97.7947C95.646 97.8564 95.7974 97.9725 95.9023 98.126C96.0073 98.2794 96.0601 98.4623 96.0532 98.6478L95.9098 102.518L94.501 103.134L95.8754 103.445L95.8213 104.904L90.8947 104.313Z" fill="#2F2E41"/>
<path d="M48.146 108.366L73.0057 105.489C73.0057 105.489 83.7409 106.106 86.2596 104.475L88.9157 104.141L89.0597 100.258C89.0597 100.258 87.4355 100.27 86.5017 99.8369C85.5678 99.4038 86.2168 98.8739 85.3265 99.3949C84.4362 99.916 84.5302 99.9787 83.8418 99.7392C83.1535 99.4997 51.5866 98.2153 51.5866 98.2153L48.146 108.366Z" fill="#2F2E41"/>
<path d="M80.9045 106.681L82.35 105.24L77.4557 99.0051L75.3223 101.131L80.9045 106.681Z" fill="#FFB6B6"/>
<path d="M79.4414 106.166L81.6128 103.727L82.6035 104.712L86.3173 104.033C86.5007 104 86.6901 104.025 86.8578 104.107C87.0255 104.188 87.1628 104.32 87.2495 104.485C87.3363 104.649 87.368 104.836 87.34 105.02C87.312 105.204 87.2259 105.373 87.0941 105.505L84.3446 108.245L82.8908 107.743L83.6856 108.901L82.649 109.934L79.4414 106.166Z" fill="#2F2E41"/>
<path d="M38.3384 94.8148L38.5855 100.533C38.8765 107.265 46.3244 111.339 52.0998 107.824C52.2062 107.759 52.313 107.692 52.4202 107.623C52.4202 107.623 54.6096 107.038 54.5432 106.111C54.4767 105.184 55.0116 104.733 55.4849 104.986C55.9583 105.238 62.1558 96.4837 62.1558 96.4837C62.1558 96.4837 75.0322 102.877 77.8729 104.382L80.8702 103.569C80.8702 103.569 81.9982 104.099 81.5919 103.332C81.1856 102.565 81.1127 102.933 80.9878 102.097C80.863 101.261 80.5437 100.225 80.35 100.269C80.1564 100.313 64.4203 89.3498 64.4203 89.3498C64.4203 89.3498 61.8567 86.7673 58.6767 88.4724C58.6104 88.7229 58.667 88.7316 58.667 88.7316L48.1622 97.2516L46.6779 94.4458L38.3384 94.8148Z" fill="#2F2E41"/>
<path d="M45.399 73.804L40.895 71.7029L39.5466 74.0383C39.5466 74.0383 35.9251 79.1823 35.8725 82.8933C35.82 86.6044 36.4627 87.7079 36.4627 87.7079C36.4627 87.7079 34.9013 88.8699 35.682 89.5801C36.4627 90.2904 38.1912 90.5969 36.8636 90.9048C35.5361 91.2127 35.8725 94.33 37.3551 94.8834C38.8377 95.4367 46.7999 95.4319 46.7999 95.4319C46.7283 95.1902 46.723 94.9339 46.7846 94.6895C46.8462 94.4451 46.9724 94.2215 47.1501 94.0421C47.7674 93.4262 48.3233 93.8681 47.7674 92.9093C47.2114 91.9505 46.2848 92.5039 47.0261 91.2127C47.7674 89.9215 47.7671 89.5356 47.7671 89.5356C47.7671 89.5356 49.2783 86.6729 47.0021 83.5674C46.8633 83.3781 46.98 83.3708 46.98 83.3708L45.142 77.2401L45.399 73.804Z" fill="#A84AC9"/>
<path d="M38.1404 64.9695C38.1785 65.9165 37.5789 67.2581 37.2837 68.0671C36.968 68.932 38.3362 70.0801 39.2119 70.3316C39.2574 70.0319 39.4076 69.7578 39.636 69.5574C39.5729 69.843 39.5674 70.1382 39.6198 70.4259L47.023 72.1035C48.3549 70.5683 49.6941 68.3613 49.4019 65.6996C49.4719 65.1941 49.3903 64.6794 49.1674 64.2199C48.9445 63.7605 48.5902 63.3768 48.149 63.1171L44.4063 60.9163C42.8144 60.5556 40.8096 60.3378 39.6597 61.3183C39.146 61.7732 38.7424 62.3381 38.4793 62.9704C38.2161 63.6028 38.1003 64.2862 38.1404 64.9695Z" fill="#2F2E41"/>
<path d="M44.758 71.2924C47.1121 71.2924 49.0204 69.3929 49.0204 67.0498C49.0204 64.7066 47.1121 62.8071 44.758 62.8071C42.4039 62.8071 40.4956 64.7066 40.4956 67.0498C40.4956 69.3929 42.4039 71.2924 44.758 71.2924Z" fill="#FFB6B6"/>
<path d="M39.7643 64.7832L39.5586 65.6825L43.1545 66.4974C43.1577 66.3155 43.1986 66.1362 43.2747 65.9708C43.3508 65.8054 43.4604 65.6575 43.5967 65.5363C43.5191 65.8889 43.528 66.2549 43.6225 66.6034C45.5618 67.6866 47.3097 68.0703 48.8771 67.7941C49.0894 67.8422 49.3123 67.8044 49.4966 67.689C49.6809 67.5735 49.8116 67.3899 49.86 67.1786C50.4906 64.4214 48.8385 61.6033 46.082 60.9189C45.4119 60.7521 44.7152 60.7202 44.0326 60.825C43.3501 60.9298 42.6954 61.1691 42.1069 61.529C41.5185 61.889 41.0082 62.3622 40.6059 62.921C40.2036 63.4798 39.9175 64.1129 39.7643 64.7832Z" fill="#2F2E41"/>
<path d="M41.8669 58.8499C42.3411 58.7474 42.8429 58.7722 43.2716 58.4525L42.9904 59.0949C43.7699 58.8823 44.6009 58.9649 45.3228 59.3268C45.5374 59.4226 45.7204 59.5768 45.8508 59.7717C45.9208 59.8894 45.9634 60.0213 45.9754 60.1576C45.9874 60.2939 45.9686 60.4311 45.9202 60.5592C45.8741 60.6691 45.8055 60.7682 45.7188 60.8502C45.6321 60.9321 45.5291 60.9952 45.4165 61.0354C45.2169 61.0951 45.0078 61.1169 44.8002 61.0996C43.925 61.0793 43.0499 61.059 42.1748 61.0387C41.8413 61.0593 41.5081 60.9949 41.2066 60.8514C41.0463 60.7529 40.9184 60.6099 40.8386 60.4401C40.7588 60.2703 40.7306 60.0809 40.7574 59.8953C40.8409 59.3114 41.3928 58.9523 41.8669 58.8499Z" fill="#2F2E41"/>
<path d="M64.9887 92.101C64.9785 92.0889 64.9668 92.0782 64.9538 92.0691C64.922 92.0323 64.8832 92.0021 64.8396 91.9802L64.5277 91.814L62.457 89.5257C62.3372 89.4636 62.1977 89.4503 62.0682 89.4887L62.0629 89.4903L61.1758 89.7634L60.413 89.999L59.3473 90.3278L52.089 92.5649L47.3179 94.0352C47.1889 94.0758 47.0811 94.1653 47.0177 94.2842C46.9543 94.4032 46.9404 94.5422 46.9789 94.6712C47.0013 94.7423 47.0384 94.8079 47.0878 94.8639L47.2396 95.0321L47.5581 95.3852L48.2959 96.9071L48.5006 97.1345C48.5658 97.2069 48.6504 97.2593 48.7445 97.2855C48.8385 97.3118 48.9382 97.3109 49.0317 97.2828L64.7497 92.9324C64.8313 92.906 64.9053 92.8601 64.9649 92.7987C65.0245 92.7373 65.0681 92.6622 65.0917 92.58C65.1153 92.4979 65.1182 92.4113 65.1003 92.3277C65.0823 92.2442 65.044 92.1663 64.9887 92.101Z" fill="#CCCCCC"/>
<path d="M64.0555 69.4665L63.7511 69.5156C63.6677 69.5294 63.5931 69.5755 63.5436 69.6438L63.4095 69.8304L62.1999 72.8412C62.1506 72.91 62.1309 72.9955 62.1449 73.0788L62.2866 73.9367L61.751 89.248C61.7645 89.3272 61.8072 89.3985 61.8708 89.448L64.2194 92.575L64.2742 92.6184L64.3925 92.7106C64.4531 92.7572 64.5284 92.781 64.605 92.7778L64.8046 92.7684C64.8499 92.7662 64.8942 92.7544 64.9347 92.7339C64.9751 92.7134 65.0107 92.6846 65.0391 92.6493C65.0678 92.6144 65.0885 92.5738 65.1 92.5302C65.1115 92.4866 65.1135 92.441 65.1057 92.3966L64.4244 69.7285C64.4106 69.6452 64.3642 69.5708 64.2953 69.5216C64.2264 69.4725 64.1407 69.4526 64.057 69.4663L64.0555 69.4665Z" fill="#CCCCCC"/>
<path d="M63.5457 70.6562L62.4741 73.9052L62.0596 86.8828L63.7275 88.3585L63.5457 70.6562Z" fill="#A84AC9"/>
<path d="M55.2593 90.4521C54.9206 90.2946 54.5335 90.2748 54.1804 90.397C53.8272 90.5192 53.536 90.7737 53.3685 91.1064C53.3355 91.1746 53.3083 91.2453 53.2871 91.3179L48.2891 91.6152L47.5483 94.1926L54.3507 93.0486C54.6601 93.1129 54.9822 93.0735 55.2668 92.9365C55.5513 92.7995 55.7822 92.5725 55.9236 92.2911C56.0829 91.9662 56.106 91.5915 55.9878 91.2497C55.8696 90.9078 55.6198 90.6266 55.2933 90.468C55.282 90.4626 55.2707 90.4573 55.2593 90.4521Z" fill="#FFB6B6"/>
<path d="M44.227 77.739C43.8976 77.6049 43.5431 77.5429 43.1876 77.5573C42.832 77.5718 42.4838 77.6622 42.1665 77.8226C41.8492 77.9829 41.5703 78.2094 41.3488 78.4866C41.1273 78.7639 40.9684 79.0853 40.8829 79.4291L39.5088 84.9525L39.7673 94.6153C39.7673 94.6153 46.9396 95.9852 48.1437 95.1046C49.3477 94.224 49.2347 93.5686 49.3477 94.2241C49.4608 94.8795 49.9776 95.1546 49.9847 94.8938C49.9919 94.6331 50.0504 94.6776 50.3504 94.5991C50.6505 94.5205 51.9747 94.0347 51.9747 94.0347L52.034 91.2797C52.034 91.2797 49.8447 90.4536 49.3136 90.7001C48.7824 90.9466 49.4266 91.3556 48.7824 90.9466C48.1383 90.5375 48.0678 89.2466 47.9577 90.41C47.8476 91.5735 47.5251 91.7901 47.0421 91.2728C46.5591 90.7554 44.3215 91.0859 44.3215 91.0859L45.7454 80.3447C45.817 79.8044 45.7069 79.2558 45.4322 78.7844C45.1575 78.313 44.7337 77.9454 44.227 77.739Z" fill="#A84AC9"/>
<path d="M9.76092e-07 109.781C-8.53968e-05 109.809 0.0055613 109.838 0.0166142 109.865C0.0276672 109.891 0.0439099 109.916 0.0644067 109.936C0.0849035 109.956 0.109249 109.973 0.136046 109.984C0.162842 109.995 0.19156 110 0.220546 110H132.779C132.838 110 132.894 109.977 132.935 109.936C132.977 109.895 133 109.839 133 109.781C133 109.722 132.977 109.666 132.935 109.625C132.894 109.584 132.838 109.561 132.779 109.561H0.220535C0.19155 109.561 0.162835 109.567 0.13604 109.578C0.109245 109.589 0.0848993 109.605 0.0644039 109.625C0.0439084 109.646 0.0276668 109.67 0.0166142 109.696C0.00556165 109.723 -8.44058e-05 109.752 9.76092e-07 109.781Z" fill="#CCCCCC"/>
<path d="M116.972 62.2777H79.415C78.8058 62.277 78.2217 62.0358 77.791 61.607C77.3602 61.1782 77.1179 60.5969 77.1172 59.9905V54.9523C77.1179 54.346 77.3602 53.7646 77.791 53.3358C78.2217 52.907 78.8058 52.6659 79.415 52.6652H116.972C117.581 52.6659 118.165 52.907 118.596 53.3358C119.027 53.7646 119.269 54.346 119.27 54.9523V59.9905C119.269 60.5969 119.027 61.1782 118.596 61.607C118.165 62.0358 117.581 62.277 116.972 62.2777Z" fill="#E6E6E6"/>
<path d="M102.757 56.6091H91.6908C91.5595 56.6091 91.4336 56.5572 91.3408 56.4648C91.248 56.3724 91.1958 56.2471 91.1958 56.1164C91.1958 55.9857 91.248 55.8604 91.3408 55.768C91.4336 55.6756 91.5595 55.6237 91.6908 55.6237H102.757C102.888 55.6237 103.014 55.6756 103.107 55.768C103.2 55.8604 103.252 55.9857 103.252 56.1164C103.252 56.2471 103.2 56.3724 103.107 56.4648C103.014 56.5572 102.888 56.6091 102.757 56.6091Z" fill="white"/>
<path d="M113.4 59.3192H91.5668C91.4355 59.3192 91.3096 59.2673 91.2168 59.1749C91.1239 59.0825 91.0718 58.9571 91.0718 58.8265C91.0718 58.6958 91.1239 58.5705 91.2168 58.4781C91.3096 58.3857 91.4355 58.3337 91.5668 58.3337H113.4C113.531 58.3337 113.657 58.3857 113.75 58.4781C113.842 58.5705 113.895 58.6958 113.895 58.8265C113.895 58.9571 113.842 59.0825 113.75 59.1749C113.657 59.2673 113.531 59.3192 113.4 59.3192Z" fill="white"/>
<path d="M85.8117 60.7751C87.6447 60.7751 89.1307 59.296 89.1307 57.4715C89.1307 55.6469 87.6447 54.1678 85.8117 54.1678C83.9786 54.1678 82.4927 55.6469 82.4927 57.4715C82.4927 59.296 83.9786 60.7751 85.8117 60.7751Z" fill="white"/>
<path d="M104.926 75.19H67.3691C66.7599 75.1893 66.1758 74.9481 65.7451 74.5194C65.3143 74.0906 65.072 73.5092 65.0713 72.9029V67.8647C65.072 67.2583 65.3143 66.677 65.7451 66.2482C66.1758 65.8194 66.7599 65.5782 67.3691 65.5775H104.926C105.535 65.5782 106.119 65.8194 106.55 66.2482C106.981 66.677 107.223 67.2583 107.224 67.8647V72.9029C107.223 73.5092 106.981 74.0906 106.55 74.5194C106.119 74.9481 105.535 75.1893 104.926 75.19Z" fill="#E6E6E6"/>
<path d="M90.7108 69.5215H79.6449C79.5136 69.5215 79.3877 69.4696 79.2949 69.3772C79.2021 69.2848 79.1499 69.1594 79.1499 69.0287C79.1499 68.8981 79.2021 68.7727 79.2949 68.6803C79.3877 68.5879 79.5136 68.536 79.6449 68.536H90.7108C90.8421 68.536 90.968 68.5879 91.0608 68.6803C91.1537 68.7727 91.2058 68.8981 91.2058 69.0287C91.2058 69.1594 91.1537 69.2848 91.0608 69.3772C90.968 69.4696 90.8421 69.5215 90.7108 69.5215Z" fill="white"/>
<path d="M101.354 72.2316H79.5209C79.3896 72.2316 79.2637 72.1796 79.1709 72.0872C79.078 71.9948 79.0259 71.8695 79.0259 71.7388C79.0259 71.6081 79.078 71.4828 79.1709 71.3904C79.2637 71.298 79.3896 71.2461 79.5209 71.2461H101.354C101.485 71.2461 101.611 71.298 101.704 71.3904C101.796 71.4828 101.849 71.6081 101.849 71.7388C101.849 71.8695 101.796 71.9948 101.704 72.0872C101.611 72.1796 101.485 72.2316 101.354 72.2316Z" fill="white"/>
<path d="M73.7658 73.6874C75.5988 73.6874 77.0848 72.2083 77.0848 70.3838C77.0848 68.5593 75.5988 67.0802 73.7658 67.0802C71.9327 67.0802 70.4468 68.5593 70.4468 70.3838C70.4468 72.2083 71.9327 73.6874 73.7658 73.6874Z" fill="white"/>
</g>
<defs>
<clipPath id="clip0_333_2085">
<rect width="133" height="110" fill="white"/>
</clipPath>
</defs>
</svg>
