<svg width="401" height="280" viewBox="0 0 401 280" fill="none" xmlns="http://www.w3.org/2000/svg">
<g clip-path="url(#clip0_333_2580)">
<path d="M170.355 119.396C169.725 118.939 169.124 118.444 168.555 117.915L169.334 117.097C169.87 117.595 170.436 118.061 171.029 118.492L170.355 119.396Z" fill="#E4E4E4"/>
<path d="M165.427 114.142C164.555 112.757 163.868 111.265 163.383 109.706L164.47 109.376C164.926 110.843 165.572 112.246 166.392 113.549L165.427 114.142ZM162.548 104.903C162.537 104.637 162.531 104.372 162.531 104.106C162.531 102.741 162.68 101.38 162.976 100.047L164.086 100.288C163.808 101.542 163.668 102.822 163.668 104.106C163.668 104.356 163.674 104.606 163.684 104.856L162.548 104.903ZM165.659 95.9753L164.648 95.4612C165.117 94.5611 165.658 93.6991 166.266 92.8835C166.639 92.3832 167.041 91.9054 167.472 91.4528L168.3 92.2221C167.901 92.6419 167.527 93.0851 167.182 93.5491C166.61 94.3168 166.101 95.128 165.659 95.9753ZM171.949 89.4599L171.412 88.4698C172.879 87.6932 174.464 87.1556 176.105 86.8777L176.298 87.9848C174.777 88.2421 173.309 88.7402 171.949 89.4599ZM185.27 89.3372C183.899 88.6399 182.422 88.1678 180.897 87.9395L181.068 86.8291C182.714 87.0757 184.309 87.5855 185.79 88.3383L185.27 89.3372Z" fill="#E4E4E4"/>
<path d="M190.226 93.7818C189.854 93.1706 189.423 92.5961 188.939 92.066L189.784 91.314C190.316 91.8975 190.791 92.5301 191.201 93.2031L190.226 93.7818Z" fill="#E4E4E4"/>
<path d="M146.637 81.8332L145.721 81.1678C146.176 80.5568 146.655 79.9527 147.146 79.3721L148.019 80.092C147.543 80.655 147.078 81.2409 146.637 81.8332Z" fill="#E4E4E4"/>
<path d="M202.972 80.5345C202.098 79.3367 201.131 78.2088 200.078 77.1613L200.884 76.3698C201.98 77.4593 202.986 78.6324 203.895 79.8782L202.972 80.5345ZM151.113 76.8661L150.338 76.0438C151.472 75.0021 152.671 74.032 153.928 73.1392L154.591 74.0514C153.373 74.9165 152.211 75.8566 151.113 76.8661ZM196.683 74.2763C195.473 73.3993 194.21 72.5972 192.9 71.8746L193.454 70.8937C194.805 71.6391 196.108 72.4664 197.356 73.371L196.683 74.2763ZM158.402 71.6934L157.86 70.7059C159.221 69.9779 160.628 69.335 162.07 68.781L162.482 69.8277C161.084 70.3648 159.721 70.9879 158.402 71.6934ZM188.844 69.9597C187.453 69.4068 186.027 68.9411 184.576 68.5654L184.865 67.4788C186.362 67.8666 187.833 68.3472 189.269 68.9177L188.844 69.9597ZM166.767 68.4813L166.491 67.3918C167.993 67.0209 169.516 66.7425 171.053 66.5582L171.189 67.6733C169.7 67.8519 168.223 68.1218 166.767 68.4813ZM180.164 67.7136C178.677 67.5219 177.178 67.4223 175.678 67.4154L175.683 66.2922C177.231 66.2995 178.777 66.4022 180.312 66.5999L180.164 67.7136Z" fill="#E4E4E4"/>
<path d="M206.218 86.3266C205.938 85.6492 205.628 84.975 205.296 84.3229L206.312 83.8184C206.657 84.4967 206.98 85.1978 207.271 85.9022L206.218 86.3266Z" fill="#E4E4E4"/>
<path d="M209.335 152.329L208.944 151.275C209.645 151.021 210.351 150.75 211.043 150.469L211.475 151.508C210.77 151.795 210.05 152.071 209.335 152.329Z" fill="#E4E4E4"/>
<path d="M191.607 155.761L191.566 154.638C193.041 154.585 194.532 154.473 195.998 154.306L196.128 155.422C194.633 155.592 193.112 155.706 191.607 155.761ZM187.073 155.747C185.567 155.684 184.046 155.561 182.554 155.381L182.692 154.267C184.154 154.443 185.645 154.563 187.121 154.625L187.073 155.747ZM200.608 154.734L200.39 153.632C201.838 153.352 203.293 153.011 204.715 152.619L205.02 153.701C203.57 154.101 202.085 154.448 200.608 154.734ZM178.079 154.664C176.603 154.368 175.121 154.009 173.675 153.598L173.989 152.519C175.407 152.921 176.859 153.273 178.305 153.563L178.079 154.664ZM169.37 152.19C167.961 151.667 166.556 151.081 165.193 150.448L165.676 149.432C167.012 150.052 168.389 150.626 169.77 151.139L169.37 152.19ZM161.169 148.386C159.865 147.651 158.571 146.854 157.322 146.016L157.961 145.087C159.185 145.909 160.454 146.69 161.732 147.41L161.169 148.386Z" fill="#E4E4E4"/>
<path d="M153.665 143.337C153.071 142.858 152.484 142.36 151.918 141.855L152.68 141.021C153.232 141.514 153.805 142 154.384 142.467L153.665 143.337Z" fill="#E4E4E4"/>
<path d="M122.188 30.0904L121.604 29.1266C122.257 28.7405 122.922 28.3583 123.582 27.9905L124.141 28.9685C123.489 29.3317 122.832 29.709 122.188 30.0904Z" fill="#E4E4E4"/>
<path d="M231.646 45.4294C230.672 44.3084 229.647 43.2026 228.599 42.1432L229.412 41.3583C230.477 42.435 231.519 43.5585 232.509 44.6978L231.646 45.4294ZM225.344 39.0567C224.233 38.0687 223.073 37.1011 221.896 36.1812L222.602 35.3004C223.797 36.2351 224.976 37.2181 226.105 38.222L225.344 39.0567ZM218.272 33.5196C217.042 32.6666 215.777 31.835 214.511 31.0482L215.117 30.0976C216.399 30.8945 217.68 31.7365 218.926 32.6004L218.272 33.5196ZM210.629 28.7692C209.322 28.0456 207.977 27.3457 206.633 26.6886L207.138 25.6821C208.499 26.3474 209.861 27.0565 211.185 27.7893L210.629 28.7692ZM128.133 26.8749L127.626 25.8699C128.986 25.2002 130.382 24.5568 131.774 23.9572L132.229 24.9867C130.854 25.5786 129.476 26.2139 128.133 26.8749ZM202.535 24.8138C201.159 24.2259 199.749 23.666 198.344 23.1495L198.741 22.0969C200.164 22.6201 201.592 23.1874 202.986 23.7828L202.535 24.8138ZM136.417 23.3084L136.016 22.2572C137.436 21.7295 138.891 21.2302 140.341 20.7736L140.686 21.8437C139.255 22.2945 137.819 22.7874 136.417 23.3084ZM194.072 21.7006C192.643 21.2564 191.182 20.8429 189.729 20.4716L190.014 19.3843C191.485 19.7603 192.965 20.1793 194.413 20.6294L194.072 21.7006ZM145.026 20.5963L144.736 19.51C146.203 19.1282 147.702 18.7779 149.19 18.4693L149.424 19.5684C147.954 19.8733 146.474 20.2191 145.026 20.5963ZM185.328 19.4649C183.861 19.1682 182.364 18.9051 180.88 18.683L181.05 17.5726C182.554 17.7975 184.069 18.064 185.556 18.3644L185.328 19.4649ZM153.869 18.7634L153.692 17.6538C155.192 17.4211 156.719 17.2231 158.231 17.0655L158.35 18.1825C156.857 18.3382 155.349 18.5337 153.869 18.7634ZM176.397 18.1278C174.906 17.9812 173.39 17.871 171.89 17.7999L171.945 16.6782C173.463 16.75 174.999 16.8617 176.509 17.0101L176.397 18.1278ZM162.855 17.8277L162.794 16.7063C164.312 16.625 165.851 16.5815 167.369 16.5769L167.373 17.7001C165.874 17.7046 164.354 17.7476 162.855 17.8277Z" fill="#E4E4E4"/>
<path d="M235.817 50.7272C235.386 50.1212 234.94 49.515 234.491 48.9257L235.4 48.2507C235.856 48.8498 236.309 49.4658 236.747 50.0819L235.817 50.7272Z" fill="#E4E4E4"/>
<path d="M184.038 232.358C183.284 232.262 182.531 232.16 181.777 232.052L181.941 230.941C182.688 231.048 183.435 231.149 184.183 231.244L184.038 232.358Z" fill="#E4E4E4"/>
<path d="M177.175 231.315C175.653 231.045 174.115 230.745 172.602 230.425L172.84 229.326C174.341 229.644 175.867 229.941 177.376 230.209L177.175 231.315ZM168.062 229.384C166.558 229.013 165.044 228.612 163.56 228.192L163.873 227.113C165.344 227.528 166.846 227.926 168.338 228.294L168.062 229.384ZM159.101 226.852C157.627 226.382 156.143 225.881 154.69 225.363L155.076 224.307C156.516 224.82 157.988 225.317 159.45 225.783L159.101 226.852ZM150.334 223.73C148.898 223.164 147.452 222.566 146.035 221.952L146.491 220.923C147.897 221.532 149.332 222.126 150.755 222.687L150.334 223.73ZM141.799 220.032C140.404 219.371 139.001 218.678 137.631 217.973L138.157 216.977C139.516 217.677 140.907 218.364 142.29 219.019L141.799 220.032ZM133.535 215.777C132.193 215.028 130.841 214.244 129.516 213.447L130.108 212.488C131.422 213.279 132.763 214.056 134.094 214.799L133.535 215.777ZM125.578 210.987C124.286 210.149 122.989 209.279 121.724 208.399L122.379 207.481C123.633 208.353 124.92 209.217 126.202 210.047L125.578 210.987ZM117.957 205.683C116.72 204.756 115.49 203.793 114.299 202.821L115.023 201.955C116.202 202.917 117.42 203.871 118.644 204.788L117.957 205.683ZM110.764 199.813C109.612 198.79 108.466 197.73 107.359 196.661L108.154 195.858C109.25 196.915 110.384 197.965 111.524 198.977L110.764 199.813ZM104.091 193.371C103.029 192.257 101.977 191.106 100.964 189.949L101.824 189.214C102.827 190.359 103.868 191.499 104.919 192.602L104.091 193.371ZM97.9868 186.4C97.0234 185.201 96.0734 183.966 95.1631 182.73L96.0827 182.069C96.9836 183.293 97.9239 184.515 98.8774 185.702L97.9868 186.4Z" fill="#E4E4E4"/>
<path d="M92.4849 178.926C92.063 178.298 91.6481 177.668 91.2402 177.033L92.2 176.431C92.6038 177.059 93.0144 177.683 93.4319 178.304L92.4849 178.926Z" fill="#E4E4E4"/>
<path d="M71.5122 163.587L68.0488 160.103L72.2953 153.69L79.5635 141.739C79.326 141.224 79.2524 140.65 79.3523 140.093C79.4522 139.536 79.721 139.022 80.1231 138.619C80.5252 138.216 81.0416 137.943 81.6041 137.837C82.1666 137.73 82.7486 137.795 83.2731 138.022C83.7977 138.249 84.2401 138.628 84.5418 139.109C84.8434 139.59 84.9902 140.15 84.9626 140.715C84.9351 141.28 84.7345 141.824 84.3874 142.274C84.0403 142.724 83.5631 143.059 83.0189 143.235L77.0196 155.994L71.5122 163.587Z" fill="#A0616A"/>
<path d="M67.6763 171.539C67.2697 172.161 66.6903 172.654 66.0074 172.96C65.3245 173.265 64.567 173.37 63.8255 173.261C63.1197 173.179 62.4535 172.895 61.9089 172.444C61.3642 171.993 60.9647 171.395 60.7595 170.723C60.6083 170.246 60.5643 169.742 60.6305 169.246C60.6967 168.751 60.8715 168.275 61.1428 167.853C63.4597 163.995 67.7328 158.9 67.7756 158.849L67.8437 158.768L75.0508 160.311L67.6763 171.539Z" fill="#6C63FF"/>
<path d="M129.333 32.4846L128.485 32.7424L121.336 9.80635C120.239 6.28566 117.77 3.33977 114.474 1.61673C111.178 -0.106307 107.324 -0.465352 103.76 0.618588L54.5655 15.5794C52.8007 16.1161 51.1602 16.9909 49.7376 18.1539C48.3151 19.3168 47.1383 20.7452 46.2746 22.3574C45.4109 23.9696 44.8771 25.734 44.7037 27.55C44.5303 29.3659 44.7208 31.1979 45.2641 32.9411L84.4832 158.77C85.5806 162.291 88.0489 165.237 91.3451 166.96C94.6413 168.683 98.4955 169.042 102.06 167.958L151.254 152.997C154.818 151.913 157.8 149.475 159.545 146.219C161.289 142.963 161.653 139.156 160.555 135.635L133.574 49.0687L134.421 48.8109L129.333 32.4846Z" fill="#3F3D56"/>
<path d="M105.378 3.90722L98.9568 5.86009C99.475 6.48544 99.8295 7.22707 99.9892 8.01965C100.149 8.81224 100.109 9.63145 99.8725 10.4051C99.6361 11.1788 99.2108 11.8832 98.634 12.4563C98.0571 13.0293 97.3465 13.4534 96.5646 13.6913L68.3819 22.2621C67.6 22.4999 66.7709 22.544 65.9676 22.3907C65.1643 22.2373 64.4116 21.8912 63.7756 21.3828C63.1397 20.8744 62.6401 20.2193 62.3208 19.4753C62.0016 18.7312 61.8725 17.921 61.9449 17.116L55.9472 18.94C53.2855 19.7495 51.0583 21.5703 49.7557 24.0018C48.453 26.4333 48.1815 29.2764 49.001 31.9056L88.1626 157.55C88.9821 160.179 90.8254 162.379 93.287 163.666C95.7485 164.953 98.6268 165.221 101.289 164.411L150.72 149.378C153.381 148.569 155.608 146.748 156.911 144.317C158.214 141.885 158.485 139.042 157.666 136.413L118.504 10.7685C117.685 8.13931 115.841 5.93935 113.38 4.65261C110.918 3.36587 108.04 3.09775 105.378 3.90722Z" fill="white"/>
<path d="M304.404 278.224L189.003 237.248C186.269 236.274 184.038 234.268 182.799 231.671C181.56 229.074 181.415 226.097 182.395 223.394L242.554 58.0812C243.54 55.3805 245.57 53.1765 248.2 51.9528C250.829 50.7291 253.842 50.5855 256.579 51.5537L371.98 92.5293C374.714 93.5035 376.945 95.5093 378.184 98.1065C379.423 100.704 379.568 103.68 378.588 106.383L318.429 271.696C317.443 274.397 315.412 276.601 312.783 277.824C310.154 279.048 307.14 279.192 304.404 278.224Z" fill="#3F3D56"/>
<path d="M306.973 271.794L191.166 230.674C190.323 230.374 189.635 229.755 189.253 228.955C188.871 228.154 188.827 227.237 189.129 226.403L249.686 59.9958C249.99 59.1632 250.616 58.4838 251.426 58.1066C252.237 57.7294 253.166 57.6851 254.009 57.9836L369.817 99.1034C370.659 99.4037 371.347 100.022 371.729 100.823C372.111 101.623 372.156 102.541 371.854 103.374L311.297 269.782C310.993 270.614 310.367 271.294 309.556 271.671C308.746 272.048 307.817 272.092 306.973 271.794Z" fill="white"/>
<path d="M312.705 75.9279C313.22 75.9279 313.638 75.5155 313.638 75.0067C313.638 74.4979 313.22 74.0854 312.705 74.0854C312.19 74.0854 311.772 74.4979 311.772 75.0067C311.772 75.5155 312.19 75.9279 312.705 75.9279Z" fill="white"/>
<path d="M121.01 100.189C130.845 90.4737 130.845 74.7221 121.01 65.0068C111.174 55.2915 95.2281 55.2915 85.3926 65.0068C75.5572 74.7221 75.5572 90.4737 85.3926 100.189C95.2281 109.904 111.174 109.904 121.01 100.189Z" fill="#A84AC9"/>
<path d="M105.839 94.4702L93.373 86.1169L94.4616 84.5328L104.782 91.4489L112.241 68.4001L114.086 68.9827L105.839 94.4702Z" fill="white"/>
<path d="M303.137 184.997C315.595 172.692 315.595 152.742 303.137 140.436C290.68 128.131 270.483 128.131 258.026 140.436C245.568 152.742 245.568 172.692 258.026 184.997C270.483 197.302 290.68 197.302 303.137 184.997Z" fill="#A84AC9"/>
<path d="M272.888 176.104L268.308 157.81L270.69 157.229L274.483 172.375L301.267 156.904L302.505 158.996L272.888 176.104Z" fill="white"/>
<path d="M73.5203 256.919H77.8267L79.8753 240.512L73.5195 240.512L73.5203 256.919Z" fill="#A0616A"/>
<path d="M72.4219 255.53L80.9025 255.53C82.3358 255.53 83.7107 256.092 84.7242 257.093C85.7378 258.094 86.3072 259.452 86.3073 260.868V261.041L72.4221 261.042L72.4219 255.53Z" fill="#2F2E41"/>
<path d="M39.9902 255.078L44.2481 255.713L48.7569 239.793L43.1751 238.855L39.9902 255.078Z" fill="#A0616A"/>
<path d="M39.1142 253.542L47.4995 254.794C48.9167 255.006 50.1911 255.765 51.0417 256.904C51.8924 258.044 52.2499 259.471 52.0357 260.87L52.0095 261.042L38.2803 258.992L39.1142 253.542Z" fill="#2F2E41"/>
<path d="M64.9316 179.572L74.9456 177.418L80.5622 193.277L80.7378 254.515L72.5636 254.465L69.1466 204.9L47.3691 250.699L38.5879 249.658L57.731 200.563C57.731 200.563 56.6772 191.889 60.0141 187.552L59.3116 183.042L64.9316 179.572Z" fill="#2F2E41"/>
<path d="M55.5303 167.912C55.3027 167.236 55.2785 166.51 55.4607 165.821C55.6429 165.133 56.0237 164.511 56.5567 164.032L58.6734 162.131L64.6407 161.138L68.3719 160.469L77.2192 182.285L59.8037 184.244C58.5254 183.971 58.0148 183.281 58.7586 181.907L55.5303 167.912Z" fill="#A84AC9"/>
<path d="M76.6175 164.299L76.1191 159.442L83.4929 157.058L96.7294 152.22C96.8699 151.671 97.1756 151.178 97.6062 150.805C98.0368 150.432 98.5719 150.197 99.1407 150.13C99.7095 150.064 100.285 150.17 100.792 150.434C101.298 150.699 101.712 151.108 101.977 151.61C102.243 152.111 102.348 152.68 102.279 153.241C102.21 153.803 101.97 154.331 101.591 154.755C101.212 155.179 100.712 155.479 100.156 155.616C99.6001 155.753 99.0154 155.72 98.479 155.522L85.7217 161.774L76.6175 164.299Z" fill="#A0616A"/>
<path d="M68.5899 168.136C67.8788 168.371 67.1145 168.398 66.3883 168.214C65.662 168.031 65.0046 167.645 64.4946 167.102C63.9961 166.602 63.6561 165.969 63.5165 165.281C63.3769 164.593 63.4436 163.879 63.7086 163.228C63.8925 162.762 64.177 162.342 64.5423 161.996C64.9077 161.65 65.345 161.387 65.8237 161.225C70.0737 159.645 76.6337 158.307 76.6993 158.294L76.8037 158.273L81.4523 163.927L68.5899 168.136Z" fill="#A84AC9"/>
<path d="M62.0221 159.05C65.6398 159.05 68.5725 156.153 68.5725 152.58C68.5725 149.006 65.6398 146.109 62.0221 146.109C58.4044 146.109 55.4717 149.006 55.4717 152.58C55.4717 156.153 58.4044 159.05 62.0221 159.05Z" fill="#A0616A"/>
<path d="M56.7185 161.797C55.7027 161.797 54.6879 161.736 53.6796 161.614L53.5414 161.598L52.4862 155.94C52.0387 153.541 52.5377 151.064 53.8806 149.017C55.2236 146.971 57.3087 145.51 59.708 144.934C59.8681 144.893 60.0363 144.898 60.1941 144.946C60.3518 144.994 60.4931 145.085 60.6023 145.207L60.8539 145.12C61.8173 144.788 62.8375 144.647 63.8562 144.705C64.8749 144.763 65.8721 145.018 66.7909 145.456C67.7097 145.894 68.5321 146.507 69.2112 147.259C69.8903 148.012 70.4127 148.889 70.7486 149.84L70.811 150.017L69.1317 150.595C68.6085 150.776 68.1325 151.069 67.7384 151.454C67.3443 151.838 67.0419 152.305 66.8534 152.82C66.6649 153.335 66.5948 153.884 66.6484 154.429C66.702 154.974 66.8779 155.5 67.1632 155.969L68.8802 158.793L68.6974 158.883C64.9916 160.771 60.8878 161.769 56.7185 161.797Z" fill="#2F2E41"/>
<path d="M144.784 261.655H0.379017C0.278495 261.655 0.182091 261.616 0.111011 261.545C0.0399317 261.475 0 261.38 0 261.281C0 261.181 0.0399317 261.086 0.111011 261.016C0.182091 260.946 0.278495 260.906 0.379017 260.906H144.784C144.885 260.906 144.981 260.946 145.052 261.016C145.124 261.086 145.164 261.181 145.164 261.281C145.164 261.38 145.124 261.475 145.052 261.545C144.981 261.616 144.885 261.655 144.784 261.655Z" fill="#CACACA"/>
<path d="M400.621 280H256.216C256.115 280 256.019 279.961 255.948 279.89C255.877 279.82 255.837 279.725 255.837 279.626C255.837 279.526 255.877 279.431 255.948 279.361C256.019 279.291 256.115 279.251 256.216 279.251H400.621C400.722 279.251 400.818 279.291 400.889 279.361C400.961 279.431 401 279.526 401 279.626C401 279.725 400.961 279.82 400.889 279.89C400.818 279.961 400.722 280 400.621 280Z" fill="#CACACA"/>
<path d="M322.191 214.658C322.512 214.393 322.769 214.062 322.946 213.688C323.122 213.315 323.214 212.907 323.214 212.494C323.214 212.082 323.122 211.674 322.945 211.301C322.769 210.927 322.511 210.596 322.191 210.331L320.067 173.408L314.007 174.762L318.013 210.822C317.598 211.383 317.406 212.074 317.473 212.766C317.541 213.457 317.862 214.1 318.377 214.573C318.892 215.046 319.565 215.316 320.268 215.332C320.971 215.347 321.655 215.108 322.191 214.658Z" fill="#9F616A"/>
<path d="M346.798 219.466C346.469 219.213 346.199 218.891 346.009 218.524C345.819 218.157 345.712 217.753 345.697 217.34C345.682 216.928 345.759 216.518 345.922 216.138C346.085 215.758 346.33 215.418 346.64 215.142L347.41 178.167L353.515 179.303L350.833 215.483C351.268 216.028 351.485 216.713 351.444 217.406C351.402 218.1 351.104 218.754 350.607 219.245C350.11 219.736 349.447 220.03 348.745 220.07C348.043 220.111 347.35 219.896 346.798 219.466Z" fill="#9F616A"/>
<path d="M350.029 274.418L354.783 274.417L356.14 263.461L350.028 263.462L350.029 274.418Z" fill="#9F616A"/>
<path d="M348.815 272.884L358.179 272.884H358.179C359.762 272.884 361.279 273.505 362.398 274.61C363.517 275.716 364.146 277.215 364.146 278.778V278.969L348.816 278.97L348.815 272.884Z" fill="#2F2E41"/>
<path d="M320.36 274.418L325.115 274.417L326.471 256.302H320.359L320.36 274.418Z" fill="#9F616A"/>
<path d="M319.147 272.884L328.511 272.884C330.093 272.884 331.611 273.505 332.73 274.61C333.849 275.716 334.478 277.215 334.478 278.778V278.969L319.148 278.97L319.147 272.884Z" fill="#2F2E41"/>
<path d="M339.513 157.479C343.809 157.479 347.291 154.039 347.291 149.795C347.291 145.552 343.809 142.112 339.513 142.112C335.217 142.112 331.734 145.552 331.734 149.795C331.734 154.039 335.217 157.479 339.513 157.479Z" fill="#9F616A"/>
<path d="M349.399 167.525C349.399 167.525 352.856 167.81 353.144 169.517C353.432 171.225 353.144 176.347 353.144 176.347C353.144 176.347 355.448 183.177 353.144 184.884C350.839 186.592 344.789 186.876 344.789 186.876L349.399 167.525Z" fill="#E4E4E4"/>
<path d="M320.014 206.227L316.845 211.35C316.845 211.35 317.997 233.831 318.285 234.4C318.514 234.734 318.616 235.137 318.573 235.538V238.668L319.438 265.987C319.438 265.987 317.133 267.126 320.014 267.979C322.895 268.833 326.64 269.118 327.216 266.272C327.792 263.426 327.82 239.719 327.792 238.953L328.08 237.815L332.69 221.025L343.349 244.36L349.687 270.541C349.687 270.541 359.279 271.635 357.551 267.935C355.822 264.236 351.704 236.676 351.704 236.676C351.704 236.676 350.84 233.831 350.84 233.262C350.84 232.692 350.551 232.408 350.551 231.839C350.551 231.27 350.263 229.562 350.263 229.562L348.247 211.634L320.014 206.227Z" fill="#2F2E41"/>
<path d="M322.894 162.688C322.894 162.688 319.437 162.403 318.573 165.249C317.708 168.095 310.506 178.908 311.947 180.047C313.387 181.185 324.335 185.169 324.623 184.884C324.911 184.6 322.894 162.688 322.894 162.688Z" fill="#E4E4E4"/>
<path d="M348.571 144.896C348.245 143.696 347.785 142.496 346.847 141.667C345.898 140.833 344.679 140.358 343.409 140.329C341.959 139.499 340.332 139.018 338.659 138.924C336.986 138.83 335.315 139.127 333.779 139.789C333.613 139.458 333.345 139.187 333.012 139.017C332.92 139.807 332.827 140.597 332.735 141.388C332.377 141.122 332.02 140.856 331.663 140.591C331.645 141.059 331.628 141.526 331.61 141.994C331.282 141.716 330.955 141.438 330.628 141.159C330.558 142.816 331.953 144.25 333.531 144.814C335.109 145.379 336.839 145.275 338.515 145.196C339.343 145.158 340.285 145.172 340.844 145.776C341.429 146.41 341.319 147.38 341.333 148.238C341.354 149.444 342.607 148.853 343.235 149.887C343.506 150.23 343.675 150.64 343.723 151.071C343.664 151.463 343.52 151.838 343.301 152.17C342.839 153.114 341.918 156.051 342.358 157.006C343.171 156.557 343.984 156.107 344.797 155.658C344.797 155.658 350.151 150.706 348.571 144.896Z" fill="#2F2E41"/>
<path d="M347.094 184.031C347.094 184.031 352.856 169.517 352.568 168.379C352.28 167.241 345.091 162.57 345.091 162.57C344.818 162.537 344.558 162.504 344.296 162.472C344.335 162.371 344.362 162.267 344.375 162.16L344.498 161.046C344.537 160.7 344.435 160.353 344.214 160.082C343.994 159.811 343.673 159.637 343.323 159.599L334.189 158.61C333.839 158.572 333.488 158.673 333.213 158.891C332.938 159.108 332.763 159.425 332.724 159.771L332.617 160.734C332.135 160.616 332.113 160.57 332.113 160.57C332.113 160.57 324.047 161.834 322.03 162.403C320.014 162.972 321.742 184.6 321.742 184.6C321.742 184.6 320.302 204.52 319.437 205.089C318.573 205.658 319.437 205.374 318.573 207.65C318.459 207.95 320.051 206.274 320.734 206.654C325.229 209.157 343.457 215.011 347.958 214.764C349.398 199.928 346.518 195.129 346.518 195.129L347.094 184.031Z" fill="#E4E4E4"/>
</g>
<defs>
<clipPath id="clip0_333_2580">
<rect width="401" height="280" fill="white"/>
</clipPath>
</defs>
</svg>
