<svg width="721" height="702" viewBox="0 0 721 702" fill="none" xmlns="http://www.w3.org/2000/svg">
<g clip-path="url(#clip0_333_2676)">
<path d="M222.647 514.97H132.334C130.057 514.97 128.204 513.123 128.204 510.853C128.204 508.582 130.057 506.736 132.334 506.736H222.647C224.924 506.736 226.776 508.582 226.776 510.853C226.776 513.123 224.924 514.97 222.647 514.97Z" fill="#A84AC9"/>
<path d="M61.3516 537.011C61.3516 537.751 61.9473 538.345 62.6891 538.345H292.292C293.034 538.345 293.629 537.751 293.629 537.011C293.629 536.272 293.034 535.678 292.292 535.678H62.6891C61.9473 535.678 61.3516 536.272 61.3516 537.011Z" fill="#3F3D56"/>
<path d="M545.777 268.3C586.123 268.3 618.83 235.686 618.83 195.455C618.83 155.223 586.123 122.609 545.777 122.609C505.43 122.609 472.723 155.223 472.723 195.455C472.723 235.686 505.43 268.3 545.777 268.3Z" fill="#A84AC9"/>
<path d="M0 629.061C0 629.801 0.595704 630.395 1.33752 630.395H588.342C589.084 630.395 589.68 629.801 589.68 629.061C589.68 628.322 589.084 627.728 588.342 627.728H1.33752C0.595704 627.728 0 628.322 0 629.061Z" fill="#3F3D56"/>
<path d="M8.49105 538.999L6.61328 536.948L189.882 370.191L255.91 399.706L327.211 277.78L385.791 249.624L440.067 339.826C469.37 264.18 542.859 185.037 630.918 104.74L633.084 106.489C550.494 185.336 479.83 264.54 439.727 344.662L389.524 260.982C387.152 257.029 382.168 255.502 377.979 257.446C345.959 272.302 319.25 296.553 301.425 326.955L256.762 403.131L246.566 398.573C212.469 383.332 172.552 389.72 144.95 414.835L8.49105 538.999Z" fill="#3F3D56"/>
<path d="M635.05 119.922L632.267 120.115L627.778 110.412L617.725 108.376L617.335 105.622L633.905 103.274L635.05 119.922Z" fill="#3F3D56"/>
<path d="M349.18 179.291L359.031 141.526L397.409 139.685L408.892 191.742L349.18 179.291Z" fill="#FFB6B6"/>
<path opacity="0.1" d="M349.18 179.291L359.031 141.526L397.409 139.685L408.892 191.742L349.18 179.291Z" fill="black"/>
<path d="M374.434 162.66C400.017 162.66 420.757 141.979 420.757 116.469C420.757 90.9579 400.017 70.2773 374.434 70.2773C348.85 70.2773 328.11 90.9579 328.11 116.469C328.11 141.979 348.85 162.66 374.434 162.66Z" fill="#FFB6B6"/>
<path d="M399.991 126.246C399.991 126.246 382.394 91.4788 361.776 93.4861C341.157 95.4933 330.295 97.9345 330.295 97.9345C330.295 97.9345 324.175 70.8562 352.99 60.4406C352.99 60.4406 316.352 24.428 359.972 6.76226C403.592 -10.9035 428 11.6269 428 11.6269C428 11.6269 460.288 43.7681 419.623 67.7907C419.623 67.7907 449.819 108.292 413.259 141.673C413.259 141.673 421.437 114.66 412.905 119.642C404.373 124.624 399.991 126.246 399.991 126.246Z" fill="#2F2E41"/>
<path d="M323.324 370.294L317.162 376.183L272.647 471.359L267.774 628.786H342.565L377.649 550.826L401.288 628.034H468.536L484.125 487.879L442.219 388.758L323.324 370.294Z" fill="#2F2E41"/>
<path d="M400.8 175.453H350.853L296.523 204.606L309.193 260.969C309.193 260.969 306.269 294.981 313.091 320.247C319.913 345.514 316.989 378.554 316.989 378.554L442.219 388.758L446.117 274.088L444.168 197.318L400.8 175.453Z" fill="#E6E6E6"/>
<path d="M304.807 205.092C304.807 205.092 274.596 206.064 269.723 225.499C264.85 244.935 260.952 345.028 260.952 345.028C260.952 345.028 263.876 404.421 296.523 376.182C329.171 347.943 326.247 262.427 326.247 262.427L304.807 205.092Z" fill="#E6E6E6"/>
<path d="M597.836 700.879H419.799C413.77 700.879 408.864 695.988 408.864 689.975V506.451C408.864 500.438 413.77 495.547 419.799 495.547H597.836C603.866 495.547 608.771 500.438 608.771 506.451V689.975C608.771 695.988 603.866 700.879 597.836 700.879Z" fill="white"/>
<path d="M597.836 702H419.799C413.15 702 407.74 696.606 407.74 689.975V506.451C407.74 499.821 413.15 494.426 419.799 494.426H597.836C604.485 494.426 609.895 499.821 609.895 506.451V689.975C609.895 696.606 604.485 702 597.836 702ZM419.799 496.667C414.389 496.667 409.988 501.056 409.988 506.451V689.975C409.988 695.37 414.389 699.758 419.799 699.758H597.836C603.246 699.758 607.647 695.37 607.647 689.975V506.451C607.647 501.056 603.246 496.667 597.836 496.667H419.799Z" fill="#3F3D56"/>
<path d="M515.843 652.665H501.17C499.383 652.665 497.93 651.547 497.93 650.172V587.175C497.93 585.8 499.383 584.681 501.17 584.681H515.843C517.63 584.681 519.083 585.8 519.083 587.175V650.172C519.083 651.547 517.63 652.665 515.843 652.665Z" fill="#A84AC9"/>
<path d="M467.331 615.541C465.887 615.541 464.713 616.445 464.713 617.556V650.101C464.713 651.212 465.887 652.116 467.331 652.116H482.005C483.448 652.116 484.622 651.212 484.622 650.101V617.556C484.622 616.445 483.448 615.541 482.005 615.541H467.331Z" fill="#A84AC9"/>
<path d="M549.682 652.665H535.008C533.222 652.665 531.769 651.547 531.769 650.172V546.932C531.769 545.557 533.222 544.438 535.008 544.438H549.682C551.469 544.438 552.922 545.557 552.922 546.932V650.172C552.922 651.547 551.469 652.665 549.682 652.665Z" fill="#A84AC9"/>
<path d="M233.913 200.127H217.151C215.11 200.127 213.45 198.849 213.45 197.278V125.318C213.45 123.747 215.11 122.469 217.151 122.469H233.913C235.954 122.469 237.614 123.747 237.614 125.318V197.278C237.614 198.849 235.954 200.127 233.913 200.127Z" fill="#A84AC9"/>
<path d="M178.497 157.72C176.848 157.72 175.507 158.753 175.507 160.022V197.198C175.507 198.467 176.848 199.499 178.497 199.499H195.259C196.908 199.499 198.249 198.467 198.249 197.198V160.022C198.249 158.753 196.908 157.72 195.259 157.72H178.497Z" fill="#A84AC9"/>
<path d="M272.566 200.127H255.804C253.764 200.127 252.104 198.849 252.104 197.278V79.3484C252.104 77.7776 253.764 76.4998 255.804 76.4998H272.566C274.607 76.4998 276.267 77.7776 276.267 79.3484V197.278C276.267 198.849 274.607 200.127 272.566 200.127Z" fill="#A84AC9"/>
<path d="M481.524 522.249C490.206 521.421 496.184 509.722 494.878 496.114C494.431 490.672 492.683 485.415 489.781 480.783L488.108 465.382L488.364 465.306L492.57 392.283C493.548 375.304 486.808 358.62 473.822 347.595C466.097 341.037 457.856 337.716 452.557 346.003C443.763 359.753 455.153 416.435 462.633 448.661L465.533 483.098C463.563 488.195 462.846 493.689 463.442 499.12C464.746 512.723 472.842 523.078 481.524 522.249Z" fill="#FFB6B6"/>
<path d="M433.448 199.261C433.448 199.261 458.787 189.544 470.481 218.697C482.176 247.85 494.845 391.673 494.845 391.673L435.397 380.983L433.448 199.261Z" fill="#E6E6E6"/>
<path d="M85.5205 185.002H51.402C49.1251 185.002 47.2725 183.154 47.2725 180.884C47.2725 178.614 49.1251 176.767 51.402 176.767H85.5205C87.7974 176.767 89.6492 178.614 89.6492 180.884C89.6492 183.154 87.7974 185.002 85.5205 185.002Z" fill="#E6E6E6"/>
<path d="M85.5205 126.636H51.402C49.1251 126.636 47.2725 124.789 47.2725 122.519C47.2725 120.248 49.1251 118.402 51.402 118.402H85.5205C87.7974 118.402 89.6492 120.248 89.6492 122.519C89.6492 124.789 87.7974 126.636 85.5205 126.636Z" fill="#E6E6E6"/>
<path d="M85.5205 84.546H51.402C49.1251 84.546 47.2725 82.6986 47.2725 80.4282C47.2725 78.1578 49.1251 76.3113 51.402 76.3113H85.5205C87.7974 76.3113 89.6492 78.1578 89.6492 80.4282C89.6492 82.6986 87.7974 84.546 85.5205 84.546Z" fill="#E6E6E6"/>
<path d="M45.9033 200.33C45.9033 201.07 46.499 201.664 47.2408 201.664H276.844C277.585 201.664 278.181 201.07 278.181 200.33C278.181 199.59 277.585 198.996 276.844 198.996H47.2408C46.499 198.996 45.9033 199.59 45.9033 200.33Z" fill="#3F3D56"/>
<path d="M488.723 545.507C488.723 546.247 489.318 546.841 490.06 546.841H719.663C720.405 546.841 721 546.247 721 545.507C721 544.768 720.405 544.174 719.663 544.174H490.06C489.318 544.174 488.723 544.768 488.723 545.507Z" fill="#3F3D56"/>
<path d="M421.288 654.215C421.288 654.955 421.884 655.549 422.626 655.549H652.228C652.97 655.549 653.566 654.955 653.566 654.215C653.566 653.476 652.97 652.882 652.228 652.882H422.626C421.884 652.882 421.288 653.476 421.288 654.215Z" fill="#3F3D56"/>
<path d="M266.89 193.588C258.209 194.417 252.23 206.115 253.537 219.723C253.984 225.166 255.731 230.423 258.633 235.054L260.307 250.455L260.05 250.531L255.845 323.554C254.867 340.533 261.607 357.217 274.593 368.242C282.318 374.801 290.559 378.121 295.858 369.834C304.651 356.084 293.261 299.402 285.782 267.176L282.882 232.739C284.852 227.642 285.568 222.148 284.972 216.718C283.668 203.114 275.572 192.759 266.89 193.588Z" fill="#FFB6B6"/>
</g>
<defs>
<clipPath id="clip0_333_2676">
<rect width="721" height="702" fill="white"/>
</clipPath>
</defs>
</svg>
